<svg xmlns="http://www.w3.org/2000/svg" width="383.92425537109375" height="391.3682556152344" viewBox="-91.90968322753906 -95.7079849243164 383.92425537109375 391.3682556152344"><title>Neo4j Graph Visualization</title><desc>Created using Neo4j (http://www.neo4j.com/)</desc><g class="layer relationships"><g class="relationship" transform="translate(147.2130448363856 266.66029847429337) rotate(320.2475368477399)"><path class="outline" fill="#A5ABB6" stroke="none" d="M 21.40063509461097,12.933012701892217 L 21.90063509461097,12.06698729810778 A 58.26005583607432 58.26005583607432 0 0 0 38.39784020069587,18.486246326663107 L 38.181005138822655,19.46245458105478 A 59.26005583607432 59.26005583607432 0 0 1 21.40063509461097,12.933012701892217 Z M 60.23966699030791,20.1524429514213 L 60.08426713710605,19.16459129979296 A 58.26005583607432 58.26005583607432 0 0 0 76.95041390005596,13.788927977136275 L 75.61572151869241,11.102183432686601 L 83.44193323399912,11.122436511362935 L 78.73000374187403,17.371254036402508 L 77.39531136051048,14.684509491952834 A 59.26005583607432 59.26005583607432 0 0 1 60.23966699030791,20.1524429514213"/><text text-anchor="middle" pointer-events="none" font-size="8px" fill="#000000" x="49.193564480600756" y="23.343629831421367" font-family="sans-serif">road</text></g><g class="relationship" transform="translate(228.57779763583747 198.98403027037781) rotate(289.1035962299667)"><path class="outline" fill="#A5ABB6" stroke="none" d="M 25 0.5 L 39.44305506493602 0.5 L 39.44305506493602 -0.5 L 25 -0.5 Z M 58.77899256493602 0.5 L 73.22204762987204 0.5 L 73.22204762987204 3.5 L 80.22204762987204 0 L 73.22204762987204 -3.5 L 73.22204762987204 -0.5 L 58.77899256493602 -0.5 Z"/><text text-anchor="middle" pointer-events="none" font-size="8px" fill="#000000" x="49.11102381493602" y="3" font-family="sans-serif">trek</text></g><g class="relationship" transform="translate(263.01457571451704 99.55673209234808) rotate(258.0159286313918)"><path class="outline" fill="#A5ABB6" stroke="none" d="M 25 0.5 L 39.61486827450931 0.5 L 39.61486827450931 -0.5 L 25 -0.5 Z M 58.95080577450931 0.5 L 73.56567404901863 0.5 L 73.56567404901863 3.5 L 80.56567404901863 0 L 73.56567404901863 -3.5 L 73.56567404901863 -0.5 L 58.95080577450931 -0.5 Z"/><text text-anchor="middle" pointer-events="none" font-size="8px" fill="#000000" x="49.28283702450931" y="3" transform="rotate(180 49.28283702450931 0)" font-family="sans-serif">trek</text></g><g class="relationship" transform="translate(147.2130448363856 266.66029847429337) rotate(320.2475368477399)"><path class="outline" fill="#A5ABB6" stroke="none" d="M 25 0.5 L 25.66964180220655 0.5 L 25.66964180220655 -0.5 L 25 -0.5 Z M 73.16182930220654 0.5 L 73.8314711044131 0.5 L 73.8314711044131 3.5 L 80.8314711044131 0 L 73.8314711044131 -3.5 L 73.8314711044131 -0.5 L 73.16182930220654 -0.5 Z"/><text text-anchor="middle" pointer-events="none" font-size="8px" fill="#000000" x="49.41573555220655" y="3" font-family="sans-serif">PublicTra…</text></g><g class="relationship" transform="translate(147.2130448363856 266.66029847429337) rotate(320.2475368477399)"><path class="outline" fill="#A5ABB6" stroke="none" d="M 21.40063509461097,-12.933012701892217 L 21.90063509461097,-12.06698729810778 A 58.26005583607432 58.26005583607432 0 0 1 39.69594906323673,-18.75911305253132 L 39.50139528557981,-19.740004905693233 A 59.26005583607432 59.26005583607432 0 0 0 21.40063509461097,-12.933012701892217 Z M 58.90451169876436,-20.34692860596582 L 58.77164228824782,-19.355795053033127 A 58.26005583607432 58.26005583607432 0 0 1 76.95041390005596,-13.788927977136275 L 75.61572151869241,-11.102183432686601 L 83.44193323399912,-11.122436511362935 L 78.73000374187403,-17.371254036402508 L 77.39531136051048,-14.684509491952834 A 59.26005583607432 59.26005583607432 0 0 0 58.90451169876436,-20.34692860596582"/><text text-anchor="middle" pointer-events="none" font-size="8px" fill="#000000" x="49.19356448060075" y="-17.343629831421367" font-family="sans-serif">trek</text></g><g class="relationship" transform="translate(52.56766047230676 -66.70798839750763) rotate(500.299920249108)"><path class="outline" fill="#A5ABB6" stroke="none" d="M 21.40063509461097,12.933012701892217 L 21.90063509461097,12.06698729810778 A 58.28384666313947 58.28384666313947 0 0 0 39.70738954363928,18.762673481866322 L 39.51290737522554,19.743579535558055 A 59.28384666313947 59.28384666313947 0 0 1 21.40063509461097,12.933012701892217 Z M 58.91603239894631,20.35037892458373 L 58.78322263008121,19.35923737803551 A 58.28384666313947 58.28384666313947 0 0 0 76.97356342380203,13.789298483607737 L 75.6388365749981,11.102571061802184 L 83.46504854948232,11.12272374003281 L 78.75319922220729,17.37160171268181 L 77.41847237340335,14.684874290876255 A 59.28384666313947 59.28384666313947 0 0 1 58.91603239894631,20.35037892458373"/><text text-anchor="middle" pointer-events="none" font-size="8px" fill="#000000" x="49.2050929650259" y="23.346817355090167" transform="rotate(180 49.2050929650259 20.346817355090167)" font-family="sans-serif">trek</text></g><g class="relationship" transform="translate(-28.87660731779075 0.908536962611745) rotate(468.8636143621807)"><path class="outline" fill="#A5ABB6" stroke="none" d="M 25 0.5 L 39.46323788499556 0.5 L 39.46323788499556 -0.5 L 25 -0.5 Z M 58.79917538499556 0.5 L 73.26241326999111 0.5 L 73.26241326999111 3.5 L 80.26241326999111 0 L 73.26241326999111 -3.5 L 73.26241326999111 -0.5 L 58.79917538499556 -0.5 Z"/><text text-anchor="middle" pointer-events="none" font-size="8px" fill="#000000" x="49.13120663499556" y="3" transform="rotate(180 49.13120663499556 0)" font-family="sans-serif">trek</text></g><g class="relationship" transform="translate(-62.90968679891597 100.51739775548407) rotate(438.1468427047199)"><path class="outline" fill="#A5ABB6" stroke="none" d="M 25 0.5 L 39.63523895537994 0.5 L 39.63523895537994 -0.5 L 25 -0.5 Z M 58.97117645537994 0.5 L 73.60641541075988 0.5 L 73.60641541075988 3.5 L 80.60641541075988 0 L 73.60641541075988 -3.5 L 73.60641541075988 -0.5 L 58.97117645537994 -0.5 Z"/><text text-anchor="middle" pointer-events="none" font-size="8px" fill="#000000" x="49.30320770537994" y="3" font-family="sans-serif">trek</text></g><g class="relationship" transform="translate(52.56766047230676 -66.70798839750763) rotate(500.299920249108)"><path class="outline" fill="#A5ABB6" stroke="none" d="M 25 0.5 L 38.42136249059763 0.5 L 38.42136249059763 -0.5 L 25 -0.5 Z M 60.43308124059763 0.5 L 73.85444373119526 0.5 L 73.85444373119526 3.5 L 80.85444373119526 0 L 73.85444373119526 -3.5 L 73.85444373119526 -0.5 L 60.43308124059763 -0.5 Z"/><text text-anchor="middle" pointer-events="none" font-size="8px" fill="#000000" x="49.42722186559763" y="3" transform="rotate(180 49.42722186559763 0)" font-family="sans-serif">road</text></g><g class="relationship" transform="translate(52.56766047230676 -66.70798839750763) rotate(500.299920249108)"><path class="outline" fill="#A5ABB6" stroke="none" d="M 21.40063509461097,-12.933012701892217 L 21.90063509461097,-12.06698729810778 A 58.28384666313947 58.28384666313947 0 0 1 22.7380554177218,-12.541296940748175 L 22.25242338365155,-13.41546027072993 A 59.28384666313947 59.28384666313947 0 0 0 21.40063509461097,-12.933012701892217 Z M 76.53820263135127,-15.11315472149581 L 76.1081420728649,-14.210354679385496 A 58.28384666313947 58.28384666313947 0 0 1 76.97356342380203,-13.789298483607737 L 75.6388365749981,-11.102571061802184 L 83.46504854948232,-11.12272374003281 L 78.75319922220729,-17.37160171268181 L 77.41847237340335,-14.684874290876255 A 59.28384666313947 59.28384666313947 0 0 0 76.53820263135127,-15.11315472149581"/><text text-anchor="middle" pointer-events="none" font-size="8px" fill="#000000" x="49.205092965025884" y="-17.346817355090167" transform="rotate(180 49.205092965025884 -20.346817355090167)" font-family="sans-serif">PublicTrans…</text></g></g><g class="layer nodes"><g class="node" transform="translate(147.2130448363856,266.66029847429337)"><circle class="outline" cx="0" cy="0" r="25" fill="#68BDF6" stroke="#5CA8DB" stroke-width="2px"/><text text-anchor="middle" pointer-events="none" font-family="sans-serif" dy="1.5625" font-size="25" fill="#FFFFFF"/><text text-anchor="middle" pointer-events="none" y="5" font-size="10px" fill="#FFFFFF" font-family="sans-serif"> Darjeeling</text></g><g class="node" transform="translate(228.57779763583747,198.98403027037781)"><circle class="outline" cx="0" cy="0" r="25" fill="#68BDF6" stroke="#5CA8DB" stroke-width="2px"/><text text-anchor="middle" pointer-events="none" font-family="sans-serif" dy="1.5625" font-size="25" fill="#FFFFFF"/><text text-anchor="middle" pointer-events="none" y="5" font-size="10px" fill="#FFFFFF" font-family="sans-serif"> Rimbik</text></g><g class="node" transform="translate(263.01457571451704,99.55673209234808)"><circle class="outline" cx="0" cy="0" r="25" fill="#6DCE9E" stroke="#60B58B" stroke-width="2px"/><text text-anchor="middle" pointer-events="none" font-family="sans-serif" dy="1.5625" font-size="25" fill="#FFFFFF"/><text text-anchor="middle" pointer-events="none" y="5" font-size="10px" fill="#FFFFFF" font-family="sans-serif"> BhikeBh…</text></g><g class="node" transform="translate(241.0949454571996,-3.708176501065858)"><circle class="outline" cx="0" cy="0" r="25" fill="#FF756E" stroke="#E06760" stroke-width="2px"/><text text-anchor="middle" pointer-events="none" font-family="sans-serif" dy="1.5625" font-size="25" fill="#FFFFFF"/><text text-anchor="middle" pointer-events="none" y="5" font-size="10px" fill="#FFFFFF" font-family="sans-serif"> Sandak…</text></g><g class="node" transform="translate(52.56766047230676,-66.70798839750763)"><circle class="outline" cx="0" cy="0" r="25" fill="#68BDF6" stroke="#5CA8DB" stroke-width="2px"/><text text-anchor="middle" pointer-events="none" font-family="sans-serif" dy="1.5625" font-size="25" fill="#FFFFFF"/><text text-anchor="middle" pointer-events="none" y="5" font-size="10px" fill="#FFFFFF" font-family="sans-serif"> Darjeeling</text></g><g class="node" transform="translate(-28.87660731779075,0.908536962611745)"><circle class="outline" cx="0" cy="0" r="25" fill="#68BDF6" stroke="#5CA8DB" stroke-width="2px"/><text text-anchor="middle" pointer-events="none" font-family="sans-serif" dy="1.5625" font-size="25" fill="#FFFFFF"/><text text-anchor="middle" pointer-events="none" y="5" font-size="10px" fill="#FFFFFF" font-family="sans-serif"> Rimbik</text></g><g class="node" transform="translate(-62.90968679891597,100.51739775548407)"><circle class="outline" cx="0" cy="0" r="25" fill="#6DCE9E" stroke="#60B58B" stroke-width="2px"/><text text-anchor="middle" pointer-events="none" font-family="sans-serif" dy="1.5625" font-size="25" fill="#FFFFFF"/><text text-anchor="middle" pointer-events="none" y="5" font-size="10px" fill="#FFFFFF" font-family="sans-serif"> BhikeBh…</text></g><g class="node" transform="translate(-41.21769320145192,203.871993152484)"><circle class="outline" cx="0" cy="0" r="25" fill="#FF756E" stroke="#E06760" stroke-width="2px"/><text text-anchor="middle" pointer-events="none" font-family="sans-serif" dy="1.5625" font-size="25" fill="#FFFFFF"/><text text-anchor="middle" pointer-events="none" y="5" font-size="10px" fill="#FFFFFF" font-family="sans-serif"> Sandak…</text></g></g></svg>