<svg xmlns="http://www.w3.org/2000/svg" width="495.5635681152344" height="485.0101623535156" viewBox="-151.16531372070312 -139.9063720703125 495.5635681152344 485.0101623535156"><title>Neo4j Graph Visualization</title><desc>Created using Neo4j (http://www.neo4j.com/)</desc><g class="layer relationships"><g class="relationship" transform="translate(85.71717247480368 73.60545740443447) rotate(426.6907207823298)"><path class="outline" fill="#A5ABB6" stroke="none" d="M 25 0.5 L 39.30780771279343 0.5 L 39.30780771279343 -0.5 L 25 -0.5 Z M 84.87030771279343 0.5 L 99.17811542558687 0.5 L 99.17811542558687 3.5 L 106.17811542558687 0 L 99.17811542558687 -3.5 L 99.17811542558687 -0.5 L 84.87030771279343 -0.5 Z"/><text text-anchor="middle" pointer-events="none" font-size="8px" fill="#000000" x="62.08905771279343" y="3" font-family="sans-serif">ACTED_IN</text></g><g class="relationship" transform="translate(85.71717247480368 73.60545740443447) rotate(330.4254837996774)"><path class="outline" fill="#A5ABB6" stroke="none" d="M 25 0.5 L 38.43366737599878 0.5 L 38.43366737599878 -0.5 L 25 -0.5 Z M 83.99616737599878 0.5 L 97.42983475199756 0.5 L 97.42983475199756 3.5 L 104.42983475199756 0 L 97.42983475199756 -3.5 L 97.42983475199756 -0.5 L 83.99616737599878 -0.5 Z"/><text text-anchor="middle" pointer-events="none" font-size="8px" fill="#000000" x="61.21491737599878" y="3" font-family="sans-serif">ACTED_IN</text></g><g class="relationship" transform="translate(85.71717247480368 73.60545740443447) rotate(539.3793237611372)"><path class="outline" fill="#A5ABB6" stroke="none" d="M 25 0.5 L 38.07499025721749 0.5 L 38.07499025721749 -0.5 L 25 -0.5 Z M 83.6374902572175 0.5 L 96.71248051443499 0.5 L 96.71248051443499 3.5 L 103.71248051443499 0 L 96.71248051443499 -3.5 L 96.71248051443499 -0.5 L 83.6374902572175 -0.5 Z"/><text text-anchor="middle" pointer-events="none" font-size="8px" fill="#000000" x="60.85624025721749" y="3" transform="rotate(180 60.85624025721749 0)" font-family="sans-serif">ACTED_IN</text></g><g class="relationship" transform="translate(85.71717247480368 73.60545740443447) rotate(234.54038860047643)"><path class="outline" fill="#A5ABB6" stroke="none" d="M 25 0.5 L 38.49408465592468 0.5 L 38.49408465592468 -0.5 L 25 -0.5 Z M 84.05658465592468 0.5 L 97.55066931184936 0.5 L 97.55066931184936 3.5 L 104.55066931184936 0 L 97.55066931184936 -3.5 L 97.55066931184936 -0.5 L 84.05658465592468 -0.5 Z"/><text text-anchor="middle" pointer-events="none" font-size="8px" fill="#000000" x="61.27533465592468" y="3" transform="rotate(180 61.27533465592468 0)" font-family="sans-serif">ACTED_IN</text></g><g class="relationship" transform="translate(85.71717247480368 73.60545740443447) rotate(207.02700296898797)"><path class="outline" fill="#A5ABB6" stroke="none" d="M 25 0.5 L 28.690107412926864 0.5 L 28.690107412926864 -0.5 L 25 -0.5 Z M 74.25260741292686 0.5 L 77.94271482585373 0.5 L 77.94271482585373 3.5 L 84.94271482585373 0 L 77.94271482585373 -3.5 L 77.94271482585373 -0.5 L 74.25260741292686 -0.5 Z"/><text text-anchor="middle" pointer-events="none" font-size="8px" fill="#000000" x="51.471357412926864" y="3" transform="rotate(180 51.471357412926864 0)" font-family="sans-serif">ACTED_IN</text></g><g class="relationship" transform="translate(156.03832271904508 316.1037874165151) rotate(261.4183960165251)"><path class="outline" fill="#A5ABB6" stroke="none" d="M 25 0.5 L 35.42290332748633 0.5 L 35.42290332748633 -0.5 L 25 -0.5 Z M 80.98540332748632 0.5 L 91.40830665497266 0.5 L 91.40830665497266 3.5 L 98.40830665497266 0 L 91.40830665497266 -3.5 L 91.40830665497266 -0.5 L 80.98540332748632 -0.5 Z"/><text text-anchor="middle" pointer-events="none" font-size="8px" fill="#000000" x="58.20415332748633" y="3" transform="rotate(180 58.20415332748633 0)" font-family="sans-serif">ACTED_IN</text></g><g class="relationship" transform="translate(67.75668341459642 294.4524100448215) rotate(304.84011277643526)"><path class="outline" fill="#A5ABB6" stroke="none" d="M 25 0.5 L 34.867308715325485 0.5 L 34.867308715325485 -0.5 L 25 -0.5 Z M 80.42980871532549 0.5 L 90.29711743065097 0.5 L 90.29711743065097 3.5 L 97.29711743065097 0 L 90.29711743065097 -3.5 L 90.29711743065097 -0.5 L 80.42980871532549 -0.5 Z"/><text text-anchor="middle" pointer-events="none" font-size="8px" fill="#000000" x="57.648558715325485" y="3" font-family="sans-serif">ACTED_IN</text></g><g class="relationship" transform="translate(233.68025769582565 272.6943218399764) rotate(219.29847778406725)"><path class="outline" fill="#A5ABB6" stroke="none" d="M 25 0.5 L 35.782319646763746 0.5 L 35.782319646763746 -0.5 L 25 -0.5 Z M 81.34481964676374 0.5 L 92.12713929352749 0.5 L 92.12713929352749 3.5 L 99.12713929352749 0 L 92.12713929352749 -3.5 L 92.12713929352749 -0.5 L 81.34481964676374 -0.5 Z"/><text text-anchor="middle" pointer-events="none" font-size="8px" fill="#000000" x="58.563569646763746" y="3" transform="rotate(180 58.563569646763746 0)" font-family="sans-serif">ACTED_IN</text></g><g class="relationship" transform="translate(256.92457285676414 189.21246061153343) rotate(537.6649812657354)"><path class="outline" fill="#A5ABB6" stroke="none" d="M 25 0.5 L 33.41880782472512 0.5 L 33.41880782472512 -0.5 L 25 -0.5 Z M 78.98130782472512 0.5 L 87.40011564945024 0.5 L 87.40011564945024 3.5 L 94.40011564945024 0 L 87.40011564945024 -3.5 L 87.40011564945024 -0.5 L 78.98130782472512 -0.5 Z"/><text text-anchor="middle" pointer-events="none" font-size="8px" fill="#000000" x="56.20005782472512" y="3" transform="rotate(180 56.20005782472512 0)" font-family="sans-serif">ACTED_IN</text></g><g class="relationship" transform="translate(315.39825752367125 36.27911743704559) rotate(192.77522386134046)"><path class="outline" fill="#A5ABB6" stroke="none" d="M 25 0.5 L 33.762158719269905 0.5 L 33.762158719269905 -0.5 L 25 -0.5 Z M 79.3246587192699 0.5 L 88.08681743853981 0.5 L 88.08681743853981 3.5 L 95.08681743853981 0 L 88.08681743853981 -3.5 L 88.08681743853981 -0.5 L 79.3246587192699 -0.5 Z"/><text text-anchor="middle" pointer-events="none" font-size="8px" fill="#000000" x="56.543408719269905" y="3" transform="rotate(180 56.543408719269905 0)" font-family="sans-serif">ACTED_IN</text></g><g class="relationship" transform="translate(202.512597858611 -110.90636999880245) rotate(452.007536403442)"><path class="outline" fill="#A5ABB6" stroke="none" d="M 25 0.5 L 34.071329752362836 0.5 L 34.071329752362836 -0.5 L 25 -0.5 Z M 79.63382975236283 0.5 L 88.70515950472567 0.5 L 88.70515950472567 3.5 L 95.70515950472567 0 L 88.70515950472567 -3.5 L 88.70515950472567 -0.5 L 79.63382975236283 -0.5 Z"/><text text-anchor="middle" pointer-events="none" font-size="8px" fill="#000000" x="56.852579752362836" y="3" transform="rotate(180 56.852579752362836 0)" font-family="sans-serif">ACTED_IN</text></g><g class="relationship" transform="translate(294.1697041571809 -62.825877286420415) rotate(502.8874846904103)"><path class="outline" fill="#A5ABB6" stroke="none" d="M 25 0.5 L 33.838672543357646 0.5 L 33.838672543357646 -0.5 L 25 -0.5 Z M 79.40117254335765 0.5 L 88.23984508671529 0.5 L 88.23984508671529 3.5 L 95.23984508671529 0 L 88.23984508671529 -3.5 L 88.23984508671529 -0.5 L 79.40117254335765 -0.5 Z"/><text text-anchor="middle" pointer-events="none" font-size="8px" fill="#000000" x="56.619922543357646" y="3" transform="rotate(180 56.619922543357646 0)" font-family="sans-serif">ACTED_IN</text></g><g class="relationship" transform="translate(-68.34176134651202 -69.89988464246646) rotate(440.07507086202224)"><path class="outline" fill="#A5ABB6" stroke="none" d="M 25 0.5 L 47.26929451552445 0.5 L 47.26929451552445 -0.5 L 25 -0.5 Z M 92.83179451552445 0.5 L 115.1010890310489 0.5 L 115.1010890310489 3.5 L 122.1010890310489 0 L 115.1010890310489 -3.5 L 115.1010890310489 -0.5 L 92.83179451552445 -0.5 Z"/><text text-anchor="middle" pointer-events="none" font-size="8px" fill="#000000" x="70.05054451552445" y="3" font-family="sans-serif">ACTED_IN</text></g><g class="relationship" transform="translate(-68.34176134651202 -69.89988464246646) rotate(385.70575015474594)"><path class="outline" fill="#A5ABB6" stroke="none" d="M 25 0.5 L 25.284633466861763 0.5 L 25.284633466861763 -0.5 L 25 -0.5 Z M 55.28463346686176 0.5 L 55.569266933723526 0.5 L 55.569266933723526 3.5 L 62.569266933723526 0 L 55.569266933723526 -3.5 L 55.569266933723526 -0.5 L 55.28463346686176 -0.5 Z"/><text text-anchor="middle" pointer-events="none" font-size="8px" fill="#000000" x="40.28463346686176" y="3" font-family="sans-serif">ACT…</text></g><g class="relationship" transform="translate(-68.34176134651202 -69.89988464246646) rotate(419.0384715393576)"><path class="outline" fill="#A5ABB6" stroke="none" d="M 25 0.5 L 28.263835286617194 0.5 L 28.263835286617194 -0.5 L 25 -0.5 Z M 73.8263352866172 0.5 L 77.09017057323439 0.5 L 77.09017057323439 3.5 L 84.09017057323439 0 L 77.09017057323439 -3.5 L 77.09017057323439 -0.5 L 73.8263352866172 -0.5 Z"/><text text-anchor="middle" pointer-events="none" font-size="8px" fill="#000000" x="51.045085286617194" y="3" font-family="sans-serif">ACTED_IN</text></g><g class="relationship" transform="translate(-122.16531958008706 33.19447750687388) rotate(387.8337830016818)"><path class="outline" fill="#A5ABB6" stroke="none" d="M 25 0.5 L 26.26820188168181 0.5 L 26.26820188168181 -0.5 L 25 -0.5 Z M 56.26820188168181 0.5 L 57.53640376336362 0.5 L 57.53640376336362 3.5 L 64.53640376336362 0 L 57.53640376336362 -3.5 L 57.53640376336362 -0.5 L 56.26820188168181 -0.5 Z"/><text text-anchor="middle" pointer-events="none" font-size="8px" fill="#000000" x="41.26820188168181" y="3" font-family="sans-serif">ACT…</text></g><g class="relationship" transform="translate(-122.16531958008706 33.19447750687388) rotate(333.86894008977686)"><path class="outline" fill="#A5ABB6" stroke="none" d="M 25 0.5 L 47.63723625566634 0.5 L 47.63723625566634 -0.5 L 25 -0.5 Z M 93.19973625566634 0.5 L 115.83697251133268 0.5 L 115.83697251133268 3.5 L 122.83697251133268 0 L 115.83697251133268 -3.5 L 115.83697251133268 -0.5 L 93.19973625566634 -0.5 Z"/><text text-anchor="middle" pointer-events="none" font-size="8px" fill="#000000" x="70.41848625566634" y="3" font-family="sans-serif">ACTED_IN</text></g><g class="relationship" transform="translate(-122.16531958008706 33.19447750687388) rotate(355.0366842213341)"><path class="outline" fill="#A5ABB6" stroke="none" d="M 25 0.5 L 28.898834089513187 0.5 L 28.898834089513187 -0.5 L 25 -0.5 Z M 74.46133408951319 0.5 L 78.36016817902637 0.5 L 78.36016817902637 3.5 L 85.36016817902637 0 L 78.36016817902637 -3.5 L 78.36016817902637 -0.5 L 74.46133408951319 -0.5 Z"/><text text-anchor="middle" pointer-events="none" font-size="8px" fill="#000000" x="51.68008408951319" y="3" font-family="sans-serif">ACTED_IN</text></g><g class="relationship" transform="translate(-108.30376582308881 -25.15610844678516) rotate(416.8898740484081)"><path class="outline" fill="#A5ABB6" stroke="none" d="M 25 0.5 L 33.50457107714652 0.5 L 33.50457107714652 -0.5 L 25 -0.5 Z M 79.06707107714652 0.5 L 87.57164215429304 0.5 L 87.57164215429304 3.5 L 94.57164215429304 0 L 87.57164215429304 -3.5 L 87.57164215429304 -0.5 L 79.06707107714652 -0.5 Z"/><text text-anchor="middle" pointer-events="none" font-size="8px" fill="#000000" x="56.28582107714652" y="3" font-family="sans-serif">ACTED_IN</text></g><g class="relationship" transform="translate(-108.30376582308881 -25.15610844678516) rotate(356.7447080325446)"><path class="outline" fill="#A5ABB6" stroke="none" d="M 25 0.5 L 33.24722692714963 0.5 L 33.24722692714963 -0.5 L 25 -0.5 Z M 78.80972692714963 0.5 L 87.05695385429927 0.5 L 87.05695385429927 3.5 L 94.05695385429927 0 L 87.05695385429927 -3.5 L 87.05695385429927 -0.5 L 78.80972692714963 -0.5 Z"/><text text-anchor="middle" pointer-events="none" font-size="8px" fill="#000000" x="56.02847692714963" y="3" font-family="sans-serif">ACTED_IN</text></g><g class="relationship" transform="translate(-108.30376582308881 -25.15610844678516) rotate(386.92648327137283)"><path class="outline" fill="#A5ABB6" stroke="none" d="M 25 0.5 L 27.602810292773185 0.5 L 27.602810292773185 -0.5 L 25 -0.5 Z M 73.16531029277319 0.5 L 75.76812058554637 0.5 L 75.76812058554637 3.5 L 82.76812058554637 0 L 75.76812058554637 -3.5 L 75.76812058554637 -0.5 L 73.16531029277319 -0.5 Z"/><text text-anchor="middle" pointer-events="none" font-size="8px" fill="#000000" x="50.384060292773185" y="3" font-family="sans-serif">ACTED_IN</text></g><g class="relationship" transform="translate(-80.98481341939782 145.466112662296) rotate(299.4442238035972)"><path class="outline" fill="#A5ABB6" stroke="none" d="M 25 0.5 L 43.663007300264766 0.5 L 43.663007300264766 -0.5 L 25 -0.5 Z M 89.22550730026477 0.5 L 107.88851460052953 0.5 L 107.88851460052953 3.5 L 114.88851460052953 0 L 107.88851460052953 -3.5 L 107.88851460052953 -0.5 L 89.22550730026477 -0.5 Z"/><text text-anchor="middle" pointer-events="none" font-size="8px" fill="#000000" x="66.44425730026477" y="3" font-family="sans-serif">ACTED_IN</text></g></g><g class="layer nodes"><g class="node" transform="translate(85.71717247480368,73.60545740443447)"><circle class="outline" cx="0" cy="0" r="25" fill="#68BDF6" stroke="#5CA8DB" stroke-width="2px"/><text text-anchor="middle" pointer-events="none" font-family="sans-serif" dy="1.5625" font-size="25" fill="#FFFFFF"/><text text-anchor="middle" pointer-events="none" font-family="sans-serif" dy="1.5625" font-size="25" fill="#FFFFFF"/><text text-anchor="middle" pointer-events="none" y="0" font-size="10px" fill="#FFFFFF" font-family="sans-serif"> Hugo</text><text text-anchor="middle" pointer-events="none" y="10" font-size="10px" fill="#FFFFFF" font-family="sans-serif"> Weaving</text></g><g class="node" transform="translate(137.62359748156084,194.07711801234046)"><circle class="outline" cx="0" cy="0" r="25" fill="#6DCE9E" stroke="#60B58B" stroke-width="2px"/><text text-anchor="middle" pointer-events="none" font-family="sans-serif" dy="1.5625" font-size="25" fill="#FFFFFF"/><text text-anchor="middle" pointer-events="none" font-family="sans-serif" dy="1.5625" font-size="25" fill="#FFFFFF"/><text text-anchor="middle" pointer-events="none" y="0" font-size="10px" fill="#FFFFFF" font-family="sans-serif"> V for</text><text text-anchor="middle" pointer-events="none" y="10" font-size="10px" fill="#FFFFFF" font-family="sans-serif"> Vendetta</text></g><g class="node" transform="translate(156.03832271904508,316.1037874165151)"><circle class="outline" cx="0" cy="0" r="25" fill="#68BDF6" stroke="#5CA8DB" stroke-width="2px"/><text text-anchor="middle" pointer-events="none" font-family="sans-serif" dy="1.5625" font-size="25" fill="#FFFFFF"/><text text-anchor="middle" pointer-events="none" y="5" font-size="10px" fill="#FFFFFF" font-family="sans-serif"> Ben Miles</text></g><g class="node" transform="translate(67.75668341459642,294.4524100448215)"><circle class="outline" cx="0" cy="0" r="25" fill="#68BDF6" stroke="#5CA8DB" stroke-width="2px"/><text text-anchor="middle" pointer-events="none" font-family="sans-serif" dy="1.5625" font-size="25" fill="#FFFFFF"/><text text-anchor="middle" pointer-events="none" y="5" font-size="10px" fill="#FFFFFF" font-family="sans-serif"> John Hurt</text></g><g class="node" transform="translate(233.68025769582565,272.6943218399764)"><circle class="outline" cx="0" cy="0" r="25" fill="#68BDF6" stroke="#5CA8DB" stroke-width="2px"/><text text-anchor="middle" pointer-events="none" font-family="sans-serif" dy="1.5625" font-size="25" fill="#FFFFFF"/><text text-anchor="middle" pointer-events="none" font-family="sans-serif" dy="1.5625" font-size="25" fill="#FFFFFF"/><text text-anchor="middle" pointer-events="none" y="0" font-size="10px" fill="#FFFFFF" font-family="sans-serif"> Stephen</text><text text-anchor="middle" pointer-events="none" y="10" font-size="10px" fill="#FFFFFF" font-family="sans-serif"> Rea</text></g><g class="node" transform="translate(256.92457285676414,189.21246061153343)"><circle class="outline" cx="0" cy="0" r="25" fill="#68BDF6" stroke="#5CA8DB" stroke-width="2px"/><text text-anchor="middle" pointer-events="none" font-family="sans-serif" dy="1.5625" font-size="25" fill="#FFFFFF"/><text text-anchor="middle" pointer-events="none" font-family="sans-serif" dy="1.5625" font-size="25" fill="#FFFFFF"/><text text-anchor="middle" pointer-events="none" y="0" font-size="10px" fill="#FFFFFF" font-family="sans-serif"> Natalie</text><text text-anchor="middle" pointer-events="none" y="10" font-size="10px" fill="#FFFFFF" font-family="sans-serif"> Portman</text></g><g class="node" transform="translate(315.39825752367125,36.27911743704559)"><circle class="outline" cx="0" cy="0" r="25" fill="#68BDF6" stroke="#5CA8DB" stroke-width="2px"/><text text-anchor="middle" pointer-events="none" font-family="sans-serif" dy="1.5625" font-size="25" fill="#FFFFFF"/><text text-anchor="middle" pointer-events="none" font-family="sans-serif" dy="1.5625" font-size="25" fill="#FFFFFF"/><text text-anchor="middle" pointer-events="none" y="0" font-size="10px" fill="#FFFFFF" font-family="sans-serif"> Jim</text><text text-anchor="middle" pointer-events="none" y="10" font-size="10px" fill="#FFFFFF" font-family="sans-serif"> Broadb…</text></g><g class="node" transform="translate(198.2841812911513,9.724704042645493)"><circle class="outline" cx="0" cy="0" r="25" fill="#6DCE9E" stroke="#60B58B" stroke-width="2px"/><text text-anchor="middle" pointer-events="none" font-family="sans-serif" dy="1.5625" font-size="25" fill="#FFFFFF"/><text text-anchor="middle" pointer-events="none" font-family="sans-serif" dy="1.5625" font-size="25" fill="#FFFFFF"/><text text-anchor="middle" pointer-events="none" y="0" font-size="10px" fill="#FFFFFF" font-family="sans-serif"> Cloud</text><text text-anchor="middle" pointer-events="none" y="10" font-size="10px" fill="#FFFFFF" font-family="sans-serif"> Atlas</text></g><g class="node" transform="translate(202.512597858611,-110.90636999880245)"><circle class="outline" cx="0" cy="0" r="25" fill="#68BDF6" stroke="#5CA8DB" stroke-width="2px"/><text text-anchor="middle" pointer-events="none" font-family="sans-serif" dy="1.5625" font-size="25" fill="#FFFFFF"/><text text-anchor="middle" pointer-events="none" font-family="sans-serif" dy="1.5625" font-size="25" fill="#FFFFFF"/><text text-anchor="middle" pointer-events="none" y="0" font-size="10px" fill="#FFFFFF" font-family="sans-serif"> Halle</text><text text-anchor="middle" pointer-events="none" y="10" font-size="10px" fill="#FFFFFF" font-family="sans-serif"> Berry</text></g><g class="node" transform="translate(294.1697041571809,-62.825877286420415)"><circle class="outline" cx="0" cy="0" r="25" fill="#68BDF6" stroke="#5CA8DB" stroke-width="2px"/><text text-anchor="middle" pointer-events="none" font-family="sans-serif" dy="1.5625" font-size="25" fill="#FFFFFF"/><text text-anchor="middle" pointer-events="none" font-family="sans-serif" dy="1.5625" font-size="25" fill="#FFFFFF"/><text text-anchor="middle" pointer-events="none" y="0" font-size="10px" fill="#FFFFFF" font-family="sans-serif"> Tom</text><text text-anchor="middle" pointer-events="none" y="10" font-size="10px" fill="#FFFFFF" font-family="sans-serif"> Hanks</text></g><g class="node" transform="translate(-42.987755875986025,74.99975235059544)"><circle class="outline" cx="0" cy="0" r="25" fill="#6DCE9E" stroke="#60B58B" stroke-width="2px"/><text text-anchor="middle" pointer-events="none" font-family="sans-serif" dy="1.5625" font-size="25" fill="#FFFFFF"/><text text-anchor="middle" pointer-events="none" font-family="sans-serif" dy="1.5625" font-size="25" fill="#FFFFFF"/><text text-anchor="middle" pointer-events="none" font-family="sans-serif" dy="1.5625" font-size="25" fill="#FFFFFF"/><text text-anchor="middle" pointer-events="none" y="-5" font-size="10px" fill="#FFFFFF" font-family="sans-serif"> The</text><text text-anchor="middle" pointer-events="none" y="5" font-size="10px" fill="#FFFFFF" font-family="sans-serif"> Matrix</text><text text-anchor="middle" pointer-events="none" y="15" font-size="10px" fill="#FFFFFF" font-family="sans-serif"> Revol…</text></g><g class="node" transform="translate(-68.34176134651202,-69.89988464246646)"><circle class="outline" cx="0" cy="0" r="25" fill="#68BDF6" stroke="#5CA8DB" stroke-width="2px"/><text text-anchor="middle" pointer-events="none" font-family="sans-serif" dy="1.5625" font-size="25" fill="#FFFFFF"/><text text-anchor="middle" pointer-events="none" y="5" font-size="10px" fill="#FFFFFF" font-family="sans-serif"> Carrie-A…</text></g><g class="node" transform="translate(-122.16531958008706,33.19447750687388)"><circle class="outline" cx="0" cy="0" r="25" fill="#68BDF6" stroke="#5CA8DB" stroke-width="2px"/><text text-anchor="middle" pointer-events="none" font-family="sans-serif" dy="1.5625" font-size="25" fill="#FFFFFF"/><text text-anchor="middle" pointer-events="none" font-family="sans-serif" dy="1.5625" font-size="25" fill="#FFFFFF"/><text text-anchor="middle" pointer-events="none" y="0" font-size="10px" fill="#FFFFFF" font-family="sans-serif"> Laurence</text><text text-anchor="middle" pointer-events="none" y="10" font-size="10px" fill="#FFFFFF" font-family="sans-serif"> Fishbur…</text></g><g class="node" transform="translate(-108.30376582308881,-25.15610844678516)"><circle class="outline" cx="0" cy="0" r="25" fill="#68BDF6" stroke="#5CA8DB" stroke-width="2px"/><text text-anchor="middle" pointer-events="none" font-family="sans-serif" dy="1.5625" font-size="25" fill="#FFFFFF"/><text text-anchor="middle" pointer-events="none" font-family="sans-serif" dy="1.5625" font-size="25" fill="#FFFFFF"/><text text-anchor="middle" pointer-events="none" y="0" font-size="10px" fill="#FFFFFF" font-family="sans-serif"> Keanu</text><text text-anchor="middle" pointer-events="none" y="10" font-size="10px" fill="#FFFFFF" font-family="sans-serif"> Reeves</text></g><g class="node" transform="translate(10.561081305163903,-31.91675769385154)"><circle class="outline" cx="0" cy="0" r="25" fill="#6DCE9E" stroke="#60B58B" stroke-width="2px"/><text text-anchor="middle" pointer-events="none" font-family="sans-serif" dy="1.5625" font-size="25" fill="#FFFFFF"/><text text-anchor="middle" pointer-events="none" font-family="sans-serif" dy="1.5625" font-size="25" fill="#FFFFFF"/><text text-anchor="middle" pointer-events="none" font-family="sans-serif" dy="1.5625" font-size="25" fill="#FFFFFF"/><text text-anchor="middle" pointer-events="none" y="-5" font-size="10px" fill="#FFFFFF" font-family="sans-serif"> The</text><text text-anchor="middle" pointer-events="none" y="5" font-size="10px" fill="#FFFFFF" font-family="sans-serif"> Matrix</text><text text-anchor="middle" pointer-events="none" y="15" font-size="10px" fill="#FFFFFF" font-family="sans-serif"> Reloa…</text></g><g class="node" transform="translate(-80.98481341939782,145.466112662296)"><circle class="outline" cx="0" cy="0" r="25" fill="#68BDF6" stroke="#5CA8DB" stroke-width="2px"/><text text-anchor="middle" pointer-events="none" font-family="sans-serif" dy="1.5625" font-size="25" fill="#FFFFFF"/><text text-anchor="middle" pointer-events="none" font-family="sans-serif" dy="1.5625" font-size="25" fill="#FFFFFF"/><text text-anchor="middle" pointer-events="none" y="0" font-size="10px" fill="#FFFFFF" font-family="sans-serif"> Emil</text><text text-anchor="middle" pointer-events="none" y="10" font-size="10px" fill="#FFFFFF" font-family="sans-serif"> Eifrem</text></g><g class="node" transform="translate(-12.218969334675258,23.646347416839298)"><circle class="outline" cx="0" cy="0" r="25" fill="#6DCE9E" stroke="#60B58B" stroke-width="2px"/><text text-anchor="middle" pointer-events="none" font-family="sans-serif" dy="1.5625" font-size="25" fill="#FFFFFF"/><text text-anchor="middle" pointer-events="none" font-family="sans-serif" dy="1.5625" font-size="25" fill="#FFFFFF"/><text text-anchor="middle" pointer-events="none" y="0" font-size="10px" fill="#FFFFFF" font-family="sans-serif"> The</text><text text-anchor="middle" pointer-events="none" y="10" font-size="10px" fill="#FFFFFF" font-family="sans-serif"> Matrix</text></g></g></svg>