<svg xmlns="http://www.w3.org/2000/svg" width="378.0843505859375" height="395.0494079589844" viewBox="-88.99870300292969 -97.51663970947266 378.0843505859375 395.0494079589844"><title>Neo4j Graph Visualization</title><desc>Created using Neo4j (http://www.neo4j.com/)</desc><g class="layer relationships"><g class="relationship" transform="translate(147.6864641091978 268.5327809281367) rotate(318.28896792010556)"><path class="outline" fill="#A5ABB6" stroke="none" d="M 21.40063509461097,12.933012701892217 L 21.90063509461097,12.06698729810778 A 57.938892778556394 57.938892778556394 0 0 0 38.24377347639155,18.43680147578341 L 38.025848911354466,19.412767091957157 A 58.938892778556394 58.938892778556394 0 0 1 21.40063509461097,12.933012701892217 Z M 60.084048703034654,20.104658406050056 L 59.92771785281383,19.11695366005091 A 57.938892778556394 57.938892778556394 0 0 0 76.6379353504388,13.783911750763579 L 75.30370961894089,11.096935439478187 L 83.12991769868769,11.118547762482663 L 78.41690299243602,17.366546832477432 L 77.08267726093811,14.67957052119204 A 58.938892778556394 58.938892778556394 0 0 1 60.084048703034654,20.104658406050056"/><text text-anchor="middle" pointer-events="none" font-size="8px" fill="#000000" x="49.03795162400555" y="23.30060026087441" font-family="sans-serif">road</text></g><g class="relationship" transform="translate(226.45924322744168 198.32158256331996) rotate(288.6857229167832)"><path class="outline" fill="#A5ABB6" stroke="none" d="M 25 0.5 L 39.31146434477365 0.5 L 39.31146434477365 -0.5 L 25 -0.5 Z M 58.64740184477365 0.5 L 72.9588661895473 0.5 L 72.9588661895473 3.5 L 79.9588661895473 0 L 72.9588661895473 -3.5 L 72.9588661895473 -0.5 L 58.64740184477365 -0.5 Z"/><text text-anchor="middle" pointer-events="none" font-size="8px" fill="#000000" x="48.97943309477365" y="3" font-family="sans-serif">trek</text></g><g class="relationship" transform="translate(260.08564494439395 98.89508358359403) rotate(259.2024811347594)"><path class="outline" fill="#A5ABB6" stroke="none" d="M 25 0.5 L 39.58065809251043 0.5 L 39.58065809251043 -0.5 L 25 -0.5 Z M 58.91659559251043 0.5 L 73.49725368502087 0.5 L 73.49725368502087 3.5 L 80.49725368502087 0 L 73.49725368502087 -3.5 L 73.49725368502087 -0.5 L 58.91659559251043 -0.5 Z"/><text text-anchor="middle" pointer-events="none" font-size="8px" fill="#000000" x="49.24862684251043" y="3" transform="rotate(180 49.24862684251043 0)" font-family="sans-serif">trek</text></g><g class="relationship" transform="translate(147.6864641091978 268.5327809281367) rotate(318.28896792010556)"><path class="outline" fill="#A5ABB6" stroke="none" d="M 25 0.5 L 25.514599729699633 0.5 L 25.514599729699633 -0.5 L 25 -0.5 Z M 73.00678722969963 0.5 L 73.52138695939927 0.5 L 73.52138695939927 3.5 L 80.52138695939927 0 L 73.52138695939927 -3.5 L 73.52138695939927 -0.5 L 73.00678722969963 -0.5 Z"/><text text-anchor="middle" pointer-events="none" font-size="8px" fill="#000000" x="49.26069347969963" y="3" font-family="sans-serif">PublicTra…</text></g><g class="relationship" transform="translate(147.6864641091978 268.5327809281367) rotate(318.28896792010556)"><path class="outline" fill="#A5ABB6" stroke="none" d="M 21.40063509461097,-12.933012701892217 L 21.90063509461097,-12.06698729810778 A 57.938892778556394 57.938892778556394 0 0 1 39.54153259690672,-18.711022776234486 L 39.34600678783956,-19.691721332361 A 58.938892778556394 58.938892778556394 0 0 0 21.40063509461097,-12.933012701892217 Z M 58.74900348169234,-20.300327882606936 L 58.61532397693127,-19.309303266360274 A 57.938892778556394 57.938892778556394 0 0 1 76.6379353504388,-13.783911750763579 L 75.30370961894089,-11.096935439478187 L 83.12991769868769,-11.118547762482663 L 78.41690299243602,-17.366546832477432 L 77.08267726093811,-14.67957052119204 A 58.938892778556394 58.938892778556394 0 0 0 58.74900348169234,-20.300327882606936"/><text text-anchor="middle" pointer-events="none" font-size="8px" fill="#000000" x="49.037951624005544" y="-17.30060026087441" font-family="sans-serif">trek</text></g><g class="relationship" transform="translate(52.309934082415666 -68.51664099054562) rotate(498.3361136454546)"><path class="outline" fill="#A5ABB6" stroke="none" d="M 21.40063509461097,12.933012701892217 L 21.90063509461097,12.06698729810778 A 57.94081061472443 57.94081061472443 0 0 0 39.54245456847899,18.711310095891605 L 39.34693459364082,19.692009815193735 A 58.94081061472443 58.94081061472443 0 0 1 21.40063509461097,12.933012701892217 Z M 58.7499320218478,20.300606290112135 L 58.616257382193176,19.309581017622477 A 57.94081061472443 57.94081061472443 0 0 0 76.63980117562924,13.7839417862041 L 75.30557264998755,11.09696686236056 L 83.13178075220445,11.118571047014079 L 78.41877254315149,17.366575017995487 L 77.0845440175098,14.679600094151947 A 58.94081061472443 58.94081061472443 0 0 1 58.7499320218478,20.300606290112135"/><text text-anchor="middle" pointer-events="none" font-size="8px" fill="#000000" x="49.03888078651405" y="23.300857212074945" transform="rotate(180 49.03888078651405 20.300857212074945)" font-family="sans-serif">trek</text></g><g class="relationship" transform="translate(-26.521974685579718 1.6309463746666037) rotate(468.5995239888783)"><path class="outline" fill="#A5ABB6" stroke="none" d="M 25 0.5 L 39.31137932909851 0.5 L 39.31137932909851 -0.5 L 25 -0.5 Z M 58.64731682909851 0.5 L 72.95869615819701 0.5 L 72.95869615819701 3.5 L 79.95869615819701 0 L 72.95869615819701 -3.5 L 72.95869615819701 -0.5 L 58.64731682909851 -0.5 Z"/><text text-anchor="middle" pointer-events="none" font-size="8px" fill="#000000" x="48.97934807909851" y="3" transform="rotate(180 48.97934807909851 0)" font-family="sans-serif">trek</text></g><g class="relationship" transform="translate(-59.99870146864778 101.1077610759855) rotate(439.2541352725974)"><path class="outline" fill="#A5ABB6" stroke="none" d="M 25 0.5 L 39.57960711996501 0.5 L 39.57960711996501 -0.5 L 25 -0.5 Z M 58.91554461996501 0.5 L 73.49515173993002 0.5 L 73.49515173993002 3.5 L 80.49515173993002 0 L 73.49515173993002 -3.5 L 73.49515173993002 -0.5 L 58.91554461996501 -0.5 Z"/><text text-anchor="middle" pointer-events="none" font-size="8px" fill="#000000" x="49.24757586996501" y="3" font-family="sans-serif">trek</text></g><g class="relationship" transform="translate(52.309934082415666 -68.51664099054562) rotate(498.3361136454546)"><path class="outline" fill="#A5ABB6" stroke="none" d="M 25 0.5 L 38.2557598504503 0.5 L 38.2557598504503 -0.5 L 25 -0.5 Z M 60.2674786004503 0.5 L 73.5232384509006 0.5 L 73.5232384509006 3.5 L 80.5232384509006 0 L 73.5232384509006 -3.5 L 73.5232384509006 -0.5 L 60.2674786004503 -0.5 Z"/><text text-anchor="middle" pointer-events="none" font-size="8px" fill="#000000" x="49.2616192254503" y="3" transform="rotate(180 49.2616192254503 0)" font-family="sans-serif">road</text></g><g class="relationship" transform="translate(52.309934082415666 -68.51664099054562) rotate(498.3361136454546)"><path class="outline" fill="#A5ABB6" stroke="none" d="M 21.40063509461097,-12.933012701892217 L 21.90063509461097,-12.06698729810778 A 57.94081061472443 57.94081061472443 0 0 1 22.587083070106132,-12.457096402827922 L 22.098930470379138,-13.329854696618241 A 58.94081061472443 58.94081061472443 0 0 0 21.40063509461097,-12.933012701892217 Z M 76.3627509948357,-15.031899445579548 L 75.93025421837476,-14.130263965825726 A 57.94081061472443 57.94081061472443 0 0 1 76.63980117562924,-13.7839417862041 L 75.30557264998755,-11.09696686236056 L 83.13178075220445,-11.118571047014079 L 78.41877254315149,-17.366575017995487 L 77.0845440175098,-14.679600094151947 A 58.94081061472443 58.94081061472443 0 0 0 76.3627509948357,-15.031899445579548"/><text text-anchor="middle" pointer-events="none" font-size="8px" fill="#000000" x="49.038880786514035" y="-17.300857212074945" transform="rotate(180 49.038880786514035 -20.300857212074945)" font-family="sans-serif">PublicTrans…</text></g></g><g class="layer nodes"><g class="node" transform="translate(147.6864641091978,268.5327809281367)"><circle class="outline" cx="0" cy="0" r="25" fill="#68BDF6" stroke="#5CA8DB" stroke-width="2px"/><text text-anchor="middle" pointer-events="none" font-family="sans-serif" dy="1.5625" font-size="25" fill="#FFFFFF"/><text text-anchor="middle" pointer-events="none" y="5" font-size="10px" fill="#FFFFFF" font-family="sans-serif"> Darjeeling</text></g><g class="node" transform="translate(226.45924322744168,198.32158256331996)"><circle class="outline" cx="0" cy="0" r="25" fill="#68BDF6" stroke="#5CA8DB" stroke-width="2px"/><text text-anchor="middle" pointer-events="none" font-family="sans-serif" dy="1.5625" font-size="25" fill="#FFFFFF"/><text text-anchor="middle" pointer-events="none" y="5" font-size="10px" fill="#FFFFFF" font-family="sans-serif"> Rimbik</text></g><g class="node" transform="translate(260.08564494439395,98.89508358359403)"><circle class="outline" cx="0" cy="0" r="25" fill="#6DCE9E" stroke="#60B58B" stroke-width="2px"/><text text-anchor="middle" pointer-events="none" font-family="sans-serif" dy="1.5625" font-size="25" fill="#FFFFFF"/><text text-anchor="middle" pointer-events="none" y="5" font-size="10px" fill="#FFFFFF" font-family="sans-serif"> BhikeBh…</text></g><g class="node" transform="translate(240.32191841242195,-4.734379643092006)"><circle class="outline" cx="0" cy="0" r="25" fill="#FF756E" stroke="#E06760" stroke-width="2px"/><text text-anchor="middle" pointer-events="none" font-family="sans-serif" dy="1.5625" font-size="25" fill="#FFFFFF"/><text text-anchor="middle" pointer-events="none" y="5" font-size="10px" fill="#FFFFFF" font-family="sans-serif"> Sandak…</text></g><g class="node" transform="translate(52.309934082415666,-68.51664099054562)"><circle class="outline" cx="0" cy="0" r="25" fill="#68BDF6" stroke="#5CA8DB" stroke-width="2px"/><text text-anchor="middle" pointer-events="none" font-family="sans-serif" dy="1.5625" font-size="25" fill="#FFFFFF"/><text text-anchor="middle" pointer-events="none" y="5" font-size="10px" fill="#FFFFFF" font-family="sans-serif"> Darjeeling</text></g><g class="node" transform="translate(-26.521974685579718,1.6309463746666037)"><circle class="outline" cx="0" cy="0" r="25" fill="#68BDF6" stroke="#5CA8DB" stroke-width="2px"/><text text-anchor="middle" pointer-events="none" font-family="sans-serif" dy="1.5625" font-size="25" fill="#FFFFFF"/><text text-anchor="middle" pointer-events="none" y="5" font-size="10px" fill="#FFFFFF" font-family="sans-serif"> Rimbik</text></g><g class="node" transform="translate(-59.99870146864778,101.1077610759855)"><circle class="outline" cx="0" cy="0" r="25" fill="#6DCE9E" stroke="#60B58B" stroke-width="2px"/><text text-anchor="middle" pointer-events="none" font-family="sans-serif" dy="1.5625" font-size="25" fill="#FFFFFF"/><text text-anchor="middle" pointer-events="none" y="5" font-size="10px" fill="#FFFFFF" font-family="sans-serif"> BhikeBh…</text></g><g class="node" transform="translate(-40.32880043496701,204.75293478878345)"><circle class="outline" cx="0" cy="0" r="25" fill="#FF756E" stroke="#E06760" stroke-width="2px"/><text text-anchor="middle" pointer-events="none" font-family="sans-serif" dy="1.5625" font-size="25" fill="#FFFFFF"/><text text-anchor="middle" pointer-events="none" y="5" font-size="10px" fill="#FFFFFF" font-family="sans-serif"> Sandak…</text></g></g></svg>