<svg xmlns="http://www.w3.org/2000/svg" width="251.06765747070312" height="255.50436401367188" viewBox="-28.89913558959961 -20.742431640625 251.06765747070312 255.50436401367188"><title>Neo4j Graph Visualization</title><desc>Created using Neo4j (http://www.neo4j.com/)</desc><g class="layer relationships"><g class="relationship" transform="translate(148.36308876993047 205.7619175485138) rotate(234.76753142131344)"><path class="outline" fill="#A5ABB6" stroke="none" d="M 25 0.5 L 26.564563323551567 0.5 L 26.564563323551567 -0.5 L 25 -0.5 Z M 78.34581332355157 0.5 L 79.91037664710313 0.5 L 79.91037664710313 3.5 L 86.91037664710313 0 L 79.91037664710313 -3.5 L 79.91037664710313 -0.5 L 78.34581332355157 -0.5 Z"/><text text-anchor="middle" pointer-events="none" font-size="8px" fill="#000000" x="52.45518832355157" y="3" transform="rotate(180 52.45518832355157 0)" font-family="sans-serif">PRODUCED</text></g><g class="relationship" transform="translate(193.16851082417801 91.16445641782327) rotate(528.0297874302134)"><path class="outline" fill="#A5ABB6" stroke="none" d="M 25 0.5 L 29.617226506895996 0.5 L 29.617226506895996 -0.5 L 25 -0.5 Z M 75.179726506896 0.5 L 79.79695301379199 0.5 L 79.79695301379199 3.5 L 86.79695301379199 0 L 79.79695301379199 -3.5 L 79.79695301379199 -0.5 L 75.179726506896 -0.5 Z"/><text text-anchor="middle" pointer-events="none" font-size="8px" fill="#000000" x="52.398476506895996" y="3" transform="rotate(180 52.398476506895996 0)" font-family="sans-serif">ACTED_IN</text></g><g class="relationship" transform="translate(119.01250525287237 8.257567634254043) rotate(468.3597459488129)"><path class="outline" fill="#A5ABB6" stroke="none" d="M 25 0.5 L 29.61075406065129 0.5 L 29.61075406065129 -0.5 L 25 -0.5 Z M 75.17325406065129 0.5 L 79.78400812130258 0.5 L 79.78400812130258 3.5 L 86.78400812130258 0 L 79.78400812130258 -3.5 L 79.78400812130258 -0.5 L 75.17325406065129 -0.5 Z"/><text text-anchor="middle" pointer-events="none" font-size="8px" fill="#000000" x="52.39200406065129" y="3" transform="rotate(180 52.39200406065129 0)" font-family="sans-serif">ACTED_IN</text></g><g class="relationship" transform="translate(0.10086368391920927 40.10816674833723) rotate(401.57300998025255)"><path class="outline" fill="#A5ABB6" stroke="none" d="M 25 0.5 L 28.996708940486677 0.5 L 28.996708940486677 -0.5 L 25 -0.5 Z M 75.88733394048668 0.5 L 79.88404288097335 0.5 L 79.88404288097335 3.5 L 86.88404288097335 0 L 79.88404288097335 -3.5 L 79.88404288097335 -0.5 L 75.88733394048668 -0.5 Z"/><text text-anchor="middle" pointer-events="none" font-size="8px" fill="#000000" x="52.44202144048668" y="3" font-family="sans-serif">DIRECTED</text></g><g class="relationship" transform="translate(2.2571976570353853 187.44539248554972) rotate(318.12824727135194)"><path class="outline" fill="#A5ABB6" stroke="none" d="M 25 0.5 L 28.47356133121619 0.5 L 28.47356133121619 -0.5 L 25 -0.5 Z M 74.03606133121619 0.5 L 77.50962266243238 0.5 L 77.50962266243238 3.5 L 84.50962266243238 0 L 77.50962266243238 -3.5 L 77.50962266243238 -0.5 L 74.03606133121619 -0.5 Z"/><text text-anchor="middle" pointer-events="none" font-size="8px" fill="#000000" x="51.25481133121619" y="3" font-family="sans-serif">ACTED_IN</text></g></g><g class="layer nodes"><g class="node" transform="translate(148.36308876993047,205.7619175485138)"><circle class="outline" cx="0" cy="0" r="25" fill="#68BDF6" stroke="#5CA8DB" stroke-width="2px"/><text text-anchor="middle" pointer-events="none" font-family="sans-serif" dy="1.5625" font-size="25" fill="#FFFFFF"/><text text-anchor="middle" pointer-events="none" font-family="sans-serif" dy="1.5625" font-size="25" fill="#FFFFFF"/><text text-anchor="middle" pointer-events="none" y="0" font-size="10px" fill="#FFFFFF" font-family="sans-serif"> Victoria</text><text text-anchor="middle" pointer-events="none" y="10" font-size="10px" fill="#FFFFFF" font-family="sans-serif"> Alonso</text></g><g class="node" transform="translate(83.80252000489975,114.3514949369088)"><circle class="outline" cx="0" cy="0" r="25" fill="#6DCE9E" stroke="#60B58B" stroke-width="2px"/><text text-anchor="middle" pointer-events="none" font-family="sans-serif" dy="1.5625" font-size="25" fill="#FFFFFF"/><text text-anchor="middle" pointer-events="none" font-family="sans-serif" dy="1.5625" font-size="25" fill="#FFFFFF"/><text text-anchor="middle" pointer-events="none" font-family="sans-serif" dy="1.5625" font-size="25" fill="#FFFFFF"/><text text-anchor="middle" pointer-events="none" y="-5" font-size="10px" fill="#FFFFFF" font-family="sans-serif"> Captain</text><text text-anchor="middle" pointer-events="none" y="5" font-size="10px" fill="#FFFFFF" font-family="sans-serif"> America:</text><text text-anchor="middle" pointer-events="none" y="15" font-size="10px" fill="#FFFFFF" font-family="sans-serif"> The Fi…</text></g><g class="node" transform="translate(193.16851082417801,91.16445641782327)"><circle class="outline" cx="0" cy="0" r="25" fill="#68BDF6" stroke="#5CA8DB" stroke-width="2px"/><text text-anchor="middle" pointer-events="none" font-family="sans-serif" dy="1.5625" font-size="25" fill="#FFFFFF"/><text text-anchor="middle" pointer-events="none" font-family="sans-serif" dy="1.5625" font-size="25" fill="#FFFFFF"/><text text-anchor="middle" pointer-events="none" y="0" font-size="10px" fill="#FFFFFF" font-family="sans-serif"> Hayley</text><text text-anchor="middle" pointer-events="none" y="10" font-size="10px" fill="#FFFFFF" font-family="sans-serif"> Atwell</text></g><g class="node" transform="translate(119.01250525287237,8.257567634254043)"><circle class="outline" cx="0" cy="0" r="25" fill="#68BDF6" stroke="#5CA8DB" stroke-width="2px"/><text text-anchor="middle" pointer-events="none" font-family="sans-serif" dy="1.5625" font-size="25" fill="#FFFFFF"/><text text-anchor="middle" pointer-events="none" font-family="sans-serif" dy="1.5625" font-size="25" fill="#FFFFFF"/><text text-anchor="middle" pointer-events="none" y="0" font-size="10px" fill="#FFFFFF" font-family="sans-serif"> Chris</text><text text-anchor="middle" pointer-events="none" y="10" font-size="10px" fill="#FFFFFF" font-family="sans-serif"> Evans</text></g><g class="node" transform="translate(0.10086368391920927,40.10816674833723)"><circle class="outline" cx="0" cy="0" r="25" fill="#68BDF6" stroke="#5CA8DB" stroke-width="2px"/><text text-anchor="middle" pointer-events="none" font-family="sans-serif" dy="1.5625" font-size="25" fill="#FFFFFF"/><text text-anchor="middle" pointer-events="none" font-family="sans-serif" dy="1.5625" font-size="25" fill="#FFFFFF"/><text text-anchor="middle" pointer-events="none" y="0" font-size="10px" fill="#FFFFFF" font-family="sans-serif"> Joe</text><text text-anchor="middle" pointer-events="none" y="10" font-size="10px" fill="#FFFFFF" font-family="sans-serif"> Johnston</text></g><g class="node" transform="translate(2.2571976570353853,187.44539248554972)"><circle class="outline" cx="0" cy="0" r="25" fill="#68BDF6" stroke="#5CA8DB" stroke-width="2px"/><text text-anchor="middle" pointer-events="none" font-family="sans-serif" dy="1.5625" font-size="25" fill="#FFFFFF"/><text text-anchor="middle" pointer-events="none" y="5" font-size="10px" fill="#FFFFFF" font-family="sans-serif"> Sebastian</text></g></g></svg>