<svg xmlns="http://www.w3.org/2000/svg" width="353.07952880859375" height="367.9827880859375" viewBox="-75.39735412597656 -60.21319580078125 353.07952880859375 367.9827880859375"><title>Neo4j Graph Visualization</title><desc>Created using Neo4j (http://www.neo4j.com/)</desc><g class="layer relationships"><g class="relationship" transform="translate(46.877545225252945 57.81440295068414) rotate(434.8084176553624)"><path class="outline" fill="#A5ABB6" stroke="none" d="M 25 0.5 L 26.71490497998618 0.5 L 26.71490497998618 -0.5 L 25 -0.5 Z M 72.27740497998619 0.5 L 73.99230995997236 0.5 L 73.99230995997236 3.5 L 80.99230995997236 0 L 73.99230995997236 -3.5 L 73.99230995997236 -0.5 L 72.27740497998619 -0.5 Z"/><text text-anchor="middle" pointer-events="none" font-size="8px" fill="#000000" x="49.49615497998618" y="3" font-family="sans-serif">ACTED_IN</text></g><g class="relationship" transform="translate(46.877545225252945 57.81440295068414) rotate(396.44319280889505)"><path class="outline" fill="#A5ABB6" stroke="none" d="M 25 0.5 L 26.60193887653817 0.5 L 26.60193887653817 -0.5 L 25 -0.5 Z M 72.16443887653817 0.5 L 73.76637775307634 0.5 L 73.76637775307634 3.5 L 80.76637775307634 0 L 73.76637775307634 -3.5 L 73.76637775307634 -0.5 L 72.16443887653817 -0.5 Z"/><text text-anchor="middle" pointer-events="none" font-size="8px" fill="#000000" x="49.38318887653817" y="3" font-family="sans-serif">ACTED_IN</text></g><g class="relationship" transform="translate(46.877545225252945 57.81440295068414) rotate(241.11678762573962)"><path class="outline" fill="#A5ABB6" stroke="none" d="M 25 0.5 L 26.781057509826702 0.5 L 26.781057509826702 -0.5 L 25 -0.5 Z M 67.8943387598267 0.5 L 69.6753962696534 0.5 L 69.6753962696534 3.5 L 76.6753962696534 0 L 69.6753962696534 -3.5 L 69.6753962696534 -0.5 L 67.8943387598267 -0.5 Z"/><text text-anchor="middle" pointer-events="none" font-size="8px" fill="#000000" x="47.3376981348267" y="3" transform="rotate(180 47.3376981348267 0)" font-family="sans-serif">ACTED…</text></g><g class="relationship" transform="translate(46.877545225252945 57.81440295068414) rotate(362.04337799285554)"><path class="outline" fill="#A5ABB6" stroke="none" d="M 25 0.5 L 25.983668811822653 0.5 L 25.983668811822653 -0.5 L 25 -0.5 Z M 71.54616881182265 0.5 L 72.5298376236453 0.5 L 72.5298376236453 3.5 L 79.5298376236453 0 L 72.5298376236453 -3.5 L 72.5298376236453 -0.5 L 71.54616881182265 -0.5 Z"/><text text-anchor="middle" pointer-events="none" font-size="8px" fill="#000000" x="48.76491881182265" y="3" font-family="sans-serif">ACTED_IN</text></g><g class="relationship" transform="translate(46.877545225252945 57.81440295068414) rotate(202.71849021693208)"><path class="outline" fill="#A5ABB6" stroke="none" d="M 25 0.5 L 26.503603673526598 0.5 L 26.503603673526598 -0.5 L 25 -0.5 Z M 67.6168849235266 0.5 L 69.1204885970532 0.5 L 69.1204885970532 3.5 L 76.1204885970532 0 L 69.1204885970532 -3.5 L 69.1204885970532 -0.5 L 67.6168849235266 -0.5 Z"/><text text-anchor="middle" pointer-events="none" font-size="8px" fill="#000000" x="47.0602442985266" y="3" transform="rotate(180 47.0602442985266 0)" font-family="sans-serif">ACTED…</text></g><g class="relationship" transform="translate(80.80248573790357 278.76960547086446) rotate(267.0332884333037)"><path class="outline" fill="#A5ABB6" stroke="none" d="M 25 0.5 L 32.46771115225447 0.5 L 32.46771115225447 -0.5 L 25 -0.5 Z M 79.35833615225448 0.5 L 86.82604730450895 0.5 L 86.82604730450895 3.5 L 93.82604730450895 0 L 86.82604730450895 -3.5 L 86.82604730450895 -0.5 L 79.35833615225448 -0.5 Z"/><text text-anchor="middle" pointer-events="none" font-size="8px" fill="#000000" x="55.91302365225447" y="3" transform="rotate(180 55.91302365225447 0)" font-family="sans-serif">DIRECTED</text></g><g class="relationship" transform="translate(7.643405760281181 103.20466682372303) rotate(400.3349228349451)"><path class="outline" fill="#A5ABB6" stroke="none" d="M 24.018736134675446,6.953439040707552 L 24.277555179777966,5.987513214418485 A 67.25337376997645 67.25337376997645 0 0 0 26.954246827580796,6.646245364991984 L 26.735227892089995,7.621965973514975 A 68.25337376997645 68.25337376997645 0 0 1 24.018736134675446,6.953439040707552 Z M 54.07378332539368,8.145162480259714 L 53.892257146068054,7.161776367779254 A 67.25337376997645 67.25337376997645 0 0 0 56.59219280928187,6.605940386465872 L 55.927177086735725,3.6805764623076445 L 63.52887791940876,5.541797687884564 L 57.4788804393434,10.506425618676841 L 56.813864716797255,7.581061694518614 A 68.25337376997645 68.25337376997645 0 0 1 54.07378332539368,8.145162480259714"/><text text-anchor="middle" pointer-events="none" font-size="8px" fill="#000000" x="40.38760420223142" y="11.766712399379173" font-family="sans-serif">WR…</text></g><g class="relationship" transform="translate(7.643405760281181 103.20466682372303) rotate(400.3349228349451)"><path class="outline" fill="#A5ABB6" stroke="none" d="M 24.018736134675446,-6.953439040707552 L 24.277555179777966,-5.987513214418485 A 67.25337376997645 67.25337376997645 0 0 1 25.02014843505094,-6.181955099329926 L 24.772371114900583,-7.150772109718943 A 68.25337376997645 68.25337376997645 0 0 0 24.018736134675446,-6.953439040707552 Z M 56.05323134453647,-7.749415181407315 L 55.84270369744731,-6.771827277528033 A 67.25337376997645 67.25337376997645 0 0 1 56.59219280928187,-6.605940386465872 L 55.927177086735725,-3.6805764623076445 L 63.52887791940876,-5.541797687884564 L 57.4788804393434,-10.506425618676841 L 56.813864716797255,-7.581061694518614 A 68.25337376997645 68.25337376997645 0 0 0 56.05323134453647,-7.749415181407315"/><text text-anchor="middle" pointer-events="none" font-size="8px" fill="#000000" x="40.38760420223141" y="-5.766712399379173" font-family="sans-serif">PRO…</text></g><g class="relationship" transform="translate(7.643405760281181 103.20466682372303) rotate(367.9846217580624)"><path class="outline" fill="#A5ABB6" stroke="none" d="M 25 0.5 L 35.82194263819623 0.5 L 35.82194263819623 -0.5 L 25 -0.5 Z M 82.71256763819622 0.5 L 93.53451027639245 0.5 L 93.53451027639245 3.5 L 100.53451027639245 0 L 93.53451027639245 -3.5 L 93.53451027639245 -0.5 L 82.71256763819622 -0.5 Z"/><text text-anchor="middle" pointer-events="none" font-size="8px" fill="#000000" x="59.26725513819623" y="3" font-family="sans-serif">DIRECTED</text></g><g class="relationship" transform="translate(7.643405760281181 103.20466682372303) rotate(265.79717011736227)"><path class="outline" fill="#A5ABB6" stroke="none" d="M 25 0.5 L 40.44483920667123 0.5 L 40.44483920667123 -0.5 L 25 -0.5 Z M 87.33546420667123 0.5 L 102.78030341334247 0.5 L 102.78030341334247 3.5 L 109.78030341334247 0 L 102.78030341334247 -3.5 L 102.78030341334247 -0.5 L 87.33546420667123 -0.5 Z"/><text text-anchor="middle" pointer-events="none" font-size="8px" fill="#000000" x="63.89015170667123" y="3" transform="rotate(180 63.89015170667123 0)" font-family="sans-serif">DIRECTED</text></g><g class="relationship" transform="translate(7.643405760281181 103.20466682372303) rotate(343.8312031980504)"><path class="outline" fill="#A5ABB6" stroke="none" d="M 25 0.5 L 47.86242583002752 0.5 L 47.86242583002752 -0.5 L 25 -0.5 Z M 94.75305083002752 0.5 L 117.61547666005504 0.5 L 117.61547666005504 3.5 L 124.61547666005504 0 L 117.61547666005504 -3.5 L 117.61547666005504 -0.5 L 94.75305083002752 -0.5 Z"/><text text-anchor="middle" pointer-events="none" font-size="8px" fill="#000000" x="71.30773833002752" y="3" font-family="sans-serif">DIRECTED</text></g><g class="relationship" transform="translate(7.643405760281181 103.20466682372303) rotate(237.3821986352168)"><path class="outline" fill="#A5ABB6" stroke="none" d="M 25 0.5 L 27.182244240919495 0.5 L 27.182244240919495 -0.5 L 25 -0.5 Z M 66.07286924091949 0.5 L 68.25511348183899 0.5 L 68.25511348183899 3.5 L 75.25511348183899 0 L 68.25511348183899 -3.5 L 68.25511348183899 -0.5 L 66.07286924091949 -0.5 Z"/><text text-anchor="middle" pointer-events="none" font-size="8px" fill="#000000" x="46.627556740919495" y="3" transform="rotate(180 46.627556740919495 0)" font-family="sans-serif">DIREC…</text></g><g class="relationship" transform="translate(87.58535658432213 10.035614421445237) rotate(454.9255844454267)"><path class="outline" fill="#A5ABB6" stroke="none" d="M 24.018736134675446,6.953439040707552 L 24.277555179777966,5.987513214418485 A 192.06341864025507 192.06341864025507 0 0 0 53.972517366479714,11.486213912998892 L 53.868308514181905,12.480769348911224 A 193.06341864025507 193.06341864025507 0 0 1 24.018736134675446,6.953439040707552 Z M 89.68070672326978,12.89302303846381 L 89.59942006087446,11.896332274727826 A 192.06341864025507 192.06341864025507 0 0 0 119.41309287197988,7.082664010860439 L 118.70354806533936,4.167780451030052 L 126.33274531269088,5.912873388670966 L 120.35915261416724,10.969175423967624 L 119.64960780752672,8.054291864137236 A 193.06341864025507 193.06341864025507 0 0 1 89.68070672326978,12.89302303846381"/><text text-anchor="middle" pointer-events="none" font-size="8px" fill="#000000" x="71.77068279278696" y="16.019158082604832" transform="rotate(180 71.77068279278696 13.019158082604832)" font-family="sans-serif">WROTE</text></g><g class="relationship" transform="translate(87.58535658432213 10.035614421445237) rotate(454.9255844454267)"><path class="outline" fill="#A5ABB6" stroke="none" d="M 24.018736134675446,-6.953439040707552 L 24.277555179777966,-5.987513214418485 A 192.06341864025507 192.06341864025507 0 0 1 46.052430972226546,-10.489558902807204 L 45.90698529070677,-11.47892514122816 A 193.06341864025507 193.06341864025507 0 0 0 24.018736134675446,-6.953439040707552 Z M 97.6629826122932,-12.074713245887494 L 97.54035059330346,-11.082261036499801 A 192.06341864025507 192.06341864025507 0 0 1 119.41309287197988,-7.082664010860439 L 118.70354806533936,-4.167780451030052 L 126.33274531269088,-5.912873388670966 L 120.35915261416724,-10.969175423967624 L 119.64960780752672,-8.054291864137236 A 193.06341864025507 193.06341864025507 0 0 0 97.6629826122932,-12.074713245887494"/><text text-anchor="middle" pointer-events="none" font-size="8px" fill="#000000" x="71.77068279278691" y="-10.019158082604832" transform="rotate(180 71.77068279278691 -13.019158082604832)" font-family="sans-serif">PRODUCED</text></g><g class="relationship" transform="translate(87.58535658432213 10.035614421445237) rotate(428.13928212829103)"><path class="outline" fill="#A5ABB6" stroke="none" d="M 25 0.5 L 32.64292988757072 0.5 L 32.64292988757072 -0.5 L 25 -0.5 Z M 79.53355488757072 0.5 L 87.17648477514145 0.5 L 87.17648477514145 3.5 L 94.17648477514145 0 L 87.17648477514145 -3.5 L 87.17648477514145 -0.5 L 79.53355488757072 -0.5 Z"/><text text-anchor="middle" pointer-events="none" font-size="8px" fill="#000000" x="56.08824238757072" y="3" font-family="sans-serif">DIRECTED</text></g><g class="relationship" transform="translate(87.58535658432213 10.035614421445237) rotate(204.6664951170227)"><path class="outline" fill="#A5ABB6" stroke="none" d="M 25 0.5 L 26.473901353235554 0.5 L 26.473901353235554 -0.5 L 25 -0.5 Z M 65.36452635323556 0.5 L 66.83842770647111 0.5 L 66.83842770647111 3.5 L 73.83842770647111 0 L 66.83842770647111 -3.5 L 66.83842770647111 -0.5 L 65.36452635323556 -0.5 Z"/><text text-anchor="middle" pointer-events="none" font-size="8px" fill="#000000" x="45.919213853235554" y="3" transform="rotate(180 45.919213853235554 0)" font-family="sans-serif">DIREC…</text></g><g class="relationship" transform="translate(87.58535658432213 10.035614421445237) rotate(398.93354899855547)"><path class="outline" fill="#A5ABB6" stroke="none" d="M 25 0.5 L 26.480576361315443 0.5 L 26.480576361315443 -0.5 L 25 -0.5 Z M 48.48057636131544 0.5 L 49.961152722630885 0.5 L 49.961152722630885 3.5 L 56.961152722630885 0 L 49.961152722630885 -3.5 L 49.961152722630885 -0.5 L 48.48057636131544 -0.5 Z"/><text text-anchor="middle" pointer-events="none" font-size="8px" fill="#000000" x="37.48057636131544" y="3" font-family="sans-serif">DI…</text></g><g class="relationship" transform="translate(87.58535658432213 10.035614421445237) rotate(536.2738515184444)"><path class="outline" fill="#A5ABB6" stroke="none" d="M 25 0.5 L 40.18796076153086 0.5 L 40.18796076153086 -0.5 L 25 -0.5 Z M 87.07858576153086 0.5 L 102.26654652306172 0.5 L 102.26654652306172 3.5 L 109.26654652306172 0 L 102.26654652306172 -3.5 L 102.26654652306172 -0.5 L 87.07858576153086 -0.5 Z"/><text text-anchor="middle" pointer-events="none" font-size="8px" fill="#000000" x="63.63327326153086" y="3" transform="rotate(180 63.63327326153086 0)" font-family="sans-serif">DIRECTED</text></g><g class="relationship" transform="translate(248.6821708025041 158.91569254000666) rotate(198.15452236816077)"><path class="outline" fill="#A5ABB6" stroke="none" d="M 25 0.5 L 34.47272995128197 0.5 L 34.47272995128197 -0.5 L 25 -0.5 Z M 81.36335495128196 0.5 L 90.83608490256394 0.5 L 90.83608490256394 3.5 L 97.83608490256394 0 L 90.83608490256394 -3.5 L 90.83608490256394 -0.5 L 81.36335495128196 -0.5 Z"/><text text-anchor="middle" pointer-events="none" font-size="8px" fill="#000000" x="57.91804245128197" y="3" transform="rotate(180 57.91804245128197 0)" font-family="sans-serif">DIRECTED</text></g></g><g class="layer nodes"><g class="node" transform="translate(46.877545225252945,57.81440295068414)"><circle class="outline" cx="0" cy="0" r="25" fill="#68BDF6" stroke="#5CA8DB" stroke-width="2px"/><text text-anchor="middle" pointer-events="none" font-family="sans-serif" dy="1.5625" font-size="25" fill="#FFFFFF"/><text text-anchor="middle" pointer-events="none" font-family="sans-serif" dy="1.5625" font-size="25" fill="#FFFFFF"/><text text-anchor="middle" pointer-events="none" y="0" font-size="10px" fill="#FFFFFF" font-family="sans-serif"> Hugo</text><text text-anchor="middle" pointer-events="none" y="10" font-size="10px" fill="#FFFFFF" font-family="sans-serif"> Weaving</text></g><g class="node" transform="translate(74.65255443211902,160.1028120409098)"><circle class="outline" cx="0" cy="0" r="25" fill="#6DCE9E" stroke="#60B58B" stroke-width="2px"/><text text-anchor="middle" pointer-events="none" font-family="sans-serif" dy="1.5625" font-size="25" fill="#FFFFFF"/><text text-anchor="middle" pointer-events="none" font-family="sans-serif" dy="1.5625" font-size="25" fill="#FFFFFF"/><text text-anchor="middle" pointer-events="none" y="0" font-size="10px" fill="#FFFFFF" font-family="sans-serif"> V for</text><text text-anchor="middle" pointer-events="none" y="10" font-size="10px" fill="#FFFFFF" font-family="sans-serif"> Vendetta</text></g><g class="node" transform="translate(80.80248573790357,278.76960547086446)"><circle class="outline" cx="0" cy="0" r="25" fill="#68BDF6" stroke="#5CA8DB" stroke-width="2px"/><text text-anchor="middle" pointer-events="none" font-family="sans-serif" dy="1.5625" font-size="25" fill="#FFFFFF"/><text text-anchor="middle" pointer-events="none" font-family="sans-serif" dy="1.5625" font-size="25" fill="#FFFFFF"/><text text-anchor="middle" pointer-events="none" y="0" font-size="10px" fill="#FFFFFF" font-family="sans-serif"> James</text><text text-anchor="middle" pointer-events="none" y="10" font-size="10px" fill="#FFFFFF" font-family="sans-serif"> Marshall</text></g><g class="node" transform="translate(131.96090757470762,120.64232758868123)"><circle class="outline" cx="0" cy="0" r="25" fill="#6DCE9E" stroke="#60B58B" stroke-width="2px"/><text text-anchor="middle" pointer-events="none" font-family="sans-serif" dy="1.5625" font-size="25" fill="#FFFFFF"/><text text-anchor="middle" pointer-events="none" font-family="sans-serif" dy="1.5625" font-size="25" fill="#FFFFFF"/><text text-anchor="middle" pointer-events="none" y="0" font-size="10px" fill="#FFFFFF" font-family="sans-serif"> Cloud</text><text text-anchor="middle" pointer-events="none" y="10" font-size="10px" fill="#FFFFFF" font-family="sans-serif"> Atlas</text></g><g class="node" transform="translate(7.643405760281181,103.20466682372303)"><circle class="outline" cx="0" cy="0" r="25" fill="#68BDF6" stroke="#5CA8DB" stroke-width="2px"/><text text-anchor="middle" pointer-events="none" font-family="sans-serif" dy="1.5625" font-size="25" fill="#FFFFFF"/><text text-anchor="middle" pointer-events="none" font-family="sans-serif" dy="1.5625" font-size="25" fill="#FFFFFF"/><text text-anchor="middle" pointer-events="none" y="0" font-size="10px" fill="#FFFFFF" font-family="sans-serif"> Lilly</text><text text-anchor="middle" pointer-events="none" y="10" font-size="10px" fill="#FFFFFF" font-family="sans-serif"> Wacho…</text></g><g class="node" transform="translate(87.58535658432213,10.035614421445237)"><circle class="outline" cx="0" cy="0" r="25" fill="#68BDF6" stroke="#5CA8DB" stroke-width="2px"/><text text-anchor="middle" pointer-events="none" font-family="sans-serif" dy="1.5625" font-size="25" fill="#FFFFFF"/><text text-anchor="middle" pointer-events="none" font-family="sans-serif" dy="1.5625" font-size="25" fill="#FFFFFF"/><text text-anchor="middle" pointer-events="none" y="0" font-size="10px" fill="#FFFFFF" font-family="sans-serif"> Lana</text><text text-anchor="middle" pointer-events="none" y="10" font-size="10px" fill="#FFFFFF" font-family="sans-serif"> Wacho…</text></g><g class="node" transform="translate(248.6821708025041,158.91569254000666)"><circle class="outline" cx="0" cy="0" r="25" fill="#68BDF6" stroke="#5CA8DB" stroke-width="2px"/><text text-anchor="middle" pointer-events="none" font-family="sans-serif" dy="1.5625" font-size="25" fill="#FFFFFF"/><text text-anchor="middle" pointer-events="none" font-family="sans-serif" dy="1.5625" font-size="25" fill="#FFFFFF"/><text text-anchor="middle" pointer-events="none" y="0" font-size="10px" fill="#FFFFFF" font-family="sans-serif"> Tom</text><text text-anchor="middle" pointer-events="none" y="10" font-size="10px" fill="#FFFFFF" font-family="sans-serif"> Tykwer</text></g><g class="node" transform="translate(-2.2342996836156868,-31.213193311588856)"><circle class="outline" cx="0" cy="0" r="25" fill="#6DCE9E" stroke="#60B58B" stroke-width="2px"/><text text-anchor="middle" pointer-events="none" font-family="sans-serif" dy="1.5625" font-size="25" fill="#FFFFFF"/><text text-anchor="middle" pointer-events="none" font-family="sans-serif" dy="1.5625" font-size="25" fill="#FFFFFF"/><text text-anchor="middle" pointer-events="none" font-family="sans-serif" dy="1.5625" font-size="25" fill="#FFFFFF"/><text text-anchor="middle" pointer-events="none" y="-5" font-size="10px" fill="#FFFFFF" font-family="sans-serif"> The</text><text text-anchor="middle" pointer-events="none" y="5" font-size="10px" fill="#FFFFFF" font-family="sans-serif"> Matrix</text><text text-anchor="middle" pointer-events="none" y="15" font-size="10px" fill="#FFFFFF" font-family="sans-serif"> Revol…</text></g><g class="node" transform="translate(151.34091426799466,61.54153078128033)"><circle class="outline" cx="0" cy="0" r="25" fill="#6DCE9E" stroke="#60B58B" stroke-width="2px"/><text text-anchor="middle" pointer-events="none" font-family="sans-serif" dy="1.5625" font-size="25" fill="#FFFFFF"/><text text-anchor="middle" pointer-events="none" font-family="sans-serif" dy="1.5625" font-size="25" fill="#FFFFFF"/><text text-anchor="middle" pointer-events="none" font-family="sans-serif" dy="1.5625" font-size="25" fill="#FFFFFF"/><text text-anchor="middle" pointer-events="none" y="-5" font-size="10px" fill="#FFFFFF" font-family="sans-serif"> The</text><text text-anchor="middle" pointer-events="none" y="5" font-size="10px" fill="#FFFFFF" font-family="sans-serif"> Matrix</text><text text-anchor="middle" pointer-events="none" y="15" font-size="10px" fill="#FFFFFF" font-family="sans-serif"> Reloa…</text></g><g class="node" transform="translate(-46.39735895614008,18.761292139140387)"><circle class="outline" cx="0" cy="0" r="25" fill="#6DCE9E" stroke="#60B58B" stroke-width="2px"/><text text-anchor="middle" pointer-events="none" font-family="sans-serif" dy="1.5625" font-size="25" fill="#FFFFFF"/><text text-anchor="middle" pointer-events="none" font-family="sans-serif" dy="1.5625" font-size="25" fill="#FFFFFF"/><text text-anchor="middle" pointer-events="none" y="0" font-size="10px" fill="#FFFFFF" font-family="sans-serif"> The</text><text text-anchor="middle" pointer-events="none" y="10" font-size="10px" fill="#FFFFFF" font-family="sans-serif"> Matrix</text></g></g></svg>