<svg xmlns="http://www.w3.org/2000/svg" width="647.10595703125" height="467.77606201171875" viewBox="-222.21018981933594 -132.83644104003906 647.10595703125 467.77606201171875"><title>Neo4j Graph Visualization</title><desc>Created using Neo4j (http://www.neo4j.com/)</desc><g class="layer relationships"><g class="relationship" transform="translate(201.71922003203446 -95.8010787915357) rotate(421.4042071864989)"><path class="outline" fill="#A5ABB6" stroke="none" d="M 21.40063509461097,12.933012701892217 L 21.90063509461097,12.06698729810778 A 73.51658797880232 73.51658797880232 0 0 0 47.07423314746792,20.997850407514562 L 46.9166538003431,21.985356736284018 A 74.51658797880232 74.51658797880232 0 0 1 21.40063509461097,12.933012701892217 Z M 66.320499716049,22.52142623488423 L 66.21768273475865,21.526725944164284 A 73.51658797880232 73.51658797880232 0 0 0 91.84597167158834,13.99936512006804 L 90.49170414503453,11.322434141032195 L 98.31785521043095,11.285562721281776 L 93.65166170699342,17.56860642544917 L 92.29739418043961,14.891675446413322 A 74.51658797880232 74.51658797880232 0 0 1 66.320499716049,22.52142623488423"/><text text-anchor="middle" pointer-events="none" font-size="8px" fill="#000000" x="56.61485483609078" y="25.38811208287538" font-family="sans-serif">trek</text></g><g class="relationship" transform="translate(259.4539421656983 10.110395850314502) rotate(469.89142942991487)"><path class="outline" fill="#A5ABB6" stroke="none" d="M 24.018736134675446,-6.953439040707552 L 24.277555179777966,-5.987513214418485 A 157.87612103924707 157.87612103924707 0 0 1 40.04424818061972,-9.359835307926488 L 39.885296632242195,-10.347121692552747 A 158.87612103924707 158.87612103924707 0 0 0 24.018736134675446,-6.953439040707552 Z M 86.32595747704873,-10.947965713935815 L 86.19260165701226,-9.95689748961297 A 157.87612103924707 157.87612103924707 0 0 1 102.04126404190039,-6.993611290983706 L 101.3400364896777,-4.076715694634089 L 108.96422502541995,-5.843562935189042 L 102.97623411153064,-10.882805419449861 L 102.27500655930795,-7.965909823100244 A 158.87612103924707 158.87612103924707 0 0 0 86.32595747704873,-10.947965713935815"/><text text-anchor="middle" pointer-events="none" font-size="8px" fill="#000000" x="63.09002118978366" y="-8.853758047473974" transform="rotate(180 63.09002118978366 -11.853758047473974)" font-family="sans-serif">twowheeler</text></g><g class="relationship" transform="translate(214.10973036475687 135.43096625292557) rotate(454.0318360233621)"><path class="outline" fill="#A5ABB6" stroke="none" d="M 24.018736134675446,-6.953439040707552 L 24.277555179777966,-5.987513214418485 A 157.90291698229333 157.90291698229333 0 0 1 40.050988088470845,-9.36106190559039 L 39.89206227656592,-10.348352433403932 A 158.90291698229333 158.90291698229333 0 0 0 24.018736134675446,-6.953439040707552 Z M 86.33275557644167,-10.949138672801098 L 86.19942310774468,-9.958067306656773 A 157.90291698229333 157.90291698229333 0 0 1 102.05484744941103,-6.993689557037645 L 101.3536125872043,-4.076795718032547 L 108.97780555079072,-5.84362385172278 L 102.98982726568669,-10.882881342377775 L 102.28859240347995,-7.965987503372678 A 158.90291698229333 158.90291698229333 0 0 0 86.33275557644167,-10.949138672801098"/><text text-anchor="middle" pointer-events="none" font-size="8px" fill="#000000" x="63.09680830522762" y="-8.854671422345746" transform="rotate(180 63.09680830522762 -11.854671422345746)" font-family="sans-serif">twowheeler</text></g><g class="relationship" transform="translate(204.73834379667304 268.38635765693624) rotate(377.7625911521613)"><path class="outline" fill="#A5ABB6" stroke="none" d="M 25 0.5 L 47.53661821280669 0.5 L 47.53661821280669 -0.5 L 25 -0.5 Z M 66.87255571280669 0.5 L 89.40917392561337 0.5 L 89.40917392561337 3.5 L 96.40917392561337 0 L 89.40917392561337 -3.5 L 89.40917392561337 -0.5 L 66.87255571280669 -0.5 Z"/><text text-anchor="middle" pointer-events="none" font-size="8px" fill="#000000" x="57.20458696280669" y="3" font-family="sans-serif">trek</text></g><g class="relationship" transform="translate(320.35979435054725 305.4250898857513) rotate(303.14696781221136)"><path class="outline" fill="#A5ABB6" stroke="none" d="M 25 0.5 L 50.792215572100964 0.5 L 50.792215572100964 -0.5 L 25 -0.5 Z M 70.12815307210096 0.5 L 95.92036864420193 0.5 L 95.92036864420193 3.5 L 102.92036864420193 0 L 95.92036864420193 -3.5 L 95.92036864420193 -0.5 L 70.12815307210096 -0.5 Z"/><text text-anchor="middle" pointer-events="none" font-size="8px" fill="#000000" x="60.460184322100964" y="3" font-family="sans-serif">trek</text></g><g class="relationship" transform="translate(201.71922003203446 -95.8010787915357) rotate(421.4042071864989)"><path class="outline" fill="#A5ABB6" stroke="none" d="M 25 0.5 L 25.949525434531473 0.5 L 25.949525434531473 -0.5 L 25 -0.5 Z M 87.67608793453147 0.5 L 88.62561336906295 0.5 L 88.62561336906295 3.5 L 95.62561336906295 0 L 88.62561336906295 -3.5 L 88.62561336906295 -0.5 L 87.67608793453147 -0.5 Z"/><text text-anchor="middle" pointer-events="none" font-size="8px" fill="#000000" x="56.81280668453147" y="3" font-family="sans-serif">PublicTransport</text></g><g class="relationship" transform="translate(201.71922003203446 -95.8010787915357) rotate(421.4042071864989)"><path class="outline" fill="#A5ABB6" stroke="none" d="M 21.40063509461097,-12.933012701892217 L 21.90063509461097,-12.06698729810778 A 73.51658797880232 73.51658797880232 0 0 1 45.763946461697365,-20.7766025420716 L 45.588544107251415,-21.761099375004463 A 74.51658797880232 74.51658797880232 0 0 0 21.40063509461097,-12.933012701892217 Z M 67.65896525025221,-22.370838271479997 L 67.53818628800558,-21.378158845744466 A 73.51658797880232 73.51658797880232 0 0 1 91.84597167158834,-13.99936512006804 L 90.49170414503453,-11.322434141032195 L 98.31785521043095,-11.285562721281776 L 93.65166170699342,-17.56860642544917 L 92.29739418043961,-14.891675446413322 A 74.51658797880232 74.51658797880232 0 0 0 67.65896525025221,-22.370838271479997"/><text text-anchor="middle" pointer-events="none" font-size="8px" fill="#000000" x="56.614854836090764" y="-19.38811208287538" font-family="sans-serif">road</text></g><g class="relationship" transform="translate(259.4539421656983 10.110395850314502) rotate(469.89142942991487)"><path class="outline" fill="#A5ABB6" stroke="none" d="M 24.018736134675446,6.953439040707552 L 24.277555179777966,5.987513214418485 A 157.87612103924707 157.87612103924707 0 0 0 53.46963767927794,10.93515961812298 L 53.39572362365284,11.932424233148026 A 158.87612103924707 158.87612103924707 0 0 1 24.018736134675446,6.953439040707552 Z M 72.77903865531475,12.183203372365625 L 72.73095001534989,11.18436030025353 A 157.87612103924707 157.87612103924707 0 0 0 102.04126404190039,6.993611290983706 L 101.3400364896777,4.076715694634089 L 108.96422502541995,5.843562935189042 L 102.97623411153064,10.882805419449861 L 102.27500655930795,7.965909823100244 A 158.87612103924707 158.87612103924707 0 0 1 72.77903865531475,12.183203372365625"/><text text-anchor="middle" pointer-events="none" font-size="8px" fill="#000000" x="63.090021189783684" y="14.853758047473974" transform="rotate(180 63.090021189783684 11.853758047473974)" font-family="sans-serif">trek</text></g><g class="relationship" transform="translate(214.10973036475687 135.43096625292557) rotate(454.0318360233621)"><path class="outline" fill="#A5ABB6" stroke="none" d="M 24.018736134675446,6.953439040707552 L 24.277555179777966,5.987513214418485 A 157.90291698229333 157.90291698229333 0 0 0 53.476415819089894,10.936134507153639 L 53.40251331129609,11.93339997799967 A 158.90291698229333 158.90291698229333 0 0 1 24.018736134675446,6.953439040707552 Z M 72.78582241156239,12.18415474830914 L 72.73774283451866,11.185311239909879 A 157.90291698229333 157.90291698229333 0 0 0 102.05484744941103,6.993689557037645 L 101.3536125872043,4.076795718032547 L 108.97780555079072,5.84362385172278 L 102.98982726568669,10.882881342377775 L 102.28859240347995,7.965987503372678 A 158.90291698229333 158.90291698229333 0 0 1 72.78582241156239,12.18415474830914"/><text text-anchor="middle" pointer-events="none" font-size="8px" fill="#000000" x="63.09680830522764" y="14.854671422345746" transform="rotate(180 63.09680830522764 11.854671422345746)" font-family="sans-serif">trek</text></g><g class="relationship" transform="translate(259.4539421656983 10.110395850314502) rotate(388.79349856714555)"><path class="outline" fill="#A5ABB6" stroke="none" d="M 25 0.5 L 49.39005640206613 0.5 L 49.39005640206613 -0.5 L 25 -0.5 Z M 68.72599390206614 0.5 L 93.11605030413226 0.5 L 93.11605030413226 3.5 L 100.11605030413226 0 L 93.11605030413226 -3.5 L 93.11605030413226 -0.5 L 68.72599390206614 -0.5 Z"/><text text-anchor="middle" pointer-events="none" font-size="8px" fill="#000000" x="59.05802515206613" y="3" font-family="sans-serif">trek</text></g><g class="relationship" transform="translate(369.10081162451894 70.37307137660113) rotate(440.59010248959237)"><path class="outline" fill="#A5ABB6" stroke="none" d="M 25 0.5 L 51.67862773075798 0.5 L 51.67862773075798 -0.5 L 25 -0.5 Z M 71.01456523075798 0.5 L 97.69319296151596 0.5 L 97.69319296151596 3.5 L 104.69319296151596 0 L 97.69319296151596 -3.5 L 97.69319296151596 -0.5 L 71.01456523075798 -0.5 Z"/><text text-anchor="middle" pointer-events="none" font-size="8px" fill="#000000" x="61.34659648075798" y="3" font-family="sans-serif">trek</text></g><g class="relationship" transform="translate(201.71922003203446 -95.8010787915357) rotate(355.40063913763447)"><path class="outline" fill="#A5ABB6" stroke="none" d="M 24.018736134675446,-6.953439040707552 L 24.277555179777966,-5.987513214418485 A 92.09110141099211 92.09110141099211 0 0 1 36.96452468363697,-8.44820061935907 L 36.84347106113742,-9.440846588715587 A 93.09110141099211 93.09110141099211 0 0 0 24.018736134675446,-6.953439040707552 Z M 56.245735612075265,-9.76946502072478 L 56.158366901431734,-8.77328897784858 A 92.09110141099211 92.09110141099211 0 0 1 68.92138957203088,-6.74365107751918 L 68.24350963106613,-3.821241320890649 L 75.85332566099157,-5.648999508039534 L 69.82522949331721,-10.640197419690555 L 69.14734955235247,-7.717787663062024 A 93.09110141099211 93.09110141099211 0 0 0 56.245735612075265,-9.76946502072478"/><text text-anchor="middle" pointer-events="none" font-size="8px" fill="#000000" x="46.54448464406305" y="-6.612163640863557" font-family="sans-serif">trek</text></g><g class="relationship" transform="translate(301.6032718826791 -103.83643736236056) rotate(392.27216519251704)"><path class="outline" fill="#A5ABB6" stroke="none" d="M 21.40063509461097,-12.933012701892217 L 21.90063509461097,-12.06698729810778 A 64.14083763664166 64.14083763664166 0 0 1 29.63496801616657,-15.864164587748618 L 29.255551613240414,-16.789390610507695 A 65.14083763664166 65.14083763664166 0 0 0 21.40063509461097,-12.933012701892217 Z M 75.05792807229835,-18.15276385279995 L 74.73421602123463,-17.206608205986953 A 64.14083763664166 64.14083763664166 0 0 1 82.68071192102956,-13.876193213082091 L 81.337901674113,-11.193496688915426 L 89.16413885190453,-11.190085390971252 L 84.47112558358495,-17.45312191197098 L 83.1283153366684,-14.770425387804314 A 65.14083763664166 65.14083763664166 0 0 0 75.05792807229835,-18.15276385279995"/><text text-anchor="middle" pointer-events="none" font-size="8px" fill="#000000" x="52.04777879178833" y="-18.131611941883236" font-family="sans-serif">twowheeler</text></g><g class="relationship" transform="translate(395.8957622238202 -44.29129481446729) rotate(463.1529438294876)"><path class="outline" fill="#A5ABB6" stroke="none" d="M 21.40063509461097,12.933012701892217 L 21.90063509461097,12.06698729810778 A 70.56379326610922 70.56379326610922 0 0 0 32.64307850782614,17.116334229829306 L 32.29531583685837,18.05391682602091 A 71.56379326610922 71.56379326610922 0 0 1 21.40063509461097,12.933012701892217 Z M 78.2396640604642,19.352663676350616 L 77.94542124057205,18.396932980525733 A 70.56379326610922 70.56379326610922 0 0 0 88.95595062880689,13.962495303228556 L 87.60511258153875,11.283832097438626 L 95.43130445019474,11.256983727234541 L 90.75706802516441,17.534046244281797 L 89.40622997789627,14.855383038491867 A 71.56379326610922 71.56379326610922 0 0 1 78.2396640604642,19.352663676350616"/><text text-anchor="middle" pointer-events="none" font-size="8px" fill="#000000" x="55.17451488350727" y="24.992367540161624" transform="rotate(180 55.17451488350727 21.992367540161624)" font-family="sans-serif">twowheeler</text></g><g class="relationship" transform="translate(201.71922003203446 -95.8010787915357) rotate(355.40063913763447)"><path class="outline" fill="#A5ABB6" stroke="none" d="M 24.018736134675446,6.953439040707552 L 24.277555179777966,5.987513214418485 A 92.09110141099211 92.09110141099211 0 0 0 35.644854257870726,8.277581466444957 L 35.509470581700995,9.268374714416879 A 93.09110141099211 93.09110141099211 0 0 1 24.018736134675446,6.953439040707552 Z M 57.58481162965376,9.642267356804126 L 57.48305834307028,8.647457692260474 A 92.09110141099211 92.09110141099211 0 0 0 68.92138957203088,6.74365107751918 L 68.24350963106613,3.821241320890649 L 75.85332566099157,5.648999508039534 L 69.82522949331721,10.640197419690555 L 69.14734955235247,7.717787663062024 A 93.09110141099211 93.09110141099211 0 0 1 57.58481162965376,9.642267356804126"/><text text-anchor="middle" pointer-events="none" font-size="8px" fill="#000000" x="46.544484644063054" y="12.612163640863557" font-family="sans-serif">road</text></g><g class="relationship" transform="translate(259.4539421656983 10.110395850314502) rotate(290.299609099845)"><path class="outline" fill="#A5ABB6" stroke="none" d="M 25 0.5 L 47.578320837899824 0.5 L 47.578320837899824 -0.5 L 25 -0.5 Z M 66.91425833789982 0.5 L 89.49257917579965 0.5 L 89.49257917579965 3.5 L 96.49257917579965 0 L 89.49257917579965 -3.5 L 89.49257917579965 -0.5 L 66.91425833789982 -0.5 Z"/><text text-anchor="middle" pointer-events="none" font-size="8px" fill="#000000" x="57.246289587899824" y="3" font-family="sans-serif">trek</text></g><g class="relationship" transform="translate(301.6032718826791 -103.83643736236056) rotate(392.27216519251704)"><path class="outline" fill="#A5ABB6" stroke="none" d="M 25 0.5 L 41.254112234980035 0.5 L 41.254112234980035 -0.5 L 25 -0.5 Z M 63.265830984980035 0.5 L 79.51994321996007 0.5 L 79.51994321996007 3.5 L 86.51994321996007 0 L 79.51994321996007 -3.5 L 79.51994321996007 -0.5 L 63.265830984980035 -0.5 Z"/><text text-anchor="middle" pointer-events="none" font-size="8px" fill="#000000" x="52.259971609980035" y="3" font-family="sans-serif">road</text></g><g class="relationship" transform="translate(301.6032718826791 -103.83643736236056) rotate(392.27216519251704)"><path class="outline" fill="#A5ABB6" stroke="none" d="M 21.40063509461097,12.933012701892217 L 21.90063509461097,12.06698729810778 A 64.14083763664166 64.14083763664166 0 0 0 42.53073125756791,19.631721472617684 L 42.352368718553784,20.615686311764108 A 65.14083763664166 65.14083763664166 0 0 1 21.40063509461097,12.933012701892217 Z M 61.75671036354677,21.193284293098728 L 61.63719000223298,20.20045254338914 A 64.14083763664166 64.14083763664166 0 0 0 82.68071192102956,13.876193213082091 L 81.337901674113,11.193496688915426 L 89.16413885190453,11.190085390971252 L 84.47112558358495,17.45312191197098 L 83.1283153366684,14.770425387804314 A 65.14083763664166 65.14083763664166 0 0 1 61.75671036354677,21.193284293098728"/><text text-anchor="middle" pointer-events="none" font-size="8px" fill="#000000" x="52.047778791788346" y="24.131611941883236" font-family="sans-serif">trek</text></g><g class="relationship" transform="translate(395.8957622238202 -44.29129481446729) rotate(463.1529438294876)"><path class="outline" fill="#A5ABB6" stroke="none" d="M 25 0.5 L 44.370889540888754 0.5 L 44.370889540888754 -0.5 L 25 -0.5 Z M 66.38260829088875 0.5 L 85.75349783177751 0.5 L 85.75349783177751 3.5 L 92.75349783177751 0 L 85.75349783177751 -3.5 L 85.75349783177751 -0.5 L 66.38260829088875 -0.5 Z"/><text text-anchor="middle" pointer-events="none" font-size="8px" fill="#000000" x="55.376748915888754" y="3" transform="rotate(180 55.376748915888754 0)" font-family="sans-serif">road</text></g><g class="relationship" transform="translate(395.8957622238202 -44.29129481446729) rotate(463.1529438294876)"><path class="outline" fill="#A5ABB6" stroke="none" d="M 21.40063509461097,-12.933012701892217 L 21.90063509461097,-12.06698729810778 A 70.56379326610922 70.56379326610922 0 0 1 45.640528789122826,-20.570390170595473 L 45.476960443313864,-21.55692217527111 A 71.56379326610922 71.56379326610922 0 0 0 21.40063509461097,-12.933012701892217 Z M 64.88118218006416,-22.105437342817993 L 64.77360472921872,-21.111240635888436 A 70.56379326610922 70.56379326610922 0 0 1 88.95595062880689,-13.962495303228556 L 87.60511258153875,-11.283832097438626 L 95.43130445019474,-11.256983727234541 L 90.75706802516441,-17.534046244281797 L 89.40622997789627,-14.855383038491867 A 71.56379326610922 71.56379326610922 0 0 0 64.88118218006416,-22.105437342817993"/><text text-anchor="middle" pointer-events="none" font-size="8px" fill="#000000" x="55.17451488350728" y="-18.992367540161624" transform="rotate(180 55.17451488350728 -21.992367540161624)" font-family="sans-serif">trek</text></g><g class="relationship" transform="translate(204.73834379667304 268.38635765693624) rotate(327.1016138242461)"><path class="outline" fill="#A5ABB6" stroke="none" d="M 21.40063509461097,12.933012701892217 L 21.90063509461097,12.06698729810778 A 49.51311395605552 49.51311395605552 0 0 0 22.991543504983305,12.67858490974389 L 22.513576221635716,13.556962548376227 A 50.51311395605552 50.51311395605552 0 0 1 21.40063509461097,12.933012701892217 Z M 67.74741783030034,15.087013956173031 L 67.32989801997921,14.178346135685587 A 49.51311395605552 49.51311395605552 0 0 0 68.45964069036631,13.641862867459366 L 67.13863014129775,10.948364931828154 L 74.9646376316839,11.008421242237944 L 70.22098808912439,17.23319344830098 L 68.89997754005583,14.53969551266977 A 50.51311395605552 50.51311395605552 0 0 1 67.74741783030034,15.087013956173031"/><text text-anchor="middle" pointer-events="none" font-size="8px" fill="#000000" x="44.96644697284189" y="22.17189988347006" font-family="sans-serif">twowheeler</text></g><g class="relationship" transform="translate(286.52758607254634 215.47779171486664) rotate(350.6126726008106)"><path class="outline" fill="#A5ABB6" stroke="none" d="M 24.018736134675446,6.953439040707552 L 24.277555179777966,5.987513214418485 A 102.07486294177184 102.07486294177184 0 0 0 26.167904887732256,6.474705819018695 L 25.927605090694094,7.445404540323821 A 103.07486294177184 103.07486294177184 0 0 1 24.018736134675446,6.953439040707552 Z M 72.21470118498333,8.194503213063115 L 72.00593808954461,7.216536971323222 A 102.07486294177184 102.07486294177184 0 0 0 73.91106291492356,6.790769367970529 L 73.22878164085039,3.869384035110605 L 80.84134223727558,5.685677283943112 L 74.82077128035446,10.685949811783761 L 74.13849000628129,7.764564478923837 A 103.07486294177184 103.07486294177184 0 0 1 72.21470118498333,8.194503213063115"/><text text-anchor="middle" pointer-events="none" font-size="8px" fill="#000000" x="49.036645411840624" y="12.952199583962056" font-family="sans-serif">twowheeler</text></g><g class="relationship" transform="translate(214.10973036475687 135.43096625292557) rotate(407.8645553044602)"><path class="outline" fill="#A5ABB6" stroke="none" d="M 24.018736134675446,-6.953439040707552 L 24.277555179777966,-5.987513214418485 A 107.58908286072511 107.58908286072511 0 0 1 40.822104533493274,-9.058297315490194 L 40.71706084285802,-10.052764923337591 A 108.58908286072511 108.58908286072511 0 0 0 24.018736134675446,-6.953439040707552 Z M 60.114132274497344,-10.359135773654828 L 60.04054777415214,-9.361846787799209 A 107.58908286072511 107.58908286072511 0 0 1 76.67382437898232,-6.815096368122142 L 75.98927075540931,-3.894242668182164 L 83.60324194943777,-5.704613529775107 L 77.58656254374634,-10.709567968042112 L 76.90200892017333,-7.788714268102134 A 108.58908286072511 108.58908286072511 0 0 0 60.114132274497344,-10.359135773654828"/><text text-anchor="middle" pointer-events="none" font-size="8px" fill="#000000" x="50.41663755766429" y="-7.140042212383989" font-family="sans-serif">trek</text></g><g class="relationship" transform="translate(214.10973036475687 135.43096625292557) rotate(407.8645553044602)"><path class="outline" fill="#A5ABB6" stroke="none" d="M 24.018736134675446,6.953439040707552 L 24.277555179777966,5.987513214418485 A 107.58908286072511 107.58908286072511 0 0 0 27.519184611380755,6.802353300847159 L 27.29049529083216,7.775852758816725 A 108.58908286072511 108.58908286072511 0 0 1 24.018736134675446,6.953439040707552 Z M 73.60590871419083,8.50739064294099 L 73.40807805498454,7.527154431470507 A 107.58908286072511 107.58908286072511 0 0 0 76.67382437898232,6.815096368122142 L 75.98927075540931,3.894242668182164 L 83.60324194943777,5.704613529775107 L 77.58656254374634,10.709567968042112 L 76.90200892017333,7.788714268102134 A 108.58908286072511 108.58908286072511 0 0 1 73.60590871419083,8.50739064294099"/><text text-anchor="middle" pointer-events="none" font-size="8px" fill="#000000" x="50.416637557664295" y="13.140042212383989" font-family="sans-serif">twowheeler</text></g><g class="relationship" transform="translate(204.73834379667304 268.38635765693624) rotate(327.1016138242461)"><path class="outline" fill="#A5ABB6" stroke="none" d="M 25 0.5 L 34.199367505972 0.5 L 34.199367505972 -0.5 L 25 -0.5 Z M 56.211086255972 0.5 L 65.410453761944 0.5 L 65.410453761944 3.5 L 72.410453761944 0 L 65.410453761944 -3.5 L 65.410453761944 -0.5 L 56.211086255972 -0.5 Z"/><text text-anchor="middle" pointer-events="none" font-size="8px" fill="#000000" x="45.205226880972" y="3" font-family="sans-serif">road</text></g><g class="relationship" transform="translate(204.73834379667304 268.38635765693624) rotate(327.1016138242461)"><path class="outline" fill="#A5ABB6" stroke="none" d="M 21.40063509461097,-12.933012701892217 L 21.90063509461097,-12.06698729810778 A 49.51311395605552 49.51311395605552 0 0 1 35.50814866941433,-17.42892422630232 L 35.28297512421741,-18.403242898269276 A 50.51311395605552 50.51311395605552 0 0 0 21.40063509461097,-12.933012701892217 Z M 54.679726132848664,-19.05934516887004 L 54.52090531520537,-18.07203774568154 A 49.51311395605552 49.51311395605552 0 0 1 68.45964069036631,-13.641862867459366 L 67.13863014129775,-10.948364931828154 L 74.9646376316839,-11.008421242237944 L 70.22098808912439,-17.23319344830098 L 68.89997754005583,-14.53969551266977 A 50.51311395605552 50.51311395605552 0 0 0 54.679726132848664,-19.05934516887004"/><text text-anchor="middle" pointer-events="none" font-size="8px" fill="#000000" x="44.96644697284189" y="-16.17189988347006" font-family="sans-serif">trek</text></g><g class="relationship" transform="translate(286.52758607254634 215.47779171486664) rotate(350.6126726008106)"><path class="outline" fill="#A5ABB6" stroke="none" d="M 24.018736134675446,-6.953439040707552 L 24.277555179777966,-5.987513214418485 A 102.07486294177184 102.07486294177184 0 0 1 39.446721213883905,-8.843813722409422 L 39.33651041176045,-9.837721957155125 A 103.07486294177184 103.07486294177184 0 0 0 24.018736134675446,-6.953439040707552 Z M 58.73540493004735,-10.151668766578126 L 58.657413740291894,-9.154714718328904 A 102.07486294177184 102.07486294177184 0 0 1 73.91106291492356,-6.790769367970529 L 73.22878164085039,-3.869384035110605 L 80.84134223727558,-5.685677283943112 L 74.82077128035446,-10.685949811783761 L 74.13849000628129,-7.764564478923837 A 103.07486294177184 103.07486294177184 0 0 0 58.73540493004735,-10.151668766578126"/><text text-anchor="middle" pointer-events="none" font-size="8px" fill="#000000" x="49.0366454118406" y="-6.952199583962056" font-family="sans-serif">trek</text></g><g class="relationship" transform="translate(8.706583638327542 -57.32537405667856) rotate(484.0784027655537)"><path class="outline" fill="#A5ABB6" stroke="none" d="M 21.40063509461097,12.933012701892217 L 21.90063509461097,12.06698729810778 A 71.98504940980531 71.98504940980531 0 0 0 26.340151650155377,14.427381037809283 L 25.90182440848427,15.326196496737865 A 72.98504940980531 72.98504940980531 0 0 1 21.40063509461097,12.933012701892217 Z M 86.16958808446503,17.01103013690691 L 85.78216040559643,16.08913003730474 A 71.98504940980531 71.98504940980531 0 0 0 90.34661351504096,13.980449486567672 L 88.99410543253181,11.302629125388187 L 96.82027903821128,11.270900687576242 L 92.14995762505315,17.550876634806986 L 90.797449542544,14.873056273627501 A 72.98504940980531 72.98504940980531 0 0 1 86.16958808446503,17.01103013690691"/><text text-anchor="middle" pointer-events="none" font-size="8px" fill="#000000" x="55.867573514531145" y="25.18284731202661" transform="rotate(180 55.867573514531145 22.18284731202661)" font-family="sans-serif">PublicTransport</text></g><g class="relationship" transform="translate(-58.048203884588666 41.35113522098536) rotate(527.0629406764363)"><path class="outline" fill="#A5ABB6" stroke="none" d="M 25 0.5 L 47.03388070362792 0.5 L 47.03388070362792 -0.5 L 25 -0.5 Z M 66.36981820362791 0.5 L 88.40369890725584 0.5 L 88.40369890725584 3.5 L 95.40369890725584 0 L 88.40369890725584 -3.5 L 88.40369890725584 -0.5 L 66.36981820362791 -0.5 Z"/><text text-anchor="middle" pointer-events="none" font-size="8px" fill="#000000" x="56.70184945362792" y="3" transform="rotate(180 56.70184945362792 0)" font-family="sans-serif">trek</text></g><g class="relationship" transform="translate(-175.39564639900064 68.30718177599601) rotate(458.0520070115233)"><path class="outline" fill="#A5ABB6" stroke="none" d="M 25 0.5 L 50.42273801470873 0.5 L 50.42273801470873 -0.5 L 25 -0.5 Z M 69.75867551470873 0.5 L 95.18141352941745 0.5 L 95.18141352941745 3.5 L 102.18141352941745 0 L 95.18141352941745 -3.5 L 95.18141352941745 -0.5 L 69.75867551470873 -0.5 Z"/><text text-anchor="middle" pointer-events="none" font-size="8px" fill="#000000" x="60.09070676470873" y="3" transform="rotate(180 60.09070676470873 0)" font-family="sans-serif">trek</text></g><g class="relationship" transform="translate(8.706583638327542 -57.32537405667856) rotate(484.0784027655537)"><path class="outline" fill="#A5ABB6" stroke="none" d="M 25 0.5 L 45.061864982353505 0.5 L 45.061864982353505 -0.5 L 25 -0.5 Z M 67.07358373235351 0.5 L 87.13544871470701 0.5 L 87.13544871470701 3.5 L 94.13544871470701 0 L 87.13544871470701 -3.5 L 87.13544871470701 -0.5 L 67.07358373235351 -0.5 Z"/><text text-anchor="middle" pointer-events="none" font-size="8px" fill="#000000" x="56.067724357353505" y="3" transform="rotate(180 56.067724357353505 0)" font-family="sans-serif">road</text></g><g class="relationship" transform="translate(8.706583638327542 -57.32537405667856) rotate(484.0784027655537)"><path class="outline" fill="#A5ABB6" stroke="none" d="M 21.40063509461097,-12.933012701892217 L 21.90063509461097,-12.06698729810778 A 71.98504940980531 71.98504940980531 0 0 1 46.33031415426135,-20.776425584405587 L 46.16968572182914,-21.763440531959247 A 72.98504940980531 72.98504940980531 0 0 0 21.40063509461097,-12.933012701892217 Z M 65.5737462185728,-22.305896596142347 L 65.46851115356745,-21.311449221419423 A 71.98504940980531 71.98504940980531 0 0 1 90.34661351504096,-13.980449486567672 L 88.99410543253181,-11.302629125388187 L 96.82027903821128,-11.270900687576242 L 92.14995762505315,-17.550876634806986 L 90.797449542544,-14.873056273627501 A 72.98504940980531 72.98504940980531 0 0 0 65.5737462185728,-22.305896596142347"/><text text-anchor="middle" pointer-events="none" font-size="8px" fill="#000000" x="55.86757351453113" y="-19.18284731202661" transform="rotate(180 55.86757351453113 -22.18284731202661)" font-family="sans-serif">trek</text></g><g class="relationship" transform="translate(8.706583638327542 -57.32537405667856) rotate(194.1251373358058)"><path class="outline" fill="#A5ABB6" stroke="none" d="M 24.018736134675446,-6.953439040707552 L 24.277555179777966,-5.987513214418485 A 88.9156252772314 88.9156252772314 0 0 1 36.177443668017744,-8.32001326733878 L 36.05245811338595,-9.312171828826493 A 89.9156252772314 89.9156252772314 0 0 0 24.018736134675446,-6.953439040707552 Z M 55.45578869059023,-9.645735173018053 L 55.36497937622812,-8.649866874283191 A 88.9156252772314 88.9156252772314 0 0 1 67.3380088427157,-6.727767000698353 L 66.66161266246667,-3.805013468950505 L 74.27049978016885,-5.636634835408589 L 68.23987041638108,-10.624771709695484 L 67.56347423613205,-7.702018177947636 A 89.9156252772314 89.9156252772314 0 0 0 55.45578869059023,-9.645735173018053"/><text text-anchor="middle" pointer-events="none" font-size="8px" fill="#000000" x="45.75369231052739" y="-6.504030027664882" transform="rotate(180 45.75369231052739 -9.504030027664882)" font-family="sans-serif">trek</text></g><g class="relationship" transform="translate(-86.9382189382961 -81.39430252666061) rotate(523.104301880756)"><path class="outline" fill="#A5ABB6" stroke="none" d="M 21.40063509461097,-12.933012701892217 L 21.90063509461097,-12.06698729810778 A 61.68307856232168 61.68307856232168 0 0 1 41.344384142774814,-19.268766377281445 L 41.15960428906694,-20.251546314838016 A 62.68307856232168 62.68307856232168 0 0 0 21.40063509461097,-12.933012701892217 Z M 60.56363255241679,-20.84106627060074 L 60.438854727906005,-19.848881562741184 A 61.68307856232168 61.68307856232168 0 0 1 80.28393830399112,-13.84074900666414 L 78.9444252039571,-11.156404644471161 L 86.77066066578041,-11.16260916695024 L 82.06995577070315,-17.419874822921447 L 80.73044267066912,-14.735530460728466 A 62.68307856232168 62.68307856232168 0 0 0 60.56363255241679,-20.84106627060074"/><text text-anchor="middle" pointer-events="none" font-size="8px" fill="#000000" x="50.85384177099015" y="-17.802274441212766" transform="rotate(180 50.85384177099015 -20.802274441212766)" font-family="sans-serif">trek</text></g><g class="relationship" transform="translate(-191.36742386511895 -49.674848506358835) rotate(442.29047095487687)"><path class="outline" fill="#A5ABB6" stroke="none" d="M 21.40063509461097,12.933012701892217 L 21.90063509461097,12.06698729810778 A 71.90563699125974 71.90563699125974 0 0 0 46.291757929985025,20.764927773608434 L 46.13096809285917,21.75191644035037 A 72.90563699125974 72.90563699125974 0 0 1 21.40063509461097,12.933012701892217 Z M 65.53503860776917,22.294707655205613 L 65.42967521839985,21.300273868480417 A 71.90563699125974 71.90563699125974 0 0 0 90.26889171397282,13.979456593632287 L 88.91647598635726,11.301589588029127 L 96.74265068164947,11.270131063463138 L 92.07211268412692,17.5499459344365 L 90.71969695651136,14.872078928833341 A 72.90563699125974 72.90563699125974 0 0 1 65.53503860776917,22.294707655205613"/><text text-anchor="middle" pointer-events="none" font-size="8px" fill="#000000" x="55.828838381974265" y="25.17220417636814" font-family="sans-serif">trek</text></g><g class="relationship" transform="translate(8.706583638327542 -57.32537405667856) rotate(194.1251373358058)"><path class="outline" fill="#A5ABB6" stroke="none" d="M 24.018736134675446,6.953439040707552 L 24.277555179777966,5.987513214418485 A 88.9156252772314 88.9156252772314 0 0 0 34.85875990247273,8.14386256211607 L 34.718943616330776,9.134040024053817 A 89.9156252772314 89.9156252772314 0 0 1 24.018736134675446,6.953439040707552 Z M 56.79463795978559,9.5135440685401 L 56.6889385830448,8.519145938133263 A 88.9156252772314 88.9156252772314 0 0 0 67.3380088427157,6.727767000698353 L 66.66161266246667,3.805013468950505 L 74.27049978016885,5.636634835408589 L 68.23987041638108,10.624771709695484 L 67.56347423613205,7.702018177947636 A 89.9156252772314 89.9156252772314 0 0 1 56.79463795978559,9.5135440685401"/><text text-anchor="middle" pointer-events="none" font-size="8px" fill="#000000" x="45.75369231052742" y="12.504030027664882" transform="rotate(180 45.75369231052742 9.504030027664882)" font-family="sans-serif">road</text></g><g class="relationship" transform="translate(-58.048203884588666 41.35113522098536) rotate(256.75561641225664)"><path class="outline" fill="#A5ABB6" stroke="none" d="M 25 0.5 L 49.88176451205408 0.5 L 49.88176451205408 -0.5 L 25 -0.5 Z M 69.21770201205408 0.5 L 94.09946652410817 0.5 L 94.09946652410817 3.5 L 101.09946652410817 0 L 94.09946652410817 -3.5 L 94.09946652410817 -0.5 L 69.21770201205408 -0.5 Z"/><text text-anchor="middle" pointer-events="none" font-size="8px" fill="#000000" x="59.54973326205408" y="3" transform="rotate(180 59.54973326205408 0)" font-family="sans-serif">trek</text></g><g class="relationship" transform="translate(-86.9382189382961 -81.39430252666061) rotate(523.104301880756)"><path class="outline" fill="#A5ABB6" stroke="none" d="M 25 0.5 L 40.0642391336943 0.5 L 40.0642391336943 -0.5 L 25 -0.5 Z M 62.0759578836943 0.5 L 77.1401970173886 0.5 L 77.1401970173886 3.5 L 84.1401970173886 0 L 77.1401970173886 -3.5 L 77.1401970173886 -0.5 L 62.0759578836943 -0.5 Z"/><text text-anchor="middle" pointer-events="none" font-size="8px" fill="#000000" x="51.0700985086943" y="3" transform="rotate(180 51.0700985086943 0)" font-family="sans-serif">road</text></g><g class="relationship" transform="translate(-86.9382189382961 -81.39430252666061) rotate(523.104301880756)"><path class="outline" fill="#A5ABB6" stroke="none" d="M 21.40063509461097,12.933012701892217 L 21.90063509461097,12.06698729810778 A 61.68307856232168 61.68307856232168 0 0 0 28.495427576135256,15.36557390281451 L 28.102341702914146,16.285075668051533 A 62.68307856232168 62.68307856232168 0 0 1 21.40063509461097,12.933012701892217 Z M 73.83760397786648,17.67457322119887 L 73.50106291948306,16.73290442803316 A 61.68307856232168 61.68307856232168 0 0 0 80.28393830399112,13.84074900666414 L 78.9444252039571,11.156404644471161 L 86.77066066578041,11.16260916695024 L 82.06995577070315,17.419874822921447 L 80.73044267066912,14.735530460728466 A 62.68307856232168 62.68307856232168 0 0 1 73.83760397786648,17.67457322119887"/><text text-anchor="middle" pointer-events="none" font-size="8px" fill="#000000" x="50.853841770990165" y="23.802274441212766" transform="rotate(180 50.853841770990165 20.802274441212766)" font-family="sans-serif">twowheeler</text></g><g class="relationship" transform="translate(-191.36742386511895 -49.674848506358835) rotate(442.29047095487687)"><path class="outline" fill="#A5ABB6" stroke="none" d="M 25 0.5 L 32.796682655837905 0.5 L 32.796682655837905 -0.5 L 25 -0.5 Z M 79.26152640583791 0.5 L 87.05820906167581 0.5 L 87.05820906167581 3.5 L 94.05820906167581 0 L 87.05820906167581 -3.5 L 87.05820906167581 -0.5 L 79.26152640583791 -0.5 Z"/><text text-anchor="middle" pointer-events="none" font-size="8px" fill="#000000" x="56.029104530837905" y="3" font-family="sans-serif">twowheeler</text></g><g class="relationship" transform="translate(-191.36742386511895 -49.674848506358835) rotate(442.29047095487687)"><path class="outline" fill="#A5ABB6" stroke="none" d="M 21.40063509461097,-12.933012701892217 L 21.90063509461097,-12.06698729810778 A 71.90563699125974 71.90563699125974 0 0 1 44.98244198876942,-20.539191066969565 L 44.803443343600115,-21.523040387255733 A 72.90563699125974 72.90563699125974 0 0 0 21.40063509461097,-12.933012701892217 Z M 66.87328214135489,-22.140401296323105 L 66.7495629212321,-21.14808403124495 A 71.90563699125974 71.90563699125974 0 0 1 90.26889171397282,-13.979456593632287 L 88.91647598635726,-11.301589588029127 L 96.74265068164947,-11.270131063463138 L 92.07211268412692,-17.5499459344365 L 90.71969695651136,-14.872078928833341 A 72.90563699125974 72.90563699125974 0 0 0 66.87328214135489,-22.140401296323105"/><text text-anchor="middle" pointer-events="none" font-size="8px" fill="#000000" x="55.82883838197428" y="-19.17220417636814" font-family="sans-serif">road</text></g><g class="relationship" transform="translate(-58.048203884588666 41.35113522098536) rotate(441.38113160576756)"><path class="outline" fill="#A5ABB6" stroke="none" d="M 24.018736134675446,-6.953439040707552 L 24.277555179777966,-5.987513214418485 A 176.9315350372336 176.9315350372336 0 0 1 58.29751364320307,-11.624168152665192 L 58.23097212768998,-12.621951809934245 A 177.9315350372336 177.9315350372336 0 0 0 24.018736134675446,-6.953439040707552 Z M 77.61038520989074,-12.856498188925997 L 77.56801172572068,-11.857396348351529 A 176.9315350372336 176.9315350372336 0 0 1 111.71442455100616,-7.045749654005637 L 111.00832738609537,-4.130029023748865 L 118.63545554909042,-5.8841430409232585 L 112.65588743755387,-10.933377161014667 L 111.94979027264309,-8.017656530757895 A 177.9315350372336 177.9315350372336 0 0 0 77.61038520989074,-12.856498188925997"/><text text-anchor="middle" pointer-events="none" font-size="8px" fill="#000000" x="67.92353384936449" y="-9.503315479068903" font-family="sans-serif">trek</text></g><g class="relationship" transform="translate(-36.62810986818169 182.6701307597393) rotate(486.5762989565326)"><path class="outline" fill="#A5ABB6" stroke="none" d="M 24.018736134675446,-6.953439040707552 L 24.277555179777966,-5.987513214418485 A 168.43912799453776 168.43912799453776 0 0 1 56.14404234874664,-11.318091901058665 L 56.074410267198104,-12.31566464187469 A 169.43912799453776 169.43912799453776 0 0 0 24.018736134675446,-6.953439040707552 Z M 75.45548682777819,-12.557183695851364 L 75.41073519648558,-11.55818555196089 A 168.43912799453776 168.43912799453776 0 0 1 107.40016108586964,-7.023353152399466 L 106.6961556903669,-4.107126754620476 L 114.32202357993773,-5.866711629189556 L 108.33883494653996,-10.911655016104785 L 107.63482955103721,-7.995428618325796 A 169.43912799453776 169.43912799453776 0 0 0 75.45548682777819,-12.557183695851364"/><text text-anchor="middle" pointer-events="none" font-size="8px" fill="#000000" x="65.76772253140271" y="-9.213821464269813" transform="rotate(180 65.76772253140271 -12.213821464269813)" font-family="sans-serif">trek</text></g><g class="relationship" transform="translate(-119.23309010621328 293.9940083727726) rotate(233.44098494898105)"><path class="outline" fill="#A5ABB6" stroke="none" d="M 24.018736134675446,6.953439040707552 L 24.277555179777966,5.987513214418485 A 139.91957549154586 139.91957549154586 0 0 0 48.935436950746414,10.277136363850559 L 48.85284686920631,11.27371996718307 A 140.91957549154586 140.91957549154586 0 0 1 24.018736134675446,6.953439040707552 Z M 68.2404522371859,11.541939142871541 L 68.18546309809358,10.543452190236763 A 139.91957549154586 139.91957549154586 0 0 0 92.95257533669493,6.937602560021683 L 92.25657903046672,4.01945432154635 L 99.87758727750874,5.799969218568417 L 93.88057041166587,10.828466877988793 L 93.18457410543766,7.91031863951346 A 140.91957549154586 140.91957549154586 0 0 1 68.2404522371859,11.541939142871541"/><text text-anchor="middle" pointer-events="none" font-size="8px" fill="#000000" x="58.548947590248154" y="14.241721239424265" transform="rotate(180 58.548947590248154 11.241721239424265)" font-family="sans-serif">trek</text></g><g class="relationship" transform="translate(-58.048203884588666 41.35113522098536) rotate(441.38113160576756)"><path class="outline" fill="#A5ABB6" stroke="none" d="M 24.018736134675446,6.953439040707552 L 24.277555179777966,5.987513214418485 A 176.9315350372336 176.9315350372336 0 0 0 44.84879364760688,10.209353057576948 L 44.70624126160219,11.19914031615545 A 177.9315350372336 177.9315350372336 0 0 1 24.018736134675446,6.953439040707552 Z M 91.16558961109011,11.761431438155313 L 91.04703399091835,10.768484025184364 A 176.9315350372336 176.9315350372336 0 0 0 111.71442455100616,7.045749654005637 L 111.00832738609537,4.130029023748865 L 118.63545554909042,5.8841430409232585 L 112.65588743755387,10.933377161014667 L 111.94979027264309,8.017656530757895 A 177.9315350372336 177.9315350372336 0 0 1 91.16558961109011,11.761431438155313"/><text text-anchor="middle" pointer-events="none" font-size="8px" fill="#000000" x="67.92353384936452" y="15.503315479068903" font-family="sans-serif">twowheeler</text></g><g class="relationship" transform="translate(-36.62810986818169 182.6701307597393) rotate(486.5762989565326)"><path class="outline" fill="#A5ABB6" stroke="none" d="M 24.018736134675446,6.953439040707552 L 24.277555179777966,5.987513214418485 A 168.43912799453776 168.43912799453776 0 0 0 42.70483986190732,9.836040018817783 L 42.555421078498895,10.824814020885384 A 169.43912799453776 169.43912799453776 0 0 1 24.018736134675446,6.953439040707552 Z M 89.0074288796454,11.403679954590473 L 88.8826960644771,10.41148958736241 A 168.43912799453776 168.43912799453776 0 0 0 107.40016108586964,7.023353152399466 L 106.6961556903669,4.107126754620476 L 114.32202357993773,5.866711629189556 L 108.33883494653996,10.911655016104785 L 107.63482955103721,7.995428618325796 A 169.43912799453776 169.43912799453776 0 0 1 89.0074288796454,11.403679954590473"/><text text-anchor="middle" pointer-events="none" font-size="8px" fill="#000000" x="65.7677225314027" y="15.213821464269813" transform="rotate(180 65.7677225314027 12.213821464269813)" font-family="sans-serif">twowheeler</text></g><g class="relationship" transform="translate(-36.62810986818169 182.6701307597393) rotate(438.1776816120344)"><path class="outline" fill="#A5ABB6" stroke="none" d="M 24.018736134675446,-6.953439040707552 L 24.277555179777966,-5.987513214418485 A 143.3776925427128 143.3776925427128 0 0 1 36.40553909594512,-8.67999056408317 L 36.2313077136867,-9.664695304315643 A 144.3776925427128 144.3776925427128 0 0 0 24.018736134675446,-6.953439040707552 Z M 82.650943099022,-10.298443745717208 L 82.50365919337261,-9.309349487753565 A 143.3776925427128 143.3776925427128 0 0 1 94.70062770164132,-6.948970840678502 L 94.00356957931805,-4.031076056060121 L 101.62522521947143,-5.808817686027263 L 95.63003853140569,-10.839497220169678 L 94.93298040908242,-7.921602435551296 A 144.3776925427128 144.3776925427128 0 0 0 82.650943099022,-10.298443745717208"/><text text-anchor="middle" pointer-events="none" font-size="8px" fill="#000000" x="59.422311953554036" y="-8.359582569748284" font-family="sans-serif">twowheeler</text></g><g class="relationship" transform="translate(-10.825650467734794 305.9396418771001) rotate(186.28816801229289)"><path class="outline" fill="#A5ABB6" stroke="none" d="M 21.40063509461097,12.933012701892217 L 21.90063509461097,12.06698729810778 A 61.603924808735535 61.603924808735535 0 0 0 40.00474651252636,18.99749951099158 L 39.79862570081061,19.976026061974046 A 62.603924808735535 62.603924808735535 0 0 1 21.40063509461097,12.933012701892217 Z M 61.86140652622356,20.646768334678043 L 61.71510884512408,19.657527722640253 A 61.603924808735535 61.603924808735535 0 0 0 80.20679282751833,13.839583647583419 L 78.86738813468749,11.155185191909837 L 86.69362333956182,11.161705773590379 L 81.99266575129279,17.41878158848153 L 80.65326105846195,14.734383132807947 A 62.603924808735535 62.603924808735535 0 0 1 61.86140652622356,20.646768334678043"/><text text-anchor="middle" pointer-events="none" font-size="8px" fill="#000000" x="50.8154151388628" y="23.79166826031878" transform="rotate(180 50.8154151388628 20.79166826031878)" font-family="sans-serif">road</text></g><g class="relationship" transform="translate(-36.62810986818169 182.6701307597393) rotate(438.1776816120344)"><path class="outline" fill="#A5ABB6" stroke="none" d="M 24.018736134675446,6.953439040707552 L 24.277555179777966,5.987513214418485 A 143.3776925427128 143.3776925427128 0 0 0 49.807329678847175,10.404663782771308 L 49.726570233158725,11.401397404122633 A 144.3776925427128 144.3776925427128 0 0 1 24.018736134675446,6.953439040707552 Z M 69.1132983552828,11.666076534608692 L 69.05977993726049,10.667509672084009 A 143.3776925427128 143.3776925427128 0 0 0 94.70062770164132,6.948970840678502 L 94.00356957931805,4.031076056060121 L 101.62522521947143,5.808817686027263 L 95.63003853140569,10.839497220169678 L 94.93298040908242,7.921602435551296 A 144.3776925427128 144.3776925427128 0 0 1 69.1132983552828,11.666076534608692"/><text text-anchor="middle" pointer-events="none" font-size="8px" fill="#000000" x="59.42231195355403" y="14.359582569748284" font-family="sans-serif">trek</text></g><g class="relationship" transform="translate(-10.825650467734794 305.9396418771001) rotate(186.28816801229289)"><path class="outline" fill="#A5ABB6" stroke="none" d="M 25 0.5 L 41.36383648508751 0.5 L 41.36383648508751 -0.5 L 25 -0.5 Z M 60.69977398508751 0.5 L 77.06361047017502 0.5 L 77.06361047017502 3.5 L 84.06361047017502 0 L 77.06361047017502 -3.5 L 77.06361047017502 -0.5 L 60.69977398508751 -0.5 Z"/><text text-anchor="middle" pointer-events="none" font-size="8px" fill="#000000" x="51.03180523508751" y="3" transform="rotate(180 51.03180523508751 0)" font-family="sans-serif">trek</text></g><g class="relationship" transform="translate(-10.825650467734794 305.9396418771001) rotate(186.28816801229289)"><path class="outline" fill="#A5ABB6" stroke="none" d="M 21.40063509461097,-12.933012701892217 L 21.90063509461097,-12.06698729810778 A 61.603924808735535 61.603924808735535 0 0 1 28.45885071619261,-15.349314006139082 L 28.065308472608997,-16.268620539627868 A 62.603924808735535 62.603924808735535 0 0 0 21.40063509461097,-12.933012701892217 Z M 73.79826811490224,-17.658972441806007 L 73.46129769842477,-16.717457206443882 A 61.603924808735535 61.603924808735535 0 0 1 80.20679282751833,-13.839583647583419 L 78.86738813468749,-11.155185191909837 L 86.69362333956182,-11.161705773590379 L 81.99266575129279,-17.41878158848153 L 80.65326105846195,-14.734383132807947 A 62.603924808735535 62.603924808735535 0 0 0 73.79826811490224,-17.658972441806007"/><text text-anchor="middle" pointer-events="none" font-size="8px" fill="#000000" x="50.81541513886279" y="-17.79166826031878" transform="rotate(180 50.81541513886279 -20.79166826031878)" font-family="sans-serif">twowheeler</text></g><g class="relationship" transform="translate(-119.23309010621328 293.9940083727726) rotate(233.44098494898105)"><path class="outline" fill="#A5ABB6" stroke="none" d="M 24.018736134675446,-6.953439040707552 L 24.277555179777966,-5.987513214418485 A 139.91957549154586 139.91957549154586 0 0 1 35.540274470277,-8.512481071878398 L 35.36194966088762,-9.496452749497337 A 140.91957549154586 140.91957549154586 0 0 0 24.018736134675446,-6.953439040707552 Z M 81.77535228851713,-10.138562198157786 L 81.62431616656866,-9.150033953813306 A 139.91957549154586 139.91957549154586 0 0 1 92.95257533669493,-6.937602560021683 L 92.25657903046672,-4.01945432154635 L 99.87758727750874,-5.799969218568417 L 93.88057041166587,-10.828466877988793 L 93.18457410543766,-7.91031863951346 A 140.91957549154586 140.91957549154586 0 0 0 81.77535228851713,-10.138562198157786"/><text text-anchor="middle" pointer-events="none" font-size="8px" fill="#000000" x="58.548947590248126" y="-8.241721239424265" transform="rotate(180 58.548947590248126 -11.241721239424265)" font-family="sans-serif">twowheeler</text></g><g class="relationship" transform="translate(-10.825650467734794 305.9396418771001) rotate(218.51340120113707)"><path class="outline" fill="#A5ABB6" stroke="none" d="M 25 0.5 L 40.28561550075955 0.5 L 40.28561550075955 -0.5 L 25 -0.5 Z M 59.62155300075955 0.5 L 74.9071685015191 0.5 L 74.9071685015191 3.5 L 81.9071685015191 0 L 74.9071685015191 -3.5 L 74.9071685015191 -0.5 L 59.62155300075955 -0.5 Z"/><text text-anchor="middle" pointer-events="none" font-size="8px" fill="#000000" x="49.95358425075955" y="3" transform="rotate(180 49.95358425075955 0)" font-family="sans-serif">trek</text></g><g class="relationship" transform="translate(-94.4765042580642 239.3687973792185) rotate(204.56651964473997)"><path class="outline" fill="#A5ABB6" stroke="none" d="M 25 0.5 L 41.1123734230835 0.5 L 41.1123734230835 -0.5 L 25 -0.5 Z M 60.4483109230835 0.5 L 76.560684346167 0.5 L 76.560684346167 3.5 L 83.560684346167 0 L 76.560684346167 -3.5 L 76.560684346167 -0.5 L 60.4483109230835 -0.5 Z"/><text text-anchor="middle" pointer-events="none" font-size="8px" fill="#000000" x="50.7803421730835" y="3" transform="rotate(180 50.7803421730835 0)" font-family="sans-serif">trek</text></g></g><g class="layer nodes"><g class="node" transform="translate(201.71922003203446,-95.8010787915357)"><circle class="outline" cx="0" cy="0" r="25" fill="#68BDF6" stroke="#5CA8DB" stroke-width="2px"/><text text-anchor="middle" pointer-events="none" font-family="sans-serif" dy="1.5625" font-size="25" fill="#FFFFFF"/><text text-anchor="middle" pointer-events="none" y="5" font-size="10px" fill="#FFFFFF" font-family="sans-serif"> Darjeeling</text></g><g class="node" transform="translate(259.4539421656983,10.110395850314502)"><circle class="outline" cx="0" cy="0" r="25" fill="#68BDF6" stroke="#5CA8DB" stroke-width="2px"/><text text-anchor="middle" pointer-events="none" font-family="sans-serif" dy="1.5625" font-size="25" fill="#FFFFFF"/><text text-anchor="middle" pointer-events="none" y="5" font-size="10px" fill="#FFFFFF" font-family="sans-serif"> Rimbik</text></g><g class="node" transform="translate(214.10973036475687,135.43096625292557)"><circle class="outline" cx="0" cy="0" r="25" fill="#6DCE9E" stroke="#60B58B" stroke-width="2px"/><text text-anchor="middle" pointer-events="none" font-family="sans-serif" dy="1.5625" font-size="25" fill="#FFFFFF"/><text text-anchor="middle" pointer-events="none" y="5" font-size="10px" fill="#FFFFFF" font-family="sans-serif"> Sirikhola</text></g><g class="node" transform="translate(204.73834379667304,268.38635765693624)"><circle class="outline" cx="0" cy="0" r="25" fill="#6DCE9E" stroke="#60B58B" stroke-width="2px"/><text text-anchor="middle" pointer-events="none" font-family="sans-serif" dy="1.5625" font-size="25" fill="#FFFFFF"/><text text-anchor="middle" pointer-events="none" y="5" font-size="10px" fill="#FFFFFF" font-family="sans-serif"> Rammam</text></g><g class="node" transform="translate(320.35979435054725,305.4250898857513)"><circle class="outline" cx="0" cy="0" r="25" fill="#FF756E" stroke="#E06760" stroke-width="2px"/><text text-anchor="middle" pointer-events="none" font-family="sans-serif" dy="1.5625" font-size="25" fill="#FFFFFF"/><text text-anchor="middle" pointer-events="none" y="5" font-size="10px" fill="#FFFFFF" font-family="sans-serif"> Sabargr…</text></g><g class="node" transform="translate(390.30517975084433,198.32110408096236)"><circle class="outline" cx="0" cy="0" r="25" fill="#FF756E" stroke="#E06760" stroke-width="2px"/><text text-anchor="middle" pointer-events="none" font-family="sans-serif" dy="1.5625" font-size="25" fill="#FFFFFF"/><text text-anchor="middle" pointer-events="none" y="5" font-size="10px" fill="#FFFFFF" font-family="sans-serif"> Sandak…</text></g><g class="node" transform="translate(369.10081162451894,70.37307137660113)"><circle class="outline" cx="0" cy="0" r="25" fill="#6DCE9E" stroke="#60B58B" stroke-width="2px"/><text text-anchor="middle" pointer-events="none" font-family="sans-serif" dy="1.5625" font-size="25" fill="#FFFFFF"/><text text-anchor="middle" pointer-events="none" y="5" font-size="10px" fill="#FFFFFF" font-family="sans-serif"> BhikeBh…</text></g><g class="node" transform="translate(301.6032718826791,-103.83643736236056)"><circle class="outline" cx="0" cy="0" r="25" fill="#6DCE9E" stroke="#60B58B" stroke-width="2px"/><text text-anchor="middle" pointer-events="none" font-family="sans-serif" dy="1.5625" font-size="25" fill="#FFFFFF"/><text text-anchor="middle" pointer-events="none" y="5" font-size="10px" fill="#FFFFFF" font-family="sans-serif"> Tumbling</text></g><g class="node" transform="translate(395.8957622238202,-44.29129481446729)"><circle class="outline" cx="0" cy="0" r="25" fill="#6DCE9E" stroke="#60B58B" stroke-width="2px"/><text text-anchor="middle" pointer-events="none" font-family="sans-serif" dy="1.5625" font-size="25" fill="#FFFFFF"/><text text-anchor="middle" pointer-events="none" y="5" font-size="10px" fill="#FFFFFF" font-family="sans-serif"> Gairibus</text></g><g class="node" transform="translate(286.52758607254634,215.47779171486664)"><circle class="outline" cx="0" cy="0" r="25" fill="#6DCE9E" stroke="#60B58B" stroke-width="2px"/><text text-anchor="middle" pointer-events="none" font-family="sans-serif" dy="1.5625" font-size="25" fill="#FFFFFF"/><text text-anchor="middle" pointer-events="none" y="5" font-size="10px" fill="#FFFFFF" font-family="sans-serif"> Gurdum</text></g><g class="node" transform="translate(8.706583638327542,-57.32537405667856)"><circle class="outline" cx="0" cy="0" r="25" fill="#68BDF6" stroke="#5CA8DB" stroke-width="2px"/><text text-anchor="middle" pointer-events="none" font-family="sans-serif" dy="1.5625" font-size="25" fill="#FFFFFF"/><text text-anchor="middle" pointer-events="none" y="5" font-size="10px" fill="#FFFFFF" font-family="sans-serif"> Darjeeling</text></g><g class="node" transform="translate(-58.048203884588666,41.35113522098536)"><circle class="outline" cx="0" cy="0" r="25" fill="#68BDF6" stroke="#5CA8DB" stroke-width="2px"/><text text-anchor="middle" pointer-events="none" font-family="sans-serif" dy="1.5625" font-size="25" fill="#FFFFFF"/><text text-anchor="middle" pointer-events="none" y="5" font-size="10px" fill="#FFFFFF" font-family="sans-serif"> Rimbik</text></g><g class="node" transform="translate(-175.39564639900064,68.30718177599601)"><circle class="outline" cx="0" cy="0" r="25" fill="#6DCE9E" stroke="#60B58B" stroke-width="2px"/><text text-anchor="middle" pointer-events="none" font-family="sans-serif" dy="1.5625" font-size="25" fill="#FFFFFF"/><text text-anchor="middle" pointer-events="none" y="5" font-size="10px" fill="#FFFFFF" font-family="sans-serif"> BhikeBh…</text></g><g class="node" transform="translate(-193.2101890790098,194.2347562640438)"><circle class="outline" cx="0" cy="0" r="25" fill="#FF756E" stroke="#E06760" stroke-width="2px"/><text text-anchor="middle" pointer-events="none" font-family="sans-serif" dy="1.5625" font-size="25" fill="#FFFFFF"/><text text-anchor="middle" pointer-events="none" y="5" font-size="10px" fill="#FFFFFF" font-family="sans-serif"> Sandak…</text></g><g class="node" transform="translate(-86.9382189382961,-81.39430252666061)"><circle class="outline" cx="0" cy="0" r="25" fill="#6DCE9E" stroke="#60B58B" stroke-width="2px"/><text text-anchor="middle" pointer-events="none" font-family="sans-serif" dy="1.5625" font-size="25" fill="#FFFFFF"/><text text-anchor="middle" pointer-events="none" y="5" font-size="10px" fill="#FFFFFF" font-family="sans-serif"> Tumbling</text></g><g class="node" transform="translate(-191.36742386511895,-49.674848506358835)"><circle class="outline" cx="0" cy="0" r="25" fill="#6DCE9E" stroke="#60B58B" stroke-width="2px"/><text text-anchor="middle" pointer-events="none" font-family="sans-serif" dy="1.5625" font-size="25" fill="#FFFFFF"/><text text-anchor="middle" pointer-events="none" y="5" font-size="10px" fill="#FFFFFF" font-family="sans-serif"> Gairibus</text></g><g class="node" transform="translate(-36.62810986818169,182.6701307597393)"><circle class="outline" cx="0" cy="0" r="25" fill="#6DCE9E" stroke="#60B58B" stroke-width="2px"/><text text-anchor="middle" pointer-events="none" font-family="sans-serif" dy="1.5625" font-size="25" fill="#FFFFFF"/><text text-anchor="middle" pointer-events="none" y="5" font-size="10px" fill="#FFFFFF" font-family="sans-serif"> Sirikhola</text></g><g class="node" transform="translate(-119.23309010621328,293.9940083727726)"><circle class="outline" cx="0" cy="0" r="25" fill="#6DCE9E" stroke="#60B58B" stroke-width="2px"/><text text-anchor="middle" pointer-events="none" font-family="sans-serif" dy="1.5625" font-size="25" fill="#FFFFFF"/><text text-anchor="middle" pointer-events="none" y="5" font-size="10px" fill="#FFFFFF" font-family="sans-serif"> Gurdum</text></g><g class="node" transform="translate(-10.825650467734794,305.9396418771001)"><circle class="outline" cx="0" cy="0" r="25" fill="#6DCE9E" stroke="#60B58B" stroke-width="2px"/><text text-anchor="middle" pointer-events="none" font-family="sans-serif" dy="1.5625" font-size="25" fill="#FFFFFF"/><text text-anchor="middle" pointer-events="none" y="5" font-size="10px" fill="#FFFFFF" font-family="sans-serif"> Rammam</text></g><g class="node" transform="translate(-94.4765042580642,239.3687973792185)"><circle class="outline" cx="0" cy="0" r="25" fill="#FF756E" stroke="#E06760" stroke-width="2px"/><text text-anchor="middle" pointer-events="none" font-family="sans-serif" dy="1.5625" font-size="25" fill="#FFFFFF"/><text text-anchor="middle" pointer-events="none" y="5" font-size="10px" fill="#FFFFFF" font-family="sans-serif"> Sabargr…</text></g></g></svg>