<svg xmlns="http://www.w3.org/2000/svg" width="619.9000854492188" height="694.4376220703125" viewBox="-188.67918395996094 -249.32827758789062 619.9000854492188 694.4376220703125"><title>Neo4j Graph Visualization</title><desc>Created using Neo4j (http://www.neo4j.com/)</desc><g class="layer relationships"><g class="relationship" transform="translate(402.22086425875284 256.9082053736405) rotate(245.67796115880373)"><path class="outline" fill="#A5ABB6" stroke="none" d="M 24.018736134675446,-6.953439040707552 L 24.277555179777966,-5.987513214418485 A 96.62853263004479 96.62853263004479 0 0 1 38.09127445297791,-8.629287232577909 L 37.975412347168756,-9.622552540759699 A 97.62853263004479 97.62853263004479 0 0 0 24.018736134675446,-6.953439040707552 Z M 57.3761413409444,-9.944343555683403 L 57.29328358001857,-8.947782171997304 A 96.62853263004479 96.62853263004479 0 0 1 71.1870159560249,-6.765578976666654 L 70.50708771013726,-3.8436450998576395 L 78.11818304289388,-5.666068715730329 L 72.09358695054175,-10.661490812412007 L 71.41365870465411,-7.739556935602992 A 97.62853263004479 97.62853263004479 0 0 0 57.3761413409444,-9.944343555683403"/><text text-anchor="middle" pointer-events="none" font-size="8px" fill="#000000" x="47.67605475740281" y="-6.766692696878906" transform="rotate(180 47.67605475740281 -9.766692696878906)" font-family="sans-serif">trek</text></g><g class="relationship" transform="translate(360.0180432722021 163.535096226491) rotate(515.6150151642901)"><path class="outline" fill="#A5ABB6" stroke="none" d="M 21.40063509461097,-12.933012701892217 L 21.90063509461097,-12.06698729810778 A 64.81910250132134 64.81910250132134 0 0 1 29.95067618595902,-15.999712286743247 L 29.574868604253982,-16.926410005275564 A 65.81910250132134 65.81910250132134 0 0 0 21.40063509461097,-12.933012701892217 Z M 75.39437037250946,-18.28271109297443 L 75.07403504088116,-17.33540687820993 A 64.81910250132134 64.81910250132134 0 0 1 83.3426023402348,-13.885728309895304 L 81.99890511790572,-11.203475940205774 L 89.82514073989856,-11.197476852742367 L 85.13419863667359,-17.46206480281468 L 83.7905014143445,-14.77981243312515 A 65.81910250132134 65.81910250132134 0 0 0 75.39437037250946,-18.28271109297443"/><text text-anchor="middle" pointer-events="none" font-size="8px" fill="#000000" x="52.37752495031266" y="-18.222502332796893" transform="rotate(180 52.37752495031266 -21.222502332796893)" font-family="sans-serif">twowheeler</text></g><g class="relationship" transform="translate(257.84791943015875 209.84923904807297) rotate(466.06532855925155)"><path class="outline" fill="#A5ABB6" stroke="none" d="M 21.40063509461097,12.933012701892217 L 21.90063509461097,12.06698729810778 A 93.8106594663043 93.8106594663043 0 0 0 43.76354165676551,21.230971452128287 L 43.49659519979073,22.194682814056023 A 94.8106594663043 94.8106594663043 0 0 1 21.40063509461097,12.933012701892217 Z M 89.72359217297623,23.298969590435703 L 89.50296690295954,22.323610943460096 A 93.8106594663043 93.8106594663043 0 0 0 111.77851066873434,14.214021628353617 L 110.40427837726197,11.547284744243266 L 118.2299354469039,11.451935762269805 L 113.6108203906975,17.769670807167422 L 112.23658809922513,15.10293392305707 A 94.8106594663043 94.8106594663043 0 0 1 89.72359217297623,23.298969590435703"/><text text-anchor="middle" pointer-events="none" font-size="8px" fill="#000000" x="66.55368114046068" y="28.10833468482717" transform="rotate(180 66.55368114046068 25.10833468482717)" font-family="sans-serif">twowheeler</text></g><g class="relationship" transform="translate(218.97998168869748 344.81685138465997) rotate(506.6721130678131)"><path class="outline" fill="#A5ABB6" stroke="none" d="M 25 0.5 L 51.71067593760357 0.5 L 51.71067593760357 -0.5 L 25 -0.5 Z M 71.04661343760357 0.5 L 97.75728937520714 0.5 L 97.75728937520714 3.5 L 104.75728937520714 0 L 97.75728937520714 -3.5 L 97.75728937520714 -0.5 L 71.04661343760357 -0.5 Z"/><text text-anchor="middle" pointer-events="none" font-size="8px" fill="#000000" x="61.37864468760357" y="3" transform="rotate(180 61.37864468760357 0)" font-family="sans-serif">trek</text></g><g class="relationship" transform="translate(257.84791943015875 209.84923904807297) rotate(466.06532855925155)"><path class="outline" fill="#A5ABB6" stroke="none" d="M 25 0.5 L 55.72051203224511 0.5 L 55.72051203224511 -0.5 L 25 -0.5 Z M 77.73223078224511 0.5 L 108.45274281449022 0.5 L 108.45274281449022 3.5 L 115.45274281449022 0 L 108.45274281449022 -3.5 L 108.45274281449022 -0.5 L 77.73223078224511 -0.5 Z"/><text text-anchor="middle" pointer-events="none" font-size="8px" fill="#000000" x="66.72637140724511" y="3" transform="rotate(180 66.72637140724511 0)" font-family="sans-serif">road</text></g><g class="relationship" transform="translate(257.84791943015875 209.84923904807297) rotate(466.06532855925155)"><path class="outline" fill="#A5ABB6" stroke="none" d="M 21.40063509461097,-12.933012701892217 L 21.90063509461097,-12.06698729810778 A 93.8106594663043 93.8106594663043 0 0 1 56.980242639321645,-23.88687543429232 L 56.854183167447985,-24.8788981202985 A 94.8106594663043 94.8106594663043 0 0 0 21.40063509461097,-12.933012701892217 Z M 76.25307079586553,-25.342305576702458 L 76.17452365770593,-24.345395175970808 A 93.8106594663043 93.8106594663043 0 0 1 111.77851066873434,-14.214021628353617 L 110.40427837726197,-11.547284744243266 L 118.2299354469039,-11.451935762269805 L 113.6108203906975,-17.769670807167422 L 112.23658809922513,-15.10293392305707 A 94.8106594663043 94.8106594663043 0 0 0 76.25307079586553,-25.342305576702458"/><text text-anchor="middle" pointer-events="none" font-size="8px" fill="#000000" x="66.55368114046067" y="-22.10833468482717" transform="rotate(180 66.55368114046067 -25.10833468482717)" font-family="sans-serif">trek</text></g><g class="relationship" transform="translate(360.0180432722021 163.535096226491) rotate(515.6150151642901)"><path class="outline" fill="#A5ABB6" stroke="none" d="M 25 0.5 L 41.58276253532234 0.5 L 41.58276253532234 -0.5 L 25 -0.5 Z M 63.59448128532234 0.5 L 80.17724382064468 0.5 L 80.17724382064468 3.5 L 87.17724382064468 0 L 80.17724382064468 -3.5 L 80.17724382064468 -0.5 L 63.59448128532234 -0.5 Z"/><text text-anchor="middle" pointer-events="none" font-size="8px" fill="#000000" x="52.58862191032234" y="3" transform="rotate(180 52.58862191032234 0)" font-family="sans-serif">road</text></g><g class="relationship" transform="translate(360.0180432722021 163.535096226491) rotate(515.6150151642901)"><path class="outline" fill="#A5ABB6" stroke="none" d="M 21.40063509461097,12.933012701892217 L 21.90063509461097,12.06698729810778 A 64.81910250132134 64.81910250132134 0 0 0 42.858501757089684,19.731488233414176 L 42.681830310768,20.715758115130868 A 65.81910250132134 65.81910250132134 0 0 1 21.40063509461097,12.933012701892217 Z M 62.08621737036483,21.290146536204773 L 61.968074905190115,20.297149880660328 A 64.81910250132134 64.81910250132134 0 0 0 83.3426023402348,13.885728309895304 L 81.99890511790572,11.203475940205774 L 89.82514073989856,11.197476852742367 L 85.13419863667359,17.46206480281468 L 83.7905014143445,14.77981243312515 A 65.81910250132134 65.81910250132134 0 0 1 62.08621737036483,21.290146536204773"/><text text-anchor="middle" pointer-events="none" font-size="8px" fill="#000000" x="52.37752495031266" y="24.222502332796893" transform="rotate(180 52.37752495031266 21.222502332796893)" font-family="sans-serif">trek</text></g><g class="relationship" transform="translate(402.22086425875284 256.9082053736405) rotate(245.67796115880373)"><path class="outline" fill="#A5ABB6" stroke="none" d="M 24.018736134675446,6.953439040707552 L 24.277555179777966,5.987513214418485 A 96.62853263004479 96.62853263004479 0 0 0 36.77033882954124,8.465974222025153 L 36.64080647968011,9.45754941853798 A 97.62853263004479 97.62853263004479 0 0 1 24.018736134675446,6.953439040707552 Z M 58.71548523163034,9.823692014622054 L 58.6189086955206,8.828366453474828 A 96.62853263004479 96.62853263004479 0 0 0 71.1870159560249,6.765578976666654 L 70.50708771013726,3.8436450998576395 L 78.11818304289388,5.666068715730329 L 72.09358695054175,10.661490812412007 L 71.41365870465411,7.739556935602992 A 97.62853263004479 97.62853263004479 0 0 1 58.71548523163034,9.823692014622054"/><text text-anchor="middle" pointer-events="none" font-size="8px" fill="#000000" x="47.67605475740284" y="12.766692696878906" transform="rotate(180 47.67605475740284 9.766692696878906)" font-family="sans-serif">road</text></g><g class="relationship" transform="translate(211.3563126211866 -31.07266905073676) rotate(265.7363240586887)"><path class="outline" fill="#A5ABB6" stroke="none" d="M 24.018736134675446,-6.953439040707552 L 24.277555179777966,-5.987513214418485 A 88.01348310723978 88.01348310723978 0 0 1 35.95406888119402,-8.283356676837386 L 35.82791716488235,-9.275367636691968 A 89.01348310723978 89.01348310723978 0 0 0 24.018736134675446,-6.953439040707552 Z M 55.231547666110956,-9.610361775457207 L 55.139714085994534,-8.614587406655218 A 88.01348310723978 88.01348310723978 0 0 1 66.88851877776763,-6.723170546769848 L 66.21255196300596,-3.800317682641898 L 73.82116992985979,-5.633056789680604 L 67.78980786411653,-10.620307698940447 L 67.11384104935486,-7.697454834812498 A 89.01348310723978 89.01348310723978 0 0 0 55.231547666110956,-9.610361775457207"/><text text-anchor="middle" pointer-events="none" font-size="8px" fill="#000000" x="45.52920676541739" y="-6.4733115668719705" transform="rotate(180 45.52920676541739 -9.47331156687197)" font-family="sans-serif">trek</text></g><g class="relationship" transform="translate(204.05709918719097 -128.97923463058893) rotate(237.20764709585916)"><path class="outline" fill="#A5ABB6" stroke="none" d="M 21.40063509461097,-12.933012701892217 L 21.90063509461097,-12.06698729810778 A 61.193151498230534 61.193151498230534 0 0 1 41.10816487836405,-19.19613068332154 L 40.92204852896029,-20.178658395136644 A 62.193151498230534 62.193151498230534 0 0 0 21.40063509461097,-12.933012701892217 Z M 60.3259832422852,-20.7706109990149 L 60.20010487449125,-19.778565316336156 A 61.193151498230534 61.193151498230534 0 0 1 79.8064870150172,-13.833511476347484 L 78.46764718559214,-11.148831251228472 L 86.29388084519907,-11.156998578542177 L 81.59160678758394,-17.4130851098395 L 80.25276695815889,-14.728404884720488 A 62.193151498230534 62.193151498230534 0 0 0 60.3259832422852,-20.7706109990149"/><text text-anchor="middle" pointer-events="none" font-size="8px" fill="#000000" x="50.61602332406392" y="-17.73662719725833" transform="rotate(180 50.61602332406392 -20.73662719725833)" font-family="sans-serif">trek</text></g><g class="relationship" transform="translate(145.2039093293378 -220.32828254661277) rotate(513.6397334428145)"><path class="outline" fill="#A5ABB6" stroke="none" d="M 21.40063509461097,12.933012701892217 L 21.90063509461097,12.06698729810778 A 71.6972164023095 71.6972164023095 0 0 0 46.19057393486563,20.7347434014618 L 46.02935889834258,21.72166270515328 A 72.6972164023095 72.6972164023095 0 0 1 21.40063509461097,12.933012701892217 Z M 65.4334551575558,22.265335433437457 L 65.32775356068494,21.27093753902146 A 71.6972164023095 71.6972164023095 0 0 0 90.06491868256593,13.976844966032065 L 88.71274587830518,11.29885528953635 L 96.53892339509939,11.26810670217293 L 91.86781575491361,17.547497868026348 L 90.51564295065286,14.869508191530635 A 72.6972164023095 72.6972164023095 0 0 1 65.4334551575558,22.265335433437457"/><text text-anchor="middle" pointer-events="none" font-size="8px" fill="#000000" x="55.72718263281675" y="25.144270968495405" transform="rotate(180 55.72718263281675 22.144270968495405)" font-family="sans-serif">trek</text></g><g class="relationship" transform="translate(38.70701365973208 -167.5547849216507) rotate(528.6274919903299)"><path class="outline" fill="#A5ABB6" stroke="none" d="M 25 0.5 L 50.04392791854365 0.5 L 50.04392791854365 -0.5 L 25 -0.5 Z M 69.37986541854366 0.5 L 94.4237933370873 0.5 L 94.4237933370873 3.5 L 101.4237933370873 0 L 94.4237933370873 -3.5 L 94.4237933370873 -0.5 L 69.37986541854366 -0.5 Z"/><text text-anchor="middle" pointer-events="none" font-size="8px" fill="#000000" x="59.71189666854365" y="3" transform="rotate(180 59.71189666854365 0)" font-family="sans-serif">trek</text></g><g class="relationship" transform="translate(145.2039093293378 -220.32828254661277) rotate(513.6397334428145)"><path class="outline" fill="#A5ABB6" stroke="none" d="M 25 0.5 L 32.69533014128184 0.5 L 32.69533014128184 -0.5 L 25 -0.5 Z M 79.16017389128184 0.5 L 86.85550403256369 0.5 L 86.85550403256369 3.5 L 93.85550403256369 0 L 86.85550403256369 -3.5 L 86.85550403256369 -0.5 L 79.16017389128184 -0.5 Z"/><text text-anchor="middle" pointer-events="none" font-size="8px" fill="#000000" x="55.92775201628184" y="3" transform="rotate(180 55.92775201628184 0)" font-family="sans-serif">twowheeler</text></g><g class="relationship" transform="translate(145.2039093293378 -220.32828254661277) rotate(513.6397334428145)"><path class="outline" fill="#A5ABB6" stroke="none" d="M 21.40063509461097,-12.933012701892217 L 21.90063509461097,-12.06698729810778 A 71.6972164023095 71.6972164023095 0 0 1 44.881387791550736,-20.508412280455545 L 44.70191282515859,-21.49217482113218 A 72.6972164023095 72.6972164023095 0 0 0 21.40063509461097,-12.933012701892217 Z M 66.77166838882462,-22.110535195126204 L 66.64755875245108,-21.11826668400674 A 71.6972164023095 71.6972164023095 0 0 1 90.06491868256593,-13.976844966032065 L 88.71274587830518,-11.29885528953635 L 96.53892339509939,-11.26810670217293 L 91.86781575491361,-17.547497868026348 L 90.51564295065286,-14.869508191530635 A 72.6972164023095 72.6972164023095 0 0 0 66.77166838882462,-22.110535195126204"/><text text-anchor="middle" pointer-events="none" font-size="8px" fill="#000000" x="55.72718263281677" y="-19.144270968495405" transform="rotate(180 55.72718263281677 -22.144270968495405)" font-family="sans-serif">road</text></g><g class="relationship" transform="translate(204.05709918719097 -128.97923463058893) rotate(237.20764709585916)"><path class="outline" fill="#A5ABB6" stroke="none" d="M 25 0.5 L 39.82724865226209 0.5 L 39.82724865226209 -0.5 L 25 -0.5 Z M 61.83896740226209 0.5 L 76.66621605452418 0.5 L 76.66621605452418 3.5 L 83.66621605452418 0 L 76.66621605452418 -3.5 L 76.66621605452418 -0.5 L 61.83896740226209 -0.5 Z"/><text text-anchor="middle" pointer-events="none" font-size="8px" fill="#000000" x="50.83310802726209" y="3" transform="rotate(180 50.83310802726209 0)" font-family="sans-serif">road</text></g><g class="relationship" transform="translate(204.05709918719097 -128.97923463058893) rotate(237.20764709585916)"><path class="outline" fill="#A5ABB6" stroke="none" d="M 21.40063509461097,12.933012701892217 L 21.90063509461097,12.06698729810778 A 61.193151498230534 61.193151498230534 0 0 0 28.26916238290089,15.264720526235408 L 27.87323493239974,16.18300232064258 A 62.193151498230534 62.193151498230534 0 0 1 21.40063509461097,12.933012701892217 Z M 73.59409417715997,17.577800957173835 L 73.25487863935219,16.637092278086747 A 61.193151498230534 61.193151498230534 0 0 0 79.8064870150172,13.833511476347484 L 78.46764718559214,11.148831251228472 L 86.29388084519907,11.156998578542177 L 81.59160678758394,17.4130851098395 L 80.25276695815889,14.728404884720488 A 62.193151498230534 62.193151498230534 0 0 1 73.59409417715997,17.577800957173835"/><text text-anchor="middle" pointer-events="none" font-size="8px" fill="#000000" x="50.61602332406392" y="23.73662719725833" transform="rotate(180 50.61602332406392 20.73662719725833)" font-family="sans-serif">twowheeler</text></g><g class="relationship" transform="translate(211.3563126211866 -31.07266905073676) rotate(265.7363240586887)"><path class="outline" fill="#A5ABB6" stroke="none" d="M 24.018736134675446,6.953439040707552 L 24.277555179777966,5.987513214418485 A 88.01348310723978 88.01348310723978 0 0 0 34.63568245707646,8.105565716679905 L 34.49455137195023,9.095556634219605 A 89.01348310723978 89.01348310723978 0 0 1 24.018736134675446,6.953439040707552 Z M 56.57032568825598,9.476684021911211 L 56.46345193697209,8.48241142282859 A 88.01348310723978 88.01348310723978 0 0 0 66.88851877776763,6.723170546769848 L 66.21255196300596,3.800317682641898 L 73.82116992985979,5.633056789680604 L 67.78980786411653,10.620307698940447 L 67.11384104935486,7.697454834812498 A 89.01348310723978 89.01348310723978 0 0 1 56.57032568825598,9.476684021911211"/><text text-anchor="middle" pointer-events="none" font-size="8px" fill="#000000" x="45.5292067654174" y="12.47331156687197" transform="rotate(180 45.5292067654174 9.47331156687197)" font-family="sans-serif">road</text></g><g class="relationship" transform="translate(402.22086425875284 256.9082053736405) rotate(537.1115975254381)"><path class="outline" fill="#A5ABB6" stroke="none" d="M 21.40063509461097,12.933012701892217 L 21.90063509461097,12.06698729810778 A 69.03785730901139 69.03785730901139 0 0 0 44.90057293728334,20.348549622169685 L 44.73372258501539,21.334531853220554 A 70.03785730901139 70.03785730901139 0 0 1 21.40063509461097,12.933012701892217 Z M 64.13807098205555,21.889698873057384 L 64.0278661938239,20.895789971471928 A 69.03785730901139 69.03785730901139 0 0 0 87.46367205776565,13.942774884349992 L 86.11466835811302,11.263187412681358 L 93.94087677493457,11.241697497105287 L 89.2623436573025,17.515558179908172 L 87.91333995764987,14.835970708239538 A 70.03785730901139 70.03785730901139 0 0 1 64.13807098205555,21.889698873057384"/><text text-anchor="middle" pointer-events="none" font-size="8px" fill="#000000" x="54.43086855282805" y="24.787863447915683" transform="rotate(180 54.43086855282805 21.787863447915683)" font-family="sans-serif">trek</text></g><g class="relationship" transform="translate(286.0978048925213 262.76718066360246) rotate(489.283665093439)"><path class="outline" fill="#A5ABB6" stroke="none" d="M 25 0.5 L 39.834273318269425 0.5 L 39.834273318269425 -0.5 L 25 -0.5 Z M 59.170210818269425 0.5 L 74.00448413653885 0.5 L 74.00448413653885 3.5 L 81.00448413653885 0 L 74.00448413653885 -3.5 L 74.00448413653885 -0.5 L 59.170210818269425 -0.5 Z"/><text text-anchor="middle" pointer-events="none" font-size="8px" fill="#000000" x="49.502242068269425" y="3" transform="rotate(180 49.502242068269425 0)" font-family="sans-serif">trek</text></g><g class="relationship" transform="translate(286.0978048925213 262.76718066360246) rotate(186.918719897475)"><path class="outline" fill="#A5ABB6" stroke="none" d="M 24.018736134675446,-6.953439040707552 L 24.277555179777966,-5.987513214418485 A 190.03823254250014 190.03823254250014 0 0 1 48.164998454643104,-10.771530525096978 L 48.031877501736446,-11.762630324258112 A 191.03823254250014 191.03823254250014 0 0 0 24.018736134675446,-6.953439040707552 Z M 94.50018345414864,-12.301073348725481 L 94.39006353671238,-11.307155040319884 A 190.03823254250014 190.03823254250014 0 0 1 118.38194610629233,-7.077930689891462 L 117.67284336766028,-4.162939556789248 L 125.30177587330283,-5.909189488600383 L 119.3274164244684,-10.964585534027748 L 118.61831368583634,-8.049594400925534 A 191.03823254250014 191.03823254250014 0 0 0 94.50018345414864,-12.301073348725481"/><text text-anchor="middle" pointer-events="none" font-size="8px" fill="#000000" x="71.25539022627973" y="-9.950118853075281" transform="rotate(180 71.25539022627973 -12.950118853075281)" font-family="sans-serif">twowheeler</text></g><g class="relationship" transform="translate(137.59376956320966 244.7469854728615) rotate(492.4763617684621)"><path class="outline" fill="#A5ABB6" stroke="none" d="M 24.018736134675446,-6.953439040707552 L 24.277555179777966,-5.987513214418485 A 113.0638919502632 113.0638919502632 0 0 1 42.1904191350969,-9.268917789341515 L 42.09003143041913,-10.263866184359827 A 114.0638919502632 114.0638919502632 0 0 0 24.018736134675446,-6.953439040707552 Z M 61.48534322264227,-10.563056165307174 L 61.415691912688835,-9.565484766849025 A 113.0638919502632 113.0638919502632 0 0 1 79.42124597194045,-6.838153821500091 L 78.73453861217419,-3.9178057254603647 L 86.34984275599419,-5.722561331385452 L 80.33685578496213,-10.731951282886394 L 79.65014842519587,-7.811603186846668 A 114.0638919502632 114.0638919502632 0 0 0 61.48534322264227,-10.563056165307174"/><text text-anchor="middle" pointer-events="none" font-size="8px" fill="#000000" x="51.78902781463542" y="-7.326562593997096" transform="rotate(180 51.78902781463542 -10.326562593997096)" font-family="sans-serif">trek</text></g><g class="relationship" transform="translate(62.849014175754256 326.3841654786215) rotate(421.9970956685672)"><path class="outline" fill="#A5ABB6" stroke="none" d="M 24.018736134675446,6.953439040707552 L 24.277555179777966,5.987513214418485 A 94.93387715315772 94.93387715315772 0 0 0 24.428444696317655,6.027810940720798 L 24.171215068197398,6.994161249054741 A 95.93387715315772 95.93387715315772 0 0 1 24.018736134675446,6.953439040707552 Z M 70.41305822245229,7.767132181922918 L 70.18826998028017,6.792724543313085 A 94.93387715315772 94.93387715315772 0 0 0 70.34042204135721,6.757492409447637 L 69.66124916629666,3.83538286225712 L 77.27187313064519,5.659773958838066 L 71.2459858747713,10.653638472368325 L 70.56681299971075,7.731528925177808 A 95.93387715315772 95.93387715315772 0 0 1 70.41305822245229,7.767132181922918"/><text text-anchor="middle" pointer-events="none" font-size="8px" fill="#000000" x="47.25321667479056" y="12.70897640614919" font-family="sans-serif">twowheeler</text></g><g class="relationship" transform="translate(62.849014175754256 326.3841654786215) rotate(421.9970956685672)"><path class="outline" fill="#A5ABB6" stroke="none" d="M 24.018736134675446,-6.953439040707552 L 24.277555179777966,-5.987513214418485 A 94.93387715315772 94.93387715315772 0 0 1 37.670174979400244,-8.561923405551724 L 37.55242907068734,-9.554967161375899 A 95.93387715315772 95.93387715315772 0 0 0 24.018736134675446,-6.953439040707552 Z M 56.95373197041947,-9.879276102765573 L 56.86924167774589,-8.88285180035021 A 94.93387715315772 94.93387715315772 0 0 1 70.34042204135721,-6.757492409447637 L 69.66124916629666,-3.83538286225712 L 77.27187313064519,-5.659773958838066 L 71.2459858747713,-10.653638472368325 L 70.56681299971075,-7.731528925177808 A 95.93387715315772 95.93387715315772 0 0 0 56.95373197041947,-9.879276102765573"/><text text-anchor="middle" pointer-events="none" font-size="8px" fill="#000000" x="47.25321667479055" y="-6.7089764061491906" font-family="sans-serif">trek</text></g><g class="relationship" transform="translate(137.59376956320966 244.7469854728615) rotate(492.4763617684621)"><path class="outline" fill="#A5ABB6" stroke="none" d="M 24.018736134675446,6.953439040707552 L 24.277555179777966,5.987513214418485 A 113.0638919502632 113.0638919502632 0 0 0 28.86670363382912,7.114932639342655 L 28.648473572308287,8.090829990629473 A 114.0638919502632 114.0638919502632 0 0 1 24.018736134675446,6.953439040707552 Z M 74.98753163943357,8.8056512860407 L 74.79950642354083,7.823487084805237 A 113.0638919502632 113.0638919502632 0 0 0 79.42124597194045,6.838153821500091 L 78.73453861217419,3.9178057254603647 L 86.34984275599419,5.722561331385452 L 80.33685578496213,10.731951282886394 L 79.65014842519587,7.811603186846668 A 114.0638919502632 114.0638919502632 0 0 1 74.98753163943357,8.8056512860407"/><text text-anchor="middle" pointer-events="none" font-size="8px" fill="#000000" x="51.7890278146354" y="13.326562593997096" transform="rotate(180 51.7890278146354 10.326562593997096)" font-family="sans-serif">twowheeler</text></g><g class="relationship" transform="translate(286.0978048925213 262.76718066360246) rotate(186.918719897475)"><path class="outline" fill="#A5ABB6" stroke="none" d="M 24.018736134675446,6.953439040707552 L 24.277555179777966,5.987513214418485 A 190.03823254250014 190.03823254250014 0 0 0 61.62620282258452,12.093910681384045 L 61.563916060187026,13.091968975888932 A 191.03823254250014 191.03823254250014 0 0 1 24.018736134675446,6.953439040707552 Z M 80.94097538856823,13.31649711859211 L 80.90183188190127,12.317263519334233 A 190.03823254250014 190.03823254250014 0 0 0 118.38194610629233,7.077930689891462 L 117.67284336766028,4.162939556789248 L 125.30177587330283,5.909189488600383 L 119.3274164244684,10.964585534027748 L 118.61831368583634,8.049594400925534 A 191.03823254250014 191.03823254250014 0 0 1 80.94097538856823,13.31649711859211"/><text text-anchor="middle" pointer-events="none" font-size="8px" fill="#000000" x="71.25539022627977" y="15.950118853075281" transform="rotate(180 71.25539022627977 12.950118853075281)" font-family="sans-serif">trek</text></g><g class="relationship" transform="translate(402.22086425875284 256.9082053736405) rotate(537.1115975254381)"><path class="outline" fill="#A5ABB6" stroke="none" d="M 25 0.5 L 26.664683061086606 0.5 L 26.664683061086606 -0.5 L 25 -0.5 Z M 82.6060893110866 0.5 L 84.27077237217321 0.5 L 84.27077237217321 3.5 L 91.27077237217321 0 L 84.27077237217321 -3.5 L 84.27077237217321 -0.5 L 82.6060893110866 -0.5 Z"/><text text-anchor="middle" pointer-events="none" font-size="8px" fill="#000000" x="54.635386186086606" y="3" transform="rotate(180 54.635386186086606 0)" font-family="sans-serif">PublicTrans…</text></g><g class="relationship" transform="translate(402.22086425875284 256.9082053736405) rotate(537.1115975254381)"><path class="outline" fill="#A5ABB6" stroke="none" d="M 21.40063509461097,-12.933012701892217 L 21.90063509461097,-12.06698729810778 A 69.03785730901139 69.03785730901139 0 0 1 43.59313428798187,-20.11434256153977 L 43.40734593994951,-21.096932348651052 A 70.03785730901139 70.03785730901139 0 0 0 21.40063509461097,-12.933012701892217 Z M 65.47586250685342,-21.72832240226073 L 65.34655674129039,-20.736717632711816 A 69.03785730901139 69.03785730901139 0 0 1 87.46367205776565,-13.942774884349992 L 86.11466835811302,-11.263187412681358 L 93.94087677493457,-11.241697497105287 L 89.2623436573025,-17.515558179908172 L 87.91333995764987,-14.835970708239538 A 70.03785730901139 70.03785730901139 0 0 0 65.47586250685342,-21.72832240226073"/><text text-anchor="middle" pointer-events="none" font-size="8px" fill="#000000" x="54.43086855282803" y="-18.787863447915683" transform="rotate(180 54.43086855282803 -21.787863447915683)" font-family="sans-serif">road</text></g><g class="relationship" transform="translate(211.3563126211866 -31.07266905073676) rotate(195.55499323160893)"><path class="outline" fill="#A5ABB6" stroke="none" d="M 21.40063509461097,12.933012701892217 L 21.90063509461097,12.06698729810778 A 71.69958709345595 71.69958709345595 0 0 0 26.210102044951178,14.363063203675168 L 25.7702065326482,15.261112165734417 A 72.69958709345595 72.69958709345595 0 0 1 21.40063509461097,12.933012701892217 Z M 86.024892591868,16.949324000711144 L 85.63597065873263,16.028053285923008 A 71.69958709345595 71.69958709345595 0 0 0 90.06723869924643,13.976874719019907 L 88.71506312747705,11.29888643989878 L 96.54124061249063,11.268129764744867 L 91.8701394616056,17.547525757848078 L 90.51796388983622,14.86953747872695 A 72.69958709345595 72.69958709345595 0 0 1 86.024892591868,16.949324000711144"/><text text-anchor="middle" pointer-events="none" font-size="8px" fill="#000000" x="55.72833887325285" y="25.144588695747572" transform="rotate(180 55.72833887325285 22.144588695747572)" font-family="sans-serif">PublicTransport</text></g><g class="relationship" transform="translate(96.85184732867162 -62.94595460797563) rotate(240.93333641424476)"><path class="outline" fill="#A5ABB6" stroke="none" d="M 25 0.5 L 46.673131386076854 0.5 L 46.673131386076854 -0.5 L 25 -0.5 Z M 66.00906888607685 0.5 L 87.68220027215371 0.5 L 87.68220027215371 3.5 L 94.68220027215371 0 L 87.68220027215371 -3.5 L 87.68220027215371 -0.5 L 66.00906888607685 -0.5 Z"/><text text-anchor="middle" pointer-events="none" font-size="8px" fill="#000000" x="56.341100136076854" y="3" transform="rotate(180 56.341100136076854 0)" font-family="sans-serif">trek</text></g><g class="relationship" transform="translate(96.85184732867162 -62.94595460797563) rotate(513.3319765844992)"><path class="outline" fill="#A5ABB6" stroke="none" d="M 24.018736134675446,-6.953439040707552 L 24.277555179777966,-5.987513214418485 A 174.56817004554384 174.56817004554384 0 0 1 57.69794256429033,-11.539135825040944 L 57.63056957361911,-12.536863683792035 A 175.56817004554384 175.56817004554384 0 0 0 24.018736134675446,-6.953439040707552 Z M 77.01043407057837,-12.773310546657797 L 76.9674233596257,-11.774235935458336 A 174.56817004554384 174.56817004554384 0 0 1 110.51330919119485,-7.039645106571948 L 109.80778217116209,-4.123786463907031 L 117.43456719408512,-5.879391833606332 L 111.45401188457187,-10.927456630125171 L 110.74848486453911,-8.011597987460254 A 175.56817004554384 175.56817004554384 0 0 0 77.01043407057837,-12.773310546657797"/><text text-anchor="middle" pointer-events="none" font-size="8px" fill="#000000" x="67.32333647437771" y="-9.42275086683199" transform="rotate(180 67.32333647437771 -12.42275086683199)" font-family="sans-serif">trek</text></g><g class="relationship" transform="translate(-29.804229199314193 0.6668734794011444) rotate(197.48000517331548)"><path class="outline" fill="#A5ABB6" stroke="none" d="M 24.018736134675446,-6.953439040707552 L 24.277555179777966,-5.987513214418485 A 163.58391853931928 163.58391853931928 0 0 1 54.9141749693651,-11.142410087641991 L 54.842639735918084,-12.139848161096012 A 164.58391853931928 164.58391853931928 0 0 0 24.018736134675446,-6.953439040707552 Z M 74.22472082282205,-12.385539008732849 L 74.178491931688,-11.386608135436518 A 163.58391853931928 163.58391853931928 0 0 1 104.93593542910556,-7.009953772974481 L 104.23318150926394,-4.0934255409583304 L 111.8582936237835,-5.8562826653467495 L 105.87294065556102,-10.898658082329348 L 105.17018673571941,-7.982129850313197 A 164.58391853931928 164.58391853931928 0 0 0 74.22472082282205,-12.385539008732849"/><text text-anchor="middle" pointer-events="none" font-size="8px" fill="#000000" x="64.53639773518931" y="-9.048318692462288" transform="rotate(180 64.53639773518931 -12.048318692462288)" font-family="sans-serif">trek</text></g><g class="relationship" transform="translate(-159.67918087770727 -40.23271805831226) rotate(306.018963154452)"><path class="outline" fill="#A5ABB6" stroke="none" d="M 24.018736134675446,6.953439040707552 L 24.277555179777966,5.987513214418485 A 144.67288459756125 144.67288459756125 0 0 0 50.13405609652514,10.452320384557197 L 50.053960942832354,11.449107606764102 A 145.67288459756125 145.67288459756125 0 0 1 24.018736134675446,6.953439040707552 Z M 69.44036698098049,11.712484193627233 L 69.3873803597657,10.713888971341305 A 144.67288459756125 144.67288459756125 0 0 0 95.35563047114987,6.953153820222637 L 94.65818165326327,4.03535239681689 L 102.2800752620777,5.812073482388224 L 96.28556222833198,10.843555718096965 L 95.58811341044539,7.9257542946912185 A 145.67288459756125 145.67288459756125 0 0 1 69.44036698098049,11.712484193627233"/><text text-anchor="middle" pointer-events="none" font-size="8px" fill="#000000" x="59.74956955717124" y="14.403726832960842" font-family="sans-serif">trek</text></g><g class="relationship" transform="translate(-159.67918087770727 -40.23271805831226) rotate(306.018963154452)"><path class="outline" fill="#A5ABB6" stroke="none" d="M 24.018736134675446,-6.953439040707552 L 24.277555179777966,-5.987513214418485 A 144.67288459756125 144.67288459756125 0 0 1 36.72989347507689,-8.7421516112272 L 36.55714680165575,-9.727117898377116 A 145.67288459756125 145.67288459756125 0 0 0 24.018736134675446,-6.953439040707552 Z M 82.97897984787824,-10.357787859564638 L 82.83305477140942,-9.368492215150127 A 144.67288459756125 144.67288459756125 0 0 1 95.35563047114987,-6.953153820222637 L 94.65818165326327,-4.03535239681689 L 102.2800752620777,-5.812073482388224 L 96.28556222833198,-10.843555718096965 L 95.58811341044539,-7.9257542946912185 A 145.67288459756125 145.67288459756125 0 0 0 82.97897984787824,-10.357787859564638"/><text text-anchor="middle" pointer-events="none" font-size="8px" fill="#000000" x="59.74956955717118" y="-8.403726832960842" font-family="sans-serif">twowheeler</text></g><g class="relationship" transform="translate(-29.804229199314193 0.6668734794011444) rotate(197.48000517331548)"><path class="outline" fill="#A5ABB6" stroke="none" d="M 24.018736134675446,6.953439040707552 L 24.277555179777966,5.987513214418485 A 163.58391853931928 163.58391853931928 0 0 0 41.48102179963882,9.618918404559935 L 41.32736875602028,10.607043266197735 A 164.58391853931928 164.58391853931928 0 0 1 24.018736134675446,6.953439040707552 Z M 87.77450307370235,11.195815738547168 L 87.64594668440728,10.204113537898479 A 163.58391853931928 163.58391853931928 0 0 0 104.93593542910556,7.009953772974481 L 104.23318150926394,4.0934255409583304 L 111.8582936237835,5.8562826653467495 L 105.87294065556102,10.898658082329348 L 105.17018673571941,7.982129850313197 A 164.58391853931928 164.58391853931928 0 0 1 87.77450307370235,11.195815738547168"/><text text-anchor="middle" pointer-events="none" font-size="8px" fill="#000000" x="64.53639773518931" y="15.048318692462288" transform="rotate(180 64.53639773518931 12.048318692462288)" font-family="sans-serif">twowheeler</text></g><g class="relationship" transform="translate(96.85184732867162 -62.94595460797563) rotate(513.3319765844992)"><path class="outline" fill="#A5ABB6" stroke="none" d="M 24.018736134675446,6.953439040707552 L 24.277555179777966,5.987513214418485 A 174.56817004554384 174.56817004554384 0 0 0 44.25174591223244,10.106238962287136 L 44.10734744407269,11.095758584322567 A 175.56817004554384 175.56817004554384 0 0 1 24.018736134675446,6.953439040707552 Z M 90.5647903724786,11.662569391431674 L 90.44457685022827,10.669821332220181 A 174.56817004554384 174.56817004554384 0 0 0 110.51330919119485,7.039645106571948 L 109.80778217116209,4.123786463907031 L 117.43456719408512,5.879391833606332 L 111.45401188457187,10.927456630125171 L 110.74848486453911,8.011597987460254 A 175.56817004554384 175.56817004554384 0 0 1 90.5647903724786,11.662569391431674"/><text text-anchor="middle" pointer-events="none" font-size="8px" fill="#000000" x="67.3233364743778" y="15.42275086683199" transform="rotate(180 67.3233364743778 12.42275086683199)" font-family="sans-serif">twowheeler</text></g><g class="relationship" transform="translate(211.3563126211866 -31.07266905073676) rotate(195.55499323160893)"><path class="outline" fill="#A5ABB6" stroke="none" d="M 25 0.5 L 44.92304542758335 0.5 L 44.92304542758335 -0.5 L 25 -0.5 Z M 66.93476417758335 0.5 L 86.8578096051667 0.5 L 86.8578096051667 3.5 L 93.8578096051667 0 L 86.8578096051667 -3.5 L 86.8578096051667 -0.5 L 66.93476417758335 -0.5 Z"/><text text-anchor="middle" pointer-events="none" font-size="8px" fill="#000000" x="55.92890480258335" y="3" transform="rotate(180 55.92890480258335 0)" font-family="sans-serif">road</text></g><g class="relationship" transform="translate(211.3563126211866 -31.07266905073676) rotate(195.55499323160893)"><path class="outline" fill="#A5ABB6" stroke="none" d="M 21.40063509461097,-12.933012701892217 L 21.90063509461097,-12.06698729810778 A 71.69958709345595 71.69958709345595 0 0 1 46.19172479128947,-20.735086800412958 L 46.030514604193364,-21.722006896254783 A 72.69958709345595 72.69958709345595 0 0 0 21.40063509461097,-12.933012701892217 Z M 65.43461057508318,-22.26566958222223 L 65.32891283674711,-21.27127127766282 A 71.69958709345595 71.69958709345595 0 0 1 90.06723869924643,-13.976874719019907 L 88.71506312747705,-11.29888643989878 L 96.54124061249063,-11.268129764744867 L 91.8701394616056,-17.547525757848078 L 90.51796388983622,-14.86953747872695 A 72.69958709345595 72.69958709345595 0 0 0 65.43461057508318,-22.26566958222223"/><text text-anchor="middle" pointer-events="none" font-size="8px" fill="#000000" x="55.72833887325285" y="-19.144588695747572" transform="rotate(180 55.72833887325285 -22.144588695747572)" font-family="sans-serif">trek</text></g><g class="relationship" transform="translate(286.0978048925213 262.76718066360246) rotate(306.683264694051)"><path class="outline" fill="#A5ABB6" stroke="none" d="M 25 0.5 L 48.70126476683543 0.5 L 48.70126476683543 -0.5 L 25 -0.5 Z M 68.03720226683544 0.5 L 91.73846703367086 0.5 L 91.73846703367086 3.5 L 98.73846703367086 0 L 91.73846703367086 -3.5 L 91.73846703367086 -0.5 L 68.03720226683544 -0.5 Z"/><text text-anchor="middle" pointer-events="none" font-size="8px" fill="#000000" x="58.36923351683543" y="3" font-family="sans-serif">trek</text></g><g class="relationship" transform="translate(96.85184732867162 -62.94595460797563) rotate(328.3689280133766)"><path class="outline" fill="#A5ABB6" stroke="none" d="M 25 0.5 L 49.78709478065142 0.5 L 49.78709478065142 -0.5 L 25 -0.5 Z M 69.12303228065142 0.5 L 93.91012706130284 0.5 L 93.91012706130284 3.5 L 100.91012706130284 0 L 93.91012706130284 -3.5 L 93.91012706130284 -0.5 L 69.12303228065142 -0.5 Z"/><text text-anchor="middle" pointer-events="none" font-size="8px" fill="#000000" x="59.45506353065142" y="3" font-family="sans-serif">trek</text></g><g class="relationship" transform="translate(137.59376956320966 244.7469854728615) rotate(535.4219685098791)"><path class="outline" fill="#A5ABB6" stroke="none" d="M 24.018736134675446,-6.953439040707552 L 24.277555179777966,-5.987513214418485 A 165.18151129015178 165.18151129015178 0 0 1 41.883553531472664,-9.690678566150098 L 41.73132025504475,-10.679023156638692 A 166.18151129015178 166.18151129015178 0 0 0 24.018736134675446,-6.953439040707552 Z M 88.18011827121308,-11.264500040627127 L 88.0528451353117,-10.272632333280114 A 165.18151129015178 165.18151129015178 0 0 1 105.74659021651428,-7.0144124844114435 L 105.04341986081958,-4.097984626419377 L 112.66878361111155,-5.85975296412249 L 106.68415069077388,-10.902982961734198 L 105.98098033507918,-7.986555103742131 A 166.18151129015178 166.18151129015178 0 0 0 88.18011827121308,-11.264500040627127"/><text text-anchor="middle" pointer-events="none" font-size="8px" fill="#000000" x="64.94146306886557" y="-9.1027765130153" transform="rotate(180 64.94146306886557 -12.1027765130153)" font-family="sans-serif">twowheeler</text></g><g class="relationship" transform="translate(1.058423176210338 255.67967056914387) rotate(408.84890199363525)"><path class="outline" fill="#A5ABB6" stroke="none" d="M 21.40063509461097,12.933012701892217 L 21.90063509461097,12.06698729810778 A 45.849488105685765 45.849488105685765 0 0 0 23.708399601304368,13.057201789291106 L 23.24782783881329,13.94482426061316 A 46.849488105685765 46.849488105685765 0 0 1 21.40063509461097,12.933012701892217 Z M 63.441627139693246,15.352140057872916 L 63.04426424961761,14.434478500657654 A 45.849488105685765 45.849488105685765 0 0 0 64.91685816900899,13.573125342383799 L 63.60224290164266,10.876500285241566 L 71.42808584690192,10.955127228052737 L 66.66967852549743,17.168625418573445 L 65.3550632581311,14.472000361431212 A 46.849488105685765 46.849488105685765 0 0 1 63.441627139693246,15.352140057872916"/><text text-anchor="middle" pointer-events="none" font-size="8px" fill="#000000" x="43.2035264731658" y="21.681269478727863" font-family="sans-serif">twowhe…</text></g><g class="relationship" transform="translate(1.058423176210338 255.67967056914387) rotate(408.84890199363525)"><path class="outline" fill="#A5ABB6" stroke="none" d="M 25 0.5 L 32.44412128654359 0.5 L 32.44412128654359 -0.5 L 25 -0.5 Z M 54.45584003654359 0.5 L 61.89996132308718 0.5 L 61.89996132308718 3.5 L 68.89996132308718 0 L 61.89996132308718 -3.5 L 61.89996132308718 -0.5 L 54.45584003654359 -0.5 Z"/><text text-anchor="middle" pointer-events="none" font-size="8px" fill="#000000" x="43.44998066154359" y="3" font-family="sans-serif">road</text></g><g class="relationship" transform="translate(1.058423176210338 255.67967056914387) rotate(408.84890199363525)"><path class="outline" fill="#A5ABB6" stroke="none" d="M 21.40063509461097,-12.933012701892217 L 21.90063509461097,-12.06698729810778 A 45.849488105685765 45.849488105685765 0 0 1 33.76713853540046,-16.856130542854203 L 33.52595284131891,-17.826609528185884 A 46.849488105685765 46.849488105685765 0 0 0 21.40063509461097,-12.933012701892217 Z M 52.91717671425025,-18.505559419941434 L 52.74445769651963,-17.52058828284443 A 45.849488105685765 45.849488105685765 0 0 1 64.91685816900899,-13.573125342383799 L 63.60224290164266,-10.876500285241566 L 71.42808584690192,-10.955127228052737 L 66.66967852549743,-17.168625418573445 L 65.3550632581311,-14.472000361431212 A 46.849488105685765 46.849488105685765 0 0 0 52.91717671425025,-18.505559419941434"/><text text-anchor="middle" pointer-events="none" font-size="8px" fill="#000000" x="43.20352647316581" y="-15.681269478727863" font-family="sans-serif">trek</text></g><g class="relationship" transform="translate(137.59376956320966 244.7469854728615) rotate(535.4219685098791)"><path class="outline" fill="#A5ABB6" stroke="none" d="M 24.018736134675446,6.953439040707552 L 24.277555179777966,5.987513214418485 A 165.18151129015178 165.18151129015178 0 0 0 55.318750397392904,11.200277141408094 L 55.247853081394126,12.197760760614017 A 166.18151129015178 166.18151129015178 0 0 1 24.018736134675446,6.953439040707552 Z M 74.62959916409514,12.442063407558834 L 74.58386650163104,11.443109693123603 A 165.18151129015178 165.18151129015178 0 0 0 105.74659021651428,7.0144124844114435 L 105.04341986081958,4.097984626419377 L 112.66878361111155,5.85975296412249 L 106.68415069077388,10.902982961734198 L 105.98098033507918,7.986555103742131 A 166.18151129015178 166.18151129015178 0 0 1 74.62959916409514,12.442063407558834"/><text text-anchor="middle" pointer-events="none" font-size="8px" fill="#000000" x="64.9414630688656" y="15.1027765130153" transform="rotate(180 64.9414630688656 12.1027765130153)" font-family="sans-serif">trek</text></g><g class="relationship" transform="translate(-29.804229199314193 0.6668734794011444) rotate(507.03942158883723)"><path class="outline" fill="#A5ABB6" stroke="none" d="M 24.018736134675446,-6.953439040707552 L 24.277555179777966,-5.987513214418485 A 141.30282221813522 141.30282221813522 0 0 1 35.886246628457144,-8.579760208930992 L 35.70958228675296,-9.564031365863997 A 142.30282221813522 142.30282221813522 0 0 0 24.018736134675446,-6.953439040707552 Z M 82.12554395887032,-10.20277142114108 L 81.97603092089494,-9.214011666966485 A 141.30282221813522 141.30282221813522 0 0 1 93.65165793313079,-6.942185198605585 L 92.95523360016328,-4.024139080318426 L 100.57650293129542,-5.803536108062588 L 94.58022371042081,-10.832913356321797 L 93.8837993774533,-7.914867238034637 A 142.30282221813522 142.30282221813522 0 0 0 82.12554395887032,-10.20277142114108"/><text text-anchor="middle" pointer-events="none" font-size="8px" fill="#000000" x="58.89822223022023" y="-8.288865356207282" transform="rotate(180 58.89822223022023 -11.288865356207282)" font-family="sans-serif">twowheeler</text></g><g class="relationship" transform="translate(-134.59555375389056 68.61669399514247) rotate(257.0231100150923)"><path class="outline" fill="#A5ABB6" stroke="none" d="M 21.40063509461097,12.933012701892217 L 21.90063509461097,12.06698729810778 A 64.3289384489895 64.3289384489895 0 0 0 41.31774673073173,19.4097809489787 L 41.1195877389044,20.38995083933341 A 65.3289384489895 65.3289384489895 0 0 1 21.40063509461097,12.933012701892217 Z M 63.18493558356691,21.04574094209957 L 63.045336938908356,20.05553277286974 A 64.3289384489895 64.3289384489895 0 0 0 82.86425235358273,13.878848008789001 L 81.52119515123294,11.196275111137124 L 89.34743198182873,11.192143352914826 L 84.6549952900491,17.455611872324834 L 83.31193808769932,14.773038974672959 A 65.3289384489895 65.3289384489895 0 0 1 63.18493558356691,21.04574094209957"/><text text-anchor="middle" pointer-events="none" font-size="8px" fill="#000000" x="52.13921524843614" y="24.156818109620346" transform="rotate(180 52.13921524843614 21.156818109620346)" font-family="sans-serif">road</text></g><g class="relationship" transform="translate(-134.59555375389056 68.61669399514247) rotate(257.0231100150923)"><path class="outline" fill="#A5ABB6" stroke="none" d="M 25 0.5 L 42.68313431446384 0.5 L 42.68313431446384 -0.5 L 25 -0.5 Z M 62.01907181446384 0.5 L 79.70220612892768 0.5 L 79.70220612892768 3.5 L 86.70220612892768 0 L 79.70220612892768 -3.5 L 79.70220612892768 -0.5 L 62.01907181446384 -0.5 Z"/><text text-anchor="middle" pointer-events="none" font-size="8px" fill="#000000" x="52.35110306446384" y="3" transform="rotate(180 52.35110306446384 0)" font-family="sans-serif">trek</text></g><g class="relationship" transform="translate(-134.59555375389056 68.61669399514247) rotate(257.0231100150923)"><path class="outline" fill="#A5ABB6" stroke="none" d="M 21.40063509461097,-12.933012701892217 L 21.90063509461097,-12.06698729810778 A 64.3289384489895 64.3289384489895 0 0 1 29.722471299073867,-15.901841000533636 L 29.34406255167421,-16.827479601657977 A 65.3289384489895 65.3289384489895 0 0 0 21.40063509461097,-12.933012701892217 Z M 75.15124547351827,-18.188885612894325 L 74.8284767028168,-17.242407762831334 A 64.3289384489895 64.3289384489895 0 0 1 82.86425235358273,-13.878848008789001 L 81.52119515123294,-11.196275111137124 L 89.34743198182873,-11.192143352914826 L 84.6549952900491,-17.455611872324834 L 83.31193808769932,-14.773038974672959 A 65.3289384489895 65.3289384489895 0 0 0 75.15124547351827,-18.188885612894325"/><text text-anchor="middle" pointer-events="none" font-size="8px" fill="#000000" x="52.13921524843611" y="-18.156818109620332" transform="rotate(180 52.13921524843611 -21.156818109620332)" font-family="sans-serif">twowheeler</text></g><g class="relationship" transform="translate(-29.804229199314193 0.6668734794011444) rotate(507.03942158883723)"><path class="outline" fill="#A5ABB6" stroke="none" d="M 24.018736134675446,6.953439040707552 L 24.277555179777966,5.987513214418485 A 141.30282221813522 141.30282221813522 0 0 0 49.28411337107522,10.328198376415145 L 49.20226572540231,11.324843229358152 A 142.30282221813522 142.30282221813522 0 0 1 24.018736134675446,6.953439040707552 Z M 68.58951715225493,11.591635375894612 L 68.53512539575256,10.593115703166717 A 141.30282221813522 141.30282221813522 0 0 0 93.65165793313079,6.942185198605585 L 92.95523360016328,4.024139080318426 L 100.57650293129542,5.803536108062588 L 94.58022371042081,10.832913356321797 L 93.8837993774533,7.914867238034637 A 142.30282221813522 142.30282221813522 0 0 1 68.58951715225493,11.591635375894612"/><text text-anchor="middle" pointer-events="none" font-size="8px" fill="#000000" x="58.89822223022022" y="14.288865356207282" transform="rotate(180 58.89822223022022 11.288865356207282)" font-family="sans-serif">trek</text></g><g class="relationship" transform="translate(1.058423176210338 255.67967056914387) rotate(456.48314741071067)"><path class="outline" fill="#A5ABB6" stroke="none" d="M 25 0.5 L 48.27227740195287 0.5 L 48.27227740195287 -0.5 L 25 -0.5 Z M 67.60821490195286 0.5 L 90.88049230390574 0.5 L 90.88049230390574 3.5 L 97.88049230390574 0 L 90.88049230390574 -3.5 L 90.88049230390574 -0.5 L 67.60821490195286 -0.5 Z"/><text text-anchor="middle" pointer-events="none" font-size="8px" fill="#000000" x="57.94024615195287" y="3" transform="rotate(180 57.94024615195287 0)" font-family="sans-serif">trek</text></g><g class="relationship" transform="translate(-12.816131965851545 377.7743555822931) rotate(377.26053749568223)"><path class="outline" fill="#A5ABB6" stroke="none" d="M 25 0.5 L 51.4305516915327 0.5 L 51.4305516915327 -0.5 L 25 -0.5 Z M 70.7664891915327 0.5 L 97.1970408830654 0.5 L 97.1970408830654 3.5 L 104.1970408830654 0 L 97.1970408830654 -3.5 L 97.1970408830654 -0.5 L 70.7664891915327 -0.5 Z"/><text text-anchor="middle" pointer-events="none" font-size="8px" fill="#000000" x="61.0985204415327" y="3" font-family="sans-serif">trek</text></g><g class="relationship" transform="translate(-134.59555375389056 68.61669399514247) rotate(288.60603984222064)"><path class="outline" fill="#A5ABB6" stroke="none" d="M 25 0.5 L 40.9871606549663 0.5 L 40.9871606549663 -0.5 L 25 -0.5 Z M 60.3230981549663 0.5 L 76.3102588099326 0.5 L 76.3102588099326 3.5 L 83.3102588099326 0 L 76.3102588099326 -3.5 L 76.3102588099326 -0.5 L 60.3230981549663 -0.5 Z"/><text text-anchor="middle" pointer-events="none" font-size="8px" fill="#000000" x="50.6551294049663" y="3" font-family="sans-serif">trek</text></g><g class="relationship" transform="translate(-100.0381674218888 -34.03270548374082) rotate(277.76282179886033)"><path class="outline" fill="#A5ABB6" stroke="none" d="M 25 0.5 L 41.63070104500349 0.5 L 41.63070104500349 -0.5 L 25 -0.5 Z M 60.96663854500349 0.5 L 77.59733959000698 0.5 L 77.59733959000698 3.5 L 84.59733959000698 0 L 77.59733959000698 -3.5 L 77.59733959000698 -0.5 L 60.96663854500349 -0.5 Z"/><text text-anchor="middle" pointer-events="none" font-size="8px" fill="#000000" x="51.29866979500349" y="3" font-family="sans-serif">trek</text></g></g><g class="layer nodes"><g class="node" transform="translate(402.22086425875284,256.9082053736405)"><circle class="outline" cx="0" cy="0" r="25" fill="#68BDF6" stroke="#5CA8DB" stroke-width="2px"/><text text-anchor="middle" pointer-events="none" font-family="sans-serif" dy="1.5625" font-size="25" fill="#FFFFFF"/><text text-anchor="middle" pointer-events="none" y="5" font-size="10px" fill="#FFFFFF" font-family="sans-serif"> Darjeeling</text></g><g class="node" transform="translate(360.0180432722021,163.535096226491)"><circle class="outline" cx="0" cy="0" r="25" fill="#6DCE9E" stroke="#60B58B" stroke-width="2px"/><text text-anchor="middle" pointer-events="none" font-family="sans-serif" dy="1.5625" font-size="25" fill="#FFFFFF"/><text text-anchor="middle" pointer-events="none" y="5" font-size="10px" fill="#FFFFFF" font-family="sans-serif"> Tumbling</text></g><g class="node" transform="translate(257.84791943015875,209.84923904807297)"><circle class="outline" cx="0" cy="0" r="25" fill="#6DCE9E" stroke="#60B58B" stroke-width="2px"/><text text-anchor="middle" pointer-events="none" font-family="sans-serif" dy="1.5625" font-size="25" fill="#FFFFFF"/><text text-anchor="middle" pointer-events="none" y="5" font-size="10px" fill="#FFFFFF" font-family="sans-serif"> Gairibus</text></g><g class="node" transform="translate(218.97998168869748,344.81685138465997)"><circle class="outline" cx="0" cy="0" r="25" fill="#6DCE9E" stroke="#60B58B" stroke-width="2px"/><text text-anchor="middle" pointer-events="none" font-family="sans-serif" dy="1.5625" font-size="25" fill="#FFFFFF"/><text text-anchor="middle" pointer-events="none" y="5" font-size="10px" fill="#FFFFFF" font-family="sans-serif"> BhikeBh…</text></g><g class="node" transform="translate(110.5625705886163,416.1093412861723)"><circle class="outline" cx="0" cy="0" r="25" fill="#FF756E" stroke="#E06760" stroke-width="2px"/><text text-anchor="middle" pointer-events="none" font-family="sans-serif" dy="1.5625" font-size="25" fill="#FFFFFF"/><text text-anchor="middle" pointer-events="none" y="5" font-size="10px" fill="#FFFFFF" font-family="sans-serif"> Sandak…</text></g><g class="node" transform="translate(211.3563126211866,-31.07266905073676)"><circle class="outline" cx="0" cy="0" r="25" fill="#68BDF6" stroke="#5CA8DB" stroke-width="2px"/><text text-anchor="middle" pointer-events="none" font-family="sans-serif" dy="1.5625" font-size="25" fill="#FFFFFF"/><text text-anchor="middle" pointer-events="none" y="5" font-size="10px" fill="#FFFFFF" font-family="sans-serif"> Darjeeling</text></g><g class="node" transform="translate(204.05709918719097,-128.97923463058893)"><circle class="outline" cx="0" cy="0" r="25" fill="#6DCE9E" stroke="#60B58B" stroke-width="2px"/><text text-anchor="middle" pointer-events="none" font-family="sans-serif" dy="1.5625" font-size="25" fill="#FFFFFF"/><text text-anchor="middle" pointer-events="none" y="5" font-size="10px" fill="#FFFFFF" font-family="sans-serif"> Tumbling</text></g><g class="node" transform="translate(145.2039093293378,-220.32828254661277)"><circle class="outline" cx="0" cy="0" r="25" fill="#6DCE9E" stroke="#60B58B" stroke-width="2px"/><text text-anchor="middle" pointer-events="none" font-family="sans-serif" dy="1.5625" font-size="25" fill="#FFFFFF"/><text text-anchor="middle" pointer-events="none" y="5" font-size="10px" fill="#FFFFFF" font-family="sans-serif"> Gairibus</text></g><g class="node" transform="translate(38.70701365973208,-167.5547849216507)"><circle class="outline" cx="0" cy="0" r="25" fill="#6DCE9E" stroke="#60B58B" stroke-width="2px"/><text text-anchor="middle" pointer-events="none" font-family="sans-serif" dy="1.5625" font-size="25" fill="#FFFFFF"/><text text-anchor="middle" pointer-events="none" y="5" font-size="10px" fill="#FFFFFF" font-family="sans-serif"> BhikeBh…</text></g><g class="node" transform="translate(-85.23456263744059,-142.62566165767123)"><circle class="outline" cx="0" cy="0" r="25" fill="#FF756E" stroke="#E06760" stroke-width="2px"/><text text-anchor="middle" pointer-events="none" font-family="sans-serif" dy="1.5625" font-size="25" fill="#FFFFFF"/><text text-anchor="middle" pointer-events="none" y="5" font-size="10px" fill="#FFFFFF" font-family="sans-serif"> Sandak…</text></g><g class="node" transform="translate(286.0978048925213,262.76718066360246)"><circle class="outline" cx="0" cy="0" r="25" fill="#68BDF6" stroke="#5CA8DB" stroke-width="2px"/><text text-anchor="middle" pointer-events="none" font-family="sans-serif" dy="1.5625" font-size="25" fill="#FFFFFF"/><text text-anchor="middle" pointer-events="none" y="5" font-size="10px" fill="#FFFFFF" font-family="sans-serif"> Rimbik</text></g><g class="node" transform="translate(137.59376956320966,244.7469854728615)"><circle class="outline" cx="0" cy="0" r="25" fill="#6DCE9E" stroke="#60B58B" stroke-width="2px"/><text text-anchor="middle" pointer-events="none" font-family="sans-serif" dy="1.5625" font-size="25" fill="#FFFFFF"/><text text-anchor="middle" pointer-events="none" y="5" font-size="10px" fill="#FFFFFF" font-family="sans-serif"> Sirikhola</text></g><g class="node" transform="translate(62.849014175754256,326.3841654786215)"><circle class="outline" cx="0" cy="0" r="25" fill="#6DCE9E" stroke="#60B58B" stroke-width="2px"/><text text-anchor="middle" pointer-events="none" font-family="sans-serif" dy="1.5625" font-size="25" fill="#FFFFFF"/><text text-anchor="middle" pointer-events="none" y="5" font-size="10px" fill="#FFFFFF" font-family="sans-serif"> Gurdum</text></g><g class="node" transform="translate(96.85184732867162,-62.94595460797563)"><circle class="outline" cx="0" cy="0" r="25" fill="#68BDF6" stroke="#5CA8DB" stroke-width="2px"/><text text-anchor="middle" pointer-events="none" font-family="sans-serif" dy="1.5625" font-size="25" fill="#FFFFFF"/><text text-anchor="middle" pointer-events="none" y="5" font-size="10px" fill="#FFFFFF" font-family="sans-serif"> Rimbik</text></g><g class="node" transform="translate(-29.804229199314193,0.6668734794011444)"><circle class="outline" cx="0" cy="0" r="25" fill="#6DCE9E" stroke="#60B58B" stroke-width="2px"/><text text-anchor="middle" pointer-events="none" font-family="sans-serif" dy="1.5625" font-size="25" fill="#FFFFFF"/><text text-anchor="middle" pointer-events="none" y="5" font-size="10px" fill="#FFFFFF" font-family="sans-serif"> Sirikhola</text></g><g class="node" transform="translate(-159.67918087770727,-40.23271805831226)"><circle class="outline" cx="0" cy="0" r="25" fill="#6DCE9E" stroke="#60B58B" stroke-width="2px"/><text text-anchor="middle" pointer-events="none" font-family="sans-serif" dy="1.5625" font-size="25" fill="#FFFFFF"/><text text-anchor="middle" pointer-events="none" y="5" font-size="10px" fill="#FFFFFF" font-family="sans-serif"> Gurdum</text></g><g class="node" transform="translate(1.058423176210338,255.67967056914387)"><circle class="outline" cx="0" cy="0" r="25" fill="#6DCE9E" stroke="#60B58B" stroke-width="2px"/><text text-anchor="middle" pointer-events="none" font-family="sans-serif" dy="1.5625" font-size="25" fill="#FFFFFF"/><text text-anchor="middle" pointer-events="none" y="5" font-size="10px" fill="#FFFFFF" font-family="sans-serif"> Rammam</text></g><g class="node" transform="translate(-134.59555375389056,68.61669399514247)"><circle class="outline" cx="0" cy="0" r="25" fill="#6DCE9E" stroke="#60B58B" stroke-width="2px"/><text text-anchor="middle" pointer-events="none" font-family="sans-serif" dy="1.5625" font-size="25" fill="#FFFFFF"/><text text-anchor="middle" pointer-events="none" y="5" font-size="10px" fill="#FFFFFF" font-family="sans-serif"> Rammam</text></g><g class="node" transform="translate(-12.816131965851545,377.7743555822931)"><circle class="outline" cx="0" cy="0" r="25" fill="#FF756E" stroke="#E06760" stroke-width="2px"/><text text-anchor="middle" pointer-events="none" font-family="sans-serif" dy="1.5625" font-size="25" fill="#FFFFFF"/><text text-anchor="middle" pointer-events="none" y="5" font-size="10px" fill="#FFFFFF" font-family="sans-serif"> Sabargr…</text></g><g class="node" transform="translate(-100.0381674218888,-34.03270548374082)"><circle class="outline" cx="0" cy="0" r="25" fill="#FF756E" stroke="#E06760" stroke-width="2px"/><text text-anchor="middle" pointer-events="none" font-family="sans-serif" dy="1.5625" font-size="25" fill="#FFFFFF"/><text text-anchor="middle" pointer-events="none" y="5" font-size="10px" fill="#FFFFFF" font-family="sans-serif"> Sabargr…</text></g></g></svg>