<svg xmlns="http://www.w3.org/2000/svg" width="363.0802001953125" height="364.562255859375" viewBox="-89.75965118408203 -76.47499084472656 363.0802001953125 364.562255859375"><title>Neo4j Graph Visualization</title><desc>Created using Neo4j (http://www.neo4j.com/)</desc><g class="layer relationships"><g class="relationship" transform="translate(135.2177188789304 259.08725931032365) rotate(330.2157325576138)"><path class="outline" fill="#A5ABB6" stroke="none" d="M 21.40063509461097,12.933012701892217 L 21.90063509461097,12.06698729810778 A 57.544769002691524 57.544769002691524 0 0 0 26.40315879362541,14.408132289102518 L 25.981402633631156,15.314841581823678 A 58.544769002691524 58.544769002691524 0 0 1 21.40063509461097,12.933012701892217 Z M 71.9776049898764,16.76252312103825 L 71.61370253100873,15.83108605905818 A 57.544769002691524 57.544769002691524 0 0 0 76.25453883465926,13.777718597602345 L 74.92088924241712,11.090456279719628 L 82.74709250842594,11.11374660201781 L 78.0327382909821,17.360735021445965 L 76.69908869873996,14.673472703563249 A 58.544769002691524 58.544769002691524 0 0 1 71.9776049898764,16.76252312103825"/><text text-anchor="middle" pointer-events="none" font-size="8px" fill="#000000" x="48.847026437045635" y="23.247796006362385" font-family="sans-serif">DIRECTED</text></g><g class="relationship" transform="translate(135.2177188789304 259.08725931032365) rotate(330.2157325576138)"><path class="outline" fill="#A5ABB6" stroke="none" d="M 25 0.5 L 27.625160078724285 0.5 L 27.625160078724285 -0.5 L 25 -0.5 Z M 70.51578507872429 0.5 L 73.14094515744857 0.5 L 73.14094515744857 3.5 L 80.14094515744857 0 L 73.14094515744857 -3.5 L 73.14094515744857 -0.5 L 70.51578507872429 -0.5 Z"/><text text-anchor="middle" pointer-events="none" font-size="8px" fill="#000000" x="49.070472578724285" y="3" font-family="sans-serif">PRODU…</text></g><g class="relationship" transform="translate(135.2177188789304 259.08725931032365) rotate(330.2157325576138)"><path class="outline" fill="#A5ABB6" stroke="none" d="M 21.40063509461097,-12.933012701892217 L 21.90063509461097,-12.06698729810778 A 57.544769002691524 57.544769002691524 0 0 1 31.50333988972802,-16.48969333501981 L 31.17021352501306,-17.43257552550375 A 58.544769002691524 58.544769002691524 0 0 0 21.40063509461097,-12.933012701892217 Z M 66.66588916506628,-18.54976415660117 L 66.39271583392932,-17.587799328161204 A 57.544769002691524 57.544769002691524 0 0 1 76.25453883465926,-13.777718597602345 L 74.92088924241712,-11.090456279719628 L 82.74709250842594,-11.11374660201781 L 78.0327382909821,-17.360735021445965 L 76.69908869873996,-14.673472703563249 A 58.544769002691524 58.544769002691524 0 0 0 66.66588916506628,-18.54976415660117"/><text text-anchor="middle" pointer-events="none" font-size="8px" fill="#000000" x="48.84702643704562" y="-17.247796006362385" font-family="sans-serif">WROTE</text></g><g class="relationship" transform="translate(244.32056098867614 16.995868331463566) rotate(203.16704434778802)"><path class="outline" fill="#A5ABB6" stroke="none" d="M 24.018736134675446,6.953439040707552 L 24.277555179777966,5.987513214418485 A 99.5813717399934 99.5813717399934 0 0 0 30.747162539208155,7.491705510868371 L 30.553311542309693,8.472736494579621 A 100.5813717399934 100.5813717399934 0 0 1 24.018736134675446,6.953439040707552 Z M 66.30959397274668,9.057916545268085 L 66.14794889903212,8.071067585120787 A 99.5813717399934 99.5813717399934 0 0 0 72.66331298354353,6.779384692089367 L 71.98209514536005,3.8577512008826718 L 79.59399410272307,5.67681531819569 L 73.57160343445484,10.674896013698294 L 72.89038559627136,7.753262522491599 A 100.5813717399934 100.5813717399934 0 0 1 66.30959397274668,9.057916545268085"/><text text-anchor="middle" pointer-events="none" font-size="8px" fill="#000000" x="48.41341863992407" y="12.867266002785655" transform="rotate(180 48.41341863992407 9.867266002785655)" font-family="sans-serif">WROTE</text></g><g class="relationship" transform="translate(244.32056098867614 16.995868331463566) rotate(203.16704434778802)"><path class="outline" fill="#A5ABB6" stroke="none" d="M 24.018736134675446,-6.953439040707552 L 24.277555179777966,-5.987513214418485 A 99.5813717399934 99.5813717399934 0 0 1 25.353809133539894,-6.269460245453217 L 25.105797872412992,-7.238217394770956 A 100.5813717399934 100.5813717399934 0 0 0 24.018736134675446,-6.953439040707552 Z M 71.79458726493249,-8.002316632337141 L 71.57840929713126,-7.025962656446566 A 99.5813717399934 99.5813717399934 0 0 1 72.66331298354353,-6.779384692089367 L 71.98209514536005,-3.8577512008826718 L 79.59399410272307,-5.67681531819569 L 73.57160343445484,-10.674896013698294 L 72.89038559627136,-7.753262522491599 A 100.5813717399934 100.5813717399934 0 0 0 71.79458726493249,-8.002316632337141"/><text text-anchor="middle" pointer-events="none" font-size="8px" fill="#000000" x="48.41341863992403" y="-6.867266002785655" transform="rotate(180 48.41341863992403 -9.867266002785655)" font-family="sans-serif">DIRECTED</text></g><g class="relationship" transform="translate(47.61689150275416 -47.47499542207228) rotate(373.12262310060487)"><path class="outline" fill="#A5ABB6" stroke="none" d="M 24.018736134675446,6.953439040707552 L 24.277555179777966,5.987513214418485 A 99.41203109735675 99.41203109735675 0 0 0 25.312538443129334,6.258875030844209 L 25.064130444375294,7.227530524895116 A 100.41203109735675 100.41203109735675 0 0 1 24.018736134675446,6.953439040707552 Z M 71.75184952998869,7.992196146910047 L 71.53529612346703,7.015925373956222 A 99.41203109735675 99.41203109735675 0 0 0 72.57861077810745,6.778602551109951 L 71.8974659994869,3.8569520260543 L 79.50931946634073,5.676206488504604 L 73.48680381626819,10.674136584517486 L 72.80565903764764,7.752486059461835 A 100.41203109735675 100.41203109735675 0 0 1 71.75184952998869,7.992196146910047"/><text text-anchor="middle" pointer-events="none" font-size="8px" fill="#000000" x="48.37111203042695" y="12.861498084295903" font-family="sans-serif">DIRECTED</text></g><g class="relationship" transform="translate(47.61689150275416 -47.47499542207228) rotate(373.12262310060487)"><path class="outline" fill="#A5ABB6" stroke="none" d="M 24.018736134675446,-6.953439040707552 L 24.277555179777966,-5.987513214418485 A 99.41203109735675 99.41203109735675 0 0 1 30.705400201456275,-7.483064279860258 L 30.51123977916555,-8.464034070636657 A 100.41203109735675 100.41203109735675 0 0 0 24.018736134675446,-6.953439040707552 Z M 66.26716897478883,-9.04965552258544 L 66.10523731523574,-8.062853547701735 A 99.41203109735675 99.41203109735675 0 0 1 72.57861077810745,-6.778602551109951 L 71.8974659994869,-3.8569520260543 L 79.50931946634073,-5.676206488504604 L 73.48680381626819,-10.674136584517486 L 72.80565903764764,-7.752486059461835 A 100.41203109735675 100.41203109735675 0 0 0 66.26716897478883,-9.04965552258544"/><text text-anchor="middle" pointer-events="none" font-size="8px" fill="#000000" x="48.37111203042692" y="-6.861498084295903" font-family="sans-serif">WROTE</text></g><g class="relationship" transform="translate(-60.75965014754883 94.80518213042785) rotate(432.30155293111784)"><path class="outline" fill="#A5ABB6" stroke="none" d="M 21.40063509461097,12.933012701892217 L 21.90063509461097,12.06698729810778 A 57.14493710315776 57.14493710315776 0 0 0 31.315603141029868,16.41605505292575 L 30.980359084840305,17.358186372217048 A 58.14493710315776 58.14493710315776 0 0 1 21.40063509461097,12.933012701892217 Z M 66.47014495827833,18.479078914085555 L 66.19502141168806,17.517670034309837 A 57.14493710315776 57.14493710315776 0 0 0 75.86566897377698,13.771393298542709 L 74.53260781657863,11.083839029105707 L 82.35880579532969,11.108842976652767 L 77.64308385004142,17.354798991125374 L 76.31002269284308,14.667244721688373 A 58.14493710315776 58.14493710315776 0 0 1 66.47014495827833,18.479078914085555"/><text text-anchor="middle" pointer-events="none" font-size="8px" fill="#000000" x="48.653380707952536" y="23.19422770250928" font-family="sans-serif">WROTE</text></g><g class="relationship" transform="translate(-60.75965014754883 94.80518213042785) rotate(432.30155293111784)"><path class="outline" fill="#A5ABB6" stroke="none" d="M 25 0.5 L 27.432233186985677 0.5 L 27.432233186985677 -0.5 L 25 -0.5 Z M 70.32285818698568 0.5 L 72.75509137397135 0.5 L 72.75509137397135 3.5 L 79.75509137397135 0 L 72.75509137397135 -3.5 L 72.75509137397135 -0.5 L 70.32285818698568 -0.5 Z"/><text text-anchor="middle" pointer-events="none" font-size="8px" fill="#000000" x="48.87754568698568" y="3" font-family="sans-serif">PRODU…</text></g><g class="relationship" transform="translate(-60.75965014754883 94.80518213042785) rotate(432.30155293111784)"><path class="outline" fill="#A5ABB6" stroke="none" d="M 21.40063509461097,-12.933012701892217 L 21.90063509461097,-12.06698729810778 A 57.14493710315776 57.14493710315776 0 0 1 26.22114146623162,-14.321485037602905 L 25.796747575725124,-15.226962715793128 A 58.14493710315776 58.14493710315776 0 0 0 21.40063509461097,-12.933012701892217 Z M 71.77791422671123,-16.679210045469965 L 71.41150553075335,-15.748756033964597 A 57.14493710315776 57.14493710315776 0 0 1 75.86566897377698,-13.771393298542709 L 74.53260781657863,-11.083839029105707 L 82.35880579532969,-11.108842976652767 L 77.64308385004142,-17.354798991125374 L 76.31002269284308,-14.667244721688373 A 58.14493710315776 58.14493710315776 0 0 0 71.77791422671123,-16.679210045469965"/><text text-anchor="middle" pointer-events="none" font-size="8px" fill="#000000" x="48.653380707952536" y="-17.19422770250928" font-family="sans-serif">DIRECTED</text></g></g><g class="layer nodes"><g class="node" transform="translate(135.2177188789304,259.08725931032365)"><circle class="outline" cx="0" cy="0" r="25" fill="#68BDF6" stroke="#5CA8DB" stroke-width="2px"/><text text-anchor="middle" pointer-events="none" font-family="sans-serif" dy="1.5625" font-size="25" fill="#FFFFFF"/><text text-anchor="middle" pointer-events="none" font-family="sans-serif" dy="1.5625" font-size="25" fill="#FFFFFF"/><text text-anchor="middle" pointer-events="none" y="0" font-size="10px" fill="#FFFFFF" font-family="sans-serif"> Cameron</text><text text-anchor="middle" pointer-events="none" y="10" font-size="10px" fill="#FFFFFF" font-family="sans-serif"> Crowe</text></g><g class="node" transform="translate(226.46974307885674,206.86000179073272)"><circle class="outline" cx="0" cy="0" r="25" fill="#6DCE9E" stroke="#60B58B" stroke-width="2px"/><text text-anchor="middle" pointer-events="none" font-family="sans-serif" dy="1.5625" font-size="25" fill="#FFFFFF"/><text text-anchor="middle" pointer-events="none" font-family="sans-serif" dy="1.5625" font-size="25" fill="#FFFFFF"/><text text-anchor="middle" pointer-events="none" y="0" font-size="10px" fill="#FFFFFF" font-family="sans-serif"> Jerry</text><text text-anchor="middle" pointer-events="none" y="10" font-size="10px" fill="#FFFFFF" font-family="sans-serif"> Maguire</text></g><g class="node" transform="translate(244.32056098867614,16.995868331463566)"><circle class="outline" cx="0" cy="0" r="25" fill="#68BDF6" stroke="#5CA8DB" stroke-width="2px"/><text text-anchor="middle" pointer-events="none" font-family="sans-serif" dy="1.5625" font-size="25" fill="#FFFFFF"/><text text-anchor="middle" pointer-events="none" font-family="sans-serif" dy="1.5625" font-size="25" fill="#FFFFFF"/><text text-anchor="middle" pointer-events="none" y="0" font-size="10px" fill="#FFFFFF" font-family="sans-serif"> Lana</text><text text-anchor="middle" pointer-events="none" y="10" font-size="10px" fill="#FFFFFF" font-family="sans-serif"> Wacho…</text></g><g class="node" transform="translate(148.76123386167856,-23.89586651304109)"><circle class="outline" cx="0" cy="0" r="25" fill="#6DCE9E" stroke="#60B58B" stroke-width="2px"/><text text-anchor="middle" pointer-events="none" font-family="sans-serif" dy="1.5625" font-size="25" fill="#FFFFFF"/><text text-anchor="middle" pointer-events="none" font-family="sans-serif" dy="1.5625" font-size="25" fill="#FFFFFF"/><text text-anchor="middle" pointer-events="none" y="0" font-size="10px" fill="#FFFFFF" font-family="sans-serif"> Speed</text><text text-anchor="middle" pointer-events="none" y="10" font-size="10px" fill="#FFFFFF" font-family="sans-serif"> Racer</text></g><g class="node" transform="translate(47.61689150275416,-47.47499542207228)"><circle class="outline" cx="0" cy="0" r="25" fill="#68BDF6" stroke="#5CA8DB" stroke-width="2px"/><text text-anchor="middle" pointer-events="none" font-family="sans-serif" dy="1.5625" font-size="25" fill="#FFFFFF"/><text text-anchor="middle" pointer-events="none" font-family="sans-serif" dy="1.5625" font-size="25" fill="#FFFFFF"/><text text-anchor="middle" pointer-events="none" y="0" font-size="10px" fill="#FFFFFF" font-family="sans-serif"> Lilly</text><text text-anchor="middle" pointer-events="none" y="10" font-size="10px" fill="#FFFFFF" font-family="sans-serif"> Wacho…</text></g><g class="node" transform="translate(-60.75965014754883,94.80518213042785)"><circle class="outline" cx="0" cy="0" r="25" fill="#68BDF6" stroke="#5CA8DB" stroke-width="2px"/><text text-anchor="middle" pointer-events="none" font-family="sans-serif" dy="1.5625" font-size="25" fill="#FFFFFF"/><text text-anchor="middle" pointer-events="none" font-family="sans-serif" dy="1.5625" font-size="25" fill="#FFFFFF"/><text text-anchor="middle" pointer-events="none" y="0" font-size="10px" fill="#FFFFFF" font-family="sans-serif"> Nancy</text><text text-anchor="middle" pointer-events="none" y="10" font-size="10px" fill="#FFFFFF" font-family="sans-serif"> Meyers</text></g><g class="node" transform="translate(-28.913343932036515,194.6021858389406)"><circle class="outline" cx="0" cy="0" r="25" fill="#6DCE9E" stroke="#60B58B" stroke-width="2px"/><text text-anchor="middle" pointer-events="none" font-family="sans-serif" dy="1.5625" font-size="25" fill="#FFFFFF"/><text text-anchor="middle" pointer-events="none" y="5" font-size="10px" fill="#FFFFFF" font-family="sans-serif"> Somethi…</text></g></g></svg>